<svg width="511" height="341" viewBox="0 0 511 341" fill="none" xmlns="http://www.w3.org/2000/svg">
<g clip-path="url(#clip0_85_30009)">
<path d="M427.871 97.1032C419.818 99.631 404.522 100.817 393.777 94.814C377.936 85.9703 378.025 68.5554 379.387 63.0229C376.567 64.9852 372.519 64.9784 369.699 63.0229C366.878 61.0675 365.474 57.2657 366.333 53.9408C363.778 54.7311 357.673 55.5555 353.79 54.4245C339.563 50.2616 338.378 35.6947 339.413 29.7603H427.871V97.1101V97.1032Z" fill="#B8C13E"/>
<path d="M341.614 47.8563L341.791 49.73C341.791 49.73 360.616 48.2379 375.66 53.2729L383.1 45.6897L380.784 43.9932L374.584 48.088C374.584 48.088 355.357 44.838 341.614 47.8631V47.8563Z" fill="#181820"/>
<path d="M409.345 72.9703C405.612 66.9064 388.463 58.6623 388.463 58.6623L390.316 55.4736C390.316 55.4736 403.547 62.6413 408.548 63.5066C413.549 64.3718 418.945 55.9778 418.945 55.9778L420.88 57.177C420.88 57.177 416.418 64.6444 416.479 66.5112C416.547 68.3781 428.007 81.4188 428.007 81.4188L427.871 106.567C427.871 106.567 424.805 100.871 421.085 94.0439C415.28 89.479 406.743 93.4716 406.743 93.4716L405.878 91.2368L417.964 88.3275C414.551 82.107 411.171 75.9477 409.345 72.9771V72.9703Z" fill="#181820"/>
<path d="M360.296 60.5494C360.296 60.5494 359.908 54.0563 365.209 55.1669C366.796 60.345 360.296 60.5494 360.296 60.5494Z" fill="#B8C13E"/>
<g opacity="0.2">
<path d="M424.928 29.7529L274.694 179.98H427.871V29.7529H424.928Z" fill="#5982FB"/>
<path d="M196.477 29.7529V165.216L331.939 29.7529H196.477Z" fill="#5982FB"/>
<path d="M345.811 29.7529L196.477 179.088V179.98H218.143L368.377 29.7529H345.811Z" fill="#5982FB"/>
</g>
<path d="M196.47 179.98L427.871 179.98V29.7533L196.47 29.7533L196.47 179.98Z" stroke="#B0C7FF" stroke-width="3.40667" stroke-miterlimit="10"/>
<path d="M312.174 29.7529V180.259" stroke="#B0C7FF" stroke-width="3.40667" stroke-miterlimit="10"/>
<path d="M429.554 24.9087H194.794" stroke="#B0C7FF" stroke-width="1.36267" stroke-miterlimit="10"/>
<path d="M264.344 211.601L273.113 303.472" stroke="#D3D3D3" stroke-width="0.681333" stroke-linecap="round" stroke-linejoin="round"/>
<path d="M216.664 211.601L207.889 303.472" stroke="#D3D3D3" stroke-width="0.681333" stroke-linecap="round" stroke-linejoin="round"/>
<path d="M269.59 205.959H211.411V211.601H269.59V205.959Z" fill="#D3D3D3" stroke="#D3D3D3" stroke-width="0.681333" stroke-miterlimit="10"/>
<path d="M162.26 283.42L169.305 262.578L188.77 268.799L181.228 287.024C181.228 287.024 171.247 290.09 162.26 283.42Z" fill="#E9ABA7"/>
<path d="M230.577 271.02L234.433 283.57C234.433 283.57 247.406 283.352 249.504 277.336L247.188 266.319L230.577 271.02Z" fill="#E9ABA7"/>
<path d="M181.228 287.018C181.228 287.018 175.035 287.44 171.757 287.018C168.868 286.643 162.26 283.414 162.26 283.414C162.26 283.414 157.994 285.642 155.732 287.018C153.464 288.394 141.636 289.757 136.389 294.104C135.626 294.731 134.611 296.89 134.257 299.309C133.896 301.803 132.908 303.465 132.908 303.465H183.98C183.98 303.465 185.922 293.456 181.228 287.018Z" fill="white"/>
<path d="M184.376 299.309C185.67 300.011 185.602 303.472 185.602 303.472H132.479C132.479 301.394 132.908 299.684 134.257 299.309H184.376Z" fill="black"/>
<path d="M234.134 282.589L229.63 289.034C229.63 289.034 222.026 289.321 217.209 294.206C216.235 295.194 215.397 297.013 215.669 299.309C215.812 300.488 215.002 301.394 214.845 303.465H237.07L257.428 293.926C257.428 293.926 256.931 284.504 249.511 277.329C249.511 277.329 247.74 281.301 234.14 282.582L234.134 282.589Z" fill="white"/>
<path d="M258.205 293.729L237.063 303.472H214.838C214.232 301.878 214.266 300.099 215.669 299.309H236.137L256.747 290.043C258.205 291.058 258.205 293.729 258.205 293.729Z" fill="black"/>
<path d="M250.751 181.452L229.31 179.619C229.31 179.619 204.639 188.851 193.581 194.125C191.128 195.297 188.982 197.027 187.04 201.006C182.522 210.238 163.915 272.962 163.915 272.962C163.915 272.962 179.518 278.242 188.777 280.375C188.777 280.375 210.675 229.752 209.715 218.953L241.24 210.122C241.24 210.122 256.842 199.848 250.751 181.452Z" fill="#4817CE"/>
<path d="M251.01 196.966C248.217 205.524 241.233 210.116 241.233 210.116L212.712 218.101L231.878 195.535C231.878 195.535 240.708 196.291 251.017 196.966H251.01Z" fill="black"/>
<path d="M263.308 175.777L259.684 163.322L226.489 164.351L224.922 177.207C224.922 177.207 232.859 178.992 243.74 178.72C254.621 178.447 263.315 175.777 263.315 175.777H263.308Z" fill="#FFC6A6"/>
<path d="M264.33 177.194L263.302 175.776C255.637 177.895 242.289 179.612 224.909 177.207L221.924 182.426L238.985 185.628C231.558 195.753 213.101 221.596 214.089 227.108C214.954 232.675 228.09 279.571 228.09 279.571C228.09 279.571 242.419 275.68 249.818 273.575C249.818 273.575 243.659 232.116 241.335 225.33C249.137 218.578 256.291 213.829 261.319 206.028H264.501C264.501 206.028 275.259 193.845 264.33 177.194Z" fill="#4817CE"/>
<path d="M257.858 178.066L260.126 184.6C260.126 184.6 265.891 193.328 257.129 204.495C250.104 213.441 236.137 226.045 236.137 226.045C236.137 226.045 243.802 260.575 245.307 270.707" stroke="black" stroke-width="0.340667" stroke-linecap="round" stroke-linejoin="round"/>
<path d="M165.36 159.206H172.105L178.128 154.791L171.901 153.149L165.36 159.206Z" fill="black"/>
<path d="M276.158 140.149C276.158 140.149 261.836 145.137 260.828 145.661C261.387 146.772 267.083 161.748 272.717 161.748H280.137C281.527 160.801 282.91 159.486 284.246 157.939L277.507 142.05C276.839 140.272 276.219 140.361 276.158 140.156V140.149Z" fill="#FFC6A6"/>
<path d="M252.271 100.38C252.271 100.38 253.606 107.779 257.967 112.801C262.893 118.483 262.143 125.453 250.233 130.597C238.324 135.741 214.15 130.808 214.164 120.03C214.177 111.724 225.031 106.185 223.471 96.5849C221.904 86.985 239.427 89.3901 239.823 89.3901C240.218 89.3901 252.277 100.373 252.277 100.373L252.271 100.38Z" fill="#140900"/>
<path d="M213.775 136.416L207.105 149.538L185.37 151.589C185.37 151.589 174.094 148.741 171.567 148.475C170.245 148.339 161.66 156.91 161.401 157.237C160.808 157.987 163.214 160.494 165.973 158.9C169.346 156.958 172.405 154.682 172.405 154.682L174.68 155.323C173.379 155.738 171.717 156.29 171.274 156.535C170.524 156.944 169.972 158.94 171.614 159.192H182.291L182.189 161.741H215.656C218.967 161.741 227.559 143.086 227.559 143.086L213.762 136.416H213.775Z" fill="#FFC6A6"/>
<path d="M174.946 155.241L176.541 154.764C176.541 154.764 177.842 152.734 180.349 152.298" stroke="black" stroke-width="0.340667" stroke-linecap="round" stroke-linejoin="round"/>
<path d="M277.507 142.043C270.701 144.019 270.271 144.203 263.588 146.152C263.424 148.646 263.015 148.08 262.6 154.648C265.298 160.766 266.558 163.212 268.623 167.805C257.122 176.737 228.09 175.122 219.301 172.138C219.301 172.138 223.498 161.741 225.263 157.53C223.341 153.394 222.292 150.826 222.292 150.826C213.585 146.956 208.597 144.626 208.597 144.626C208.597 144.626 218.034 126.741 219.485 125.467C222.04 123.232 233.268 124.683 233.268 124.683C233.268 124.683 243.42 124.799 250.009 122.823C254.56 121.46 262.239 116.875 267.137 120.357C272.036 123.838 277.507 142.037 277.507 142.037V142.043Z" fill="#D971FF"/>
<path d="M231.074 124.459C231.074 124.459 233.18 131.558 243.747 131.272C243.747 131.272 249.77 131.074 251.644 126.216C253.184 122.21 245.648 125.017 243.645 125.228C240.634 125.549 231.081 124.459 231.081 124.459H231.074Z" fill="white"/>
<path d="M253.545 92.2247C251.337 81.739 234.038 84.73 231.088 92.2247C228.036 99.9715 230.23 105.102 234.031 109.592L233.262 124.69C233.262 124.69 235.38 128.826 242.221 129.221C248.169 129.562 249.525 125.944 249.525 125.944L246.881 115.908C251.031 116.317 253.824 113.755 254.655 109.142C256.297 100.06 253.688 92.9128 253.545 92.2315V92.2247Z" fill="#FFC6A6"/>
<path d="M254.894 98.3704C254.894 98.3704 254.458 91.9659 250.438 90.3238C250.438 90.3238 247.052 96.0743 241.369 97.8866C241.771 104.707 233.936 104.318 232.846 104.891C234.256 108.781 234.031 109.783 234.031 109.783C234.031 109.783 222.749 104.502 223.321 93.056C223.832 82.8019 236.716 74.8984 246.023 82.0048C246.023 82.0048 248.864 79.2794 253.013 81.2008C259.098 84.0147 258.328 94.3573 254.887 98.3636L254.894 98.3704Z" fill="#140900"/>
<path d="M238.596 103.255C238.038 101.682 236.144 98.5338 232.941 99.7398C228.131 101.552 232.056 111.452 236.757 109.858C239.904 108.788 239.087 104.618 238.596 103.255Z" fill="#FFC6A6"/>
<path d="M207.323 149.831C207.323 149.831 212.876 149.559 214.9 155.766" stroke="black" stroke-width="0.340667" stroke-linecap="round" stroke-linejoin="round"/>
<path d="M291.87 118.02C291.87 118.02 296.912 110.661 298.86 109.374C299.773 108.767 305.667 111.077 306.15 111.329C307.472 112.017 305.973 114.334 303.459 114.109L300.979 113.782L298.431 117.291" fill="#FFC6A6"/>
<path d="M310.811 115.111C309.925 115.008 302.614 114.763 302.614 114.763L296.891 116.405L294.111 119.737L294.513 120.527C292.429 123.525 289.131 129.31 295.038 128.88C298.547 128.622 300.482 127.531 301.558 126.394C302.274 126.673 303.098 126.496 303.207 125.937C303.221 126.346 303.262 126.693 303.35 126.918C303.957 128.39 305.578 128.356 306.028 127.593C306.375 127 307.023 124.023 307.493 121.897C307.738 120.793 307.241 119.771 306.137 119.519L305.34 119.335C305.394 119.09 305.442 118.872 305.476 118.694C306.805 118.633 308.358 118.538 309.53 118.374C312.03 118.027 312.174 115.281 310.811 115.124V115.111Z" fill="#FFC6A6"/>
<path d="M283.196 119.846C283.026 119.212 283.285 118.585 283.782 118.449L311.397 110.948C311.608 110.886 311.833 110.866 312.058 110.88L314.401 111.023C314.735 111.043 314.851 111.472 314.572 111.663L312.623 112.971C312.439 113.094 312.235 113.189 312.024 113.244L284.409 120.745C283.912 120.881 283.373 120.473 283.196 119.839V119.846Z" fill="#B03A36"/>
<path d="M295.733 120.472C302.921 114.558 299.453 110.981 297.913 112.181C295.195 114.3 288.64 117.802 288.422 120.513C288.204 123.225 287.182 127.81 287.182 127.81C280.165 135.019 281.943 133.908 272.534 143.808L284.239 157.925C289.145 152.25 298.561 128.199 298.561 128.199C298.935 124.213 295.733 120.472 295.733 120.472Z" fill="#FFC6A6"/>
<path d="M295.733 120.472C302.921 114.558 299.453 110.981 297.913 112.181C295.195 114.3 288.64 117.802 288.422 120.513" stroke="black" stroke-width="0.340667" stroke-linecap="round" stroke-linejoin="round"/>
<path d="M307.459 118.565L301.688 118.667" stroke="black" stroke-width="0.340667" stroke-linecap="round" stroke-linejoin="round"/>
<path d="M301.136 119.239C301.136 119.239 300.564 123.47 300.502 124.663C300.393 126.707 303.016 126.945 303.214 125.923" stroke="black" stroke-width="0.340667" stroke-linecap="round" stroke-linejoin="round"/>
<path d="M304.359 119.934L303.207 125.923C303.207 125.923 303.098 128.178 305.238 128.076" stroke="black" stroke-width="0.340667" stroke-linecap="round" stroke-linejoin="round"/>
<path d="M272.534 143.808L267.717 148.939" stroke="black" stroke-width="0.340667" stroke-linecap="round" stroke-linejoin="round"/>
<path d="M228.26 231.707C231.449 231.257 236.13 229.07 240.497 225.629C240.497 225.629 236.982 226.556 230.72 225.629" stroke="black" stroke-width="0.340667" stroke-linecap="round" stroke-linejoin="round"/>
<g style="mix-blend-mode:multiply">
<path d="M246.881 115.901C246.881 115.901 242.194 115.479 237.86 111.438C237.86 111.438 240.225 118.068 247.917 119.853L246.874 115.901H246.881Z" fill="#D97969"/>
</g>
<path opacity="0.2" d="M222.285 150.826C222.285 150.826 222.053 150.111 222.476 148.36C222.932 146.466 224.016 140.524 224.016 140.524L219.035 149.375L222.285 150.819V150.826Z" fill="black"/>
<path opacity="0.2" d="M263.581 146.152L264.426 134.938L266.422 145.321L263.581 146.152Z" fill="black"/>
<path d="M224.915 204.311L204.652 211.601C204.652 211.601 204.38 216.63 199.999 227.034C195.618 237.437 180.192 275.422 180.192 275.422" stroke="black" stroke-width="0.340667" stroke-linecap="round" stroke-linejoin="round"/>
<path d="M250.962 179.169C250.962 179.169 243.045 192.823 261.952 192.823L261.98 191.127C261.98 191.127 246.718 192.176 252.788 178.944L250.962 179.169Z" fill="black"/>
<path d="M232.778 194.261L234.386 185.88" stroke="black" stroke-width="0.340667" stroke-linecap="round" stroke-linejoin="round"/>
<path d="M340.735 161.741H129.896V167.886H340.735V161.741Z" fill="#D3D3D3" stroke="#D3D3D3" stroke-width="0.681333" stroke-miterlimit="10"/>
<path d="M149.894 164.991L111.93 303.676" stroke="#D3D3D3" stroke-width="0.681333" stroke-linecap="round" stroke-linejoin="round"/>
<path d="M320.738 164.991L358.702 303.676" stroke="#D3D3D3" stroke-width="0.681333" stroke-linecap="round" stroke-linejoin="round"/>
<path d="M127.273 247.623H343.352" stroke="#D3D3D3" stroke-width="0.681333" stroke-linecap="round" stroke-linejoin="round"/>
<path d="M334.051 101.593H321.317C320.173 101.593 319.246 102.52 319.246 103.664V116.398C319.246 117.542 320.173 118.469 321.317 118.469H334.051C335.195 118.469 336.122 117.542 336.122 116.398V103.664C336.122 102.52 335.195 101.593 334.051 101.593Z" fill="white" stroke="black" stroke-width="0.681333" stroke-miterlimit="10"/>
<path d="M320.425 108.945C320.425 108.945 324.608 111.479 327.347 116.732C327.347 116.732 330.801 106.356 341.818 101.375L337.764 97.4438C337.764 97.4438 329.854 102.608 326.897 111.881C326.897 111.881 323.647 108.509 320.418 108.952L320.425 108.945Z" fill="#5982FB"/>
<path d="M404.447 303.669C404.447 303.669 411.492 263.764 436.326 255.411C436.326 255.411 426.801 268.847 423.408 282.896C423.408 282.896 430.978 265.978 448.27 263.11C448.27 263.11 430.848 274.72 427.585 289.893C427.585 289.893 444.087 277.2 462.551 288.333C462.551 288.333 437.764 285.389 430.889 303.663" fill="#B8C13E"/>
<path d="M432.981 303.676L421.337 251.895H415.511L427.155 303.676H432.981Z" fill="#5982FB"/>
<path d="M336.695 303.676L363.716 197.988C365.058 192.735 369.794 189.056 375.224 189.056H433.342C437.096 189.056 439.842 192.592 438.908 196.23L411.437 303.676" fill="#D3D3D3"/>
<path d="M336.695 303.676L363.716 197.988C365.058 192.735 369.794 189.056 375.224 189.056H433.342C437.096 189.056 439.842 192.592 438.908 196.23L411.437 303.676" stroke="#D3D3D3" stroke-width="0.681333" stroke-miterlimit="10"/>
<path d="M328.587 303.676L316.936 251.895H386.698L398.349 303.676" fill="#5982FB"/>
<path d="M411.907 251.895L410.435 257.611H377.03V251.895H411.907Z" fill="#5982FB"/>
<path d="M285.24 268.982L266.088 285.886L287.748 294.301L300.843 284.51C300.843 284.51 292.939 269.221 285.247 268.982H285.24Z" fill="#E9ABA7"/>
<path d="M328.28 273.923L340.565 289.9L355.05 280.899L345.089 262.197C345.089 262.197 329.452 266.019 328.28 273.923Z" fill="#E9ABA7"/>
<path d="M354.457 279.795L346.867 284.537C346.867 284.537 344.564 283.679 342.221 283.795C339.877 283.911 336.797 286.241 336.572 286.813C336.341 287.385 339.475 289.9 339.475 289.9L337.376 291.392C334.092 289.027 319.11 286.84 323.341 303.676H351.35L366.551 292.611C366.551 292.611 364.793 283.161 354.464 279.789L354.457 279.795Z" fill="#070060"/>
<path d="M368.145 291.446L351.343 303.669H322.21C321.924 302.518 322.305 301.148 322.727 300.474H349.756L357.598 294.662C358.218 290.928 359.724 287.699 362.872 285.396C367.001 287.42 368.145 291.446 368.145 291.446Z" fill="black"/>
<path d="M342.622 299.029C342.622 299.029 340.885 293.953 337.676 291.739C337.676 291.739 340.633 292.666 345.586 297.306C345.586 297.306 343.985 292.666 339.025 290.778C339.025 290.778 343.835 291.119 348.516 294.539C348.516 294.539 345.845 290.233 340.231 289.906" stroke="black" stroke-width="0.340667" stroke-linecap="round" stroke-linejoin="round"/>
<path d="M347.848 198.506L343.706 210.054L322.373 219.409L325.902 229.016C325.902 229.016 354.982 219.941 356.351 218.83C357.721 217.719 363.485 203.18 363.485 203.18L347.834 198.499L347.848 198.506Z" fill="#FFC6A6"/>
<path d="M340.177 226.032H310.259C300.244 226.032 289.731 233.152 299.535 247.432C304.236 254.273 325.487 281.336 325.487 281.336L348.605 267.341C348.605 267.341 338.855 247.678 327.102 235.884L340.17 226.032H340.177Z" fill="#232323"/>
<path d="M322.373 249.674C322.373 249.674 332.205 263.239 337.676 272.505" stroke="black" stroke-width="0.340667" stroke-linecap="round" stroke-linejoin="round"/>
<path d="M317.767 235.325L303.957 253.469C302.049 250.934 300.495 248.815 299.562 247.466L317.774 235.325H317.767Z" fill="black"/>
<path d="M405.973 168.983C404.855 168.363 387.999 165.475 387.999 165.475L371.831 166.34L364.745 168.323C364.745 168.323 352.195 170.966 350.458 177.957C349.075 183.503 344.537 200.781 344.537 200.781L360.759 203.513C360.201 214.272 358.225 226.038 358.225 226.038H398.396C398.396 226.038 405.332 204.495 405.782 195.76C407.124 183.693 406.586 171.314 405.973 168.99V168.983Z" fill="#AFAFAF"/>
<path d="M360.753 203.507C360.753 203.507 361.168 195.808 361.216 193.205L357.884 203.023L360.759 203.507H360.753Z" fill="black"/>
<path d="M374.373 129.18C374.373 129.18 373.548 117.734 382.617 117.529C386.943 117.434 390.152 118.463 392.333 119.573C394.084 120.466 395.521 121.89 396.325 123.682C396.679 124.465 397.286 125.419 398.342 126.277C399.868 127.517 401.04 129.159 401.449 131.088C401.96 133.52 401.667 136.531 398.063 138.208C394.697 137.588 395.862 141.921 395.862 141.921C395.862 141.921 396.366 149.545 389.341 148.877C383.666 152.386 381.499 150.621 380.988 149.545L374.379 129.194L374.373 129.18Z" fill="#231000"/>
<path d="M362.797 135.605C362.797 135.605 355.002 131.374 352.904 134.76C349.354 140.49 361.42 146.636 361.42 146.636L362.797 135.605Z" fill="#301700"/>
<path d="M383.4 152.468C384.204 149.933 384.538 147.126 384.327 144.299C383.1 128.144 359.921 129.725 359.921 141.315C359.921 141.315 359.744 160.807 369.317 162.47C370.284 162.64 371.218 162.688 372.11 162.633L371.518 170.428C371.518 170.428 382.998 173.371 387.999 165.468L383.4 152.468Z" fill="#D97969"/>
<path d="M358.859 140.354C363.628 143.052 367.845 138.282 367.845 138.282C367.845 138.282 373.698 142.806 377.711 138.725C377.711 138.725 377.35 142.377 378.488 144.476C380.518 148.223 385.798 145.961 385.798 145.961C385.798 145.961 391.14 136.497 388.36 132.9C386.091 129.97 381.09 132.123 381.09 132.123C381.09 132.123 377.67 125.255 373.18 124.329C368.465 123.354 365.304 124.601 365.304 124.601C365.304 124.601 362.66 126.693 357.523 126.523C350.751 126.291 353.353 137.247 358.859 140.36V140.354Z" fill="#301700"/>
<path d="M384.722 143.399C392.053 142.888 388.592 155.486 383.666 154.348C379.85 153.463 380.334 143.706 384.722 143.399Z" fill="#D97969"/>
<g style="mix-blend-mode:multiply">
<path d="M372.111 162.633C372.111 162.633 379.046 161.864 381.05 154.88C381.05 154.88 381.595 164.241 371.783 166.933L372.111 162.64V162.633Z" fill="#FFC6A6"/>
</g>
<path d="M398.396 226.032H334.848C330.222 226.032 325.773 227.796 322.4 230.965L282.815 268.186L300.836 288.34C300.836 288.34 330.29 272.519 344.087 251.895H386.691C386.691 251.895 403.97 245.566 398.39 226.032H398.396Z" fill="#232323"/>
<path d="M394.465 230.27C394.465 230.27 393.395 242.643 383.611 244.4C373.828 246.158 347.249 245.3 347.249 245.3C347.249 245.3 342.936 244.394 340.429 239.529C339.059 242.247 341.158 245.368 342.513 247.323C340.36 254.436 319.641 273.677 303.371 282.896" stroke="black" stroke-width="0.340667" stroke-linecap="round" stroke-linejoin="round"/>
<path d="M300.836 288.339C300.836 288.339 330.29 272.519 344.087 251.895C344.087 251.895 346.908 247.521 348.155 242.247" stroke="black" stroke-width="0.340667" stroke-linecap="round" stroke-linejoin="round"/>
<path d="M344.094 226.031H374.223C374.223 224.451 373.316 222.393 369.63 222.393H344.094V226.031Z" fill="black"/>
<path d="M311.172 226.032H361.454C362.429 226.032 363.144 225.112 362.906 224.165L353.987 189.083C353.714 188.013 352.754 187.264 351.65 187.264H301.368C300.393 187.264 299.678 188.183 299.916 189.131L308.835 224.212C309.107 225.282 310.068 226.032 311.172 226.032Z" fill="black"/>
<path d="M308.856 226.032H359.138C360.112 226.032 360.828 225.112 360.589 224.165L351.671 189.083C351.398 188.013 350.437 187.264 349.333 187.264H299.051C298.077 187.264 297.361 188.183 297.6 189.131L306.519 224.212C306.791 225.282 307.752 226.032 308.856 226.032Z" fill="#5982FB"/>
<path d="M332.722 206.838C332.722 208.364 330.535 209.604 327.837 209.604C325.139 209.604 322.952 208.364 322.952 206.838C322.952 205.312 325.139 204.072 327.837 204.072C330.535 204.072 332.722 205.312 332.722 206.838Z" fill="white"/>
<path d="M374.223 226.032C374.223 226.032 389.655 238.2 402.736 238.37C402.736 238.37 407.928 208.93 406.422 187.707" fill="#AFAFAF"/>
<path d="M263.84 285.866C263.84 285.866 267.199 282.228 269.781 281.411C272.363 280.593 279.51 285.512 280.566 286.684C281.623 287.856 281.268 291.726 281.268 291.726L288.375 293.92C288.375 293.92 289.696 300.788 286.991 303.67H240.818C240.818 303.67 238.337 288.054 257.197 289.212L263.84 285.86V285.866Z" fill="#070060"/>
<path d="M288.688 298.083C289.873 299.745 289.669 302.47 289.499 303.669H239.939C239.939 303.669 239.591 301.557 240.763 300.59H280.744C282.754 298.968 285.377 298.103 288.688 298.083Z" fill="black"/>
<path d="M267.246 295.459C264.044 289.532 257.674 289.252 257.674 289.252C257.674 289.252 263.431 287.481 270.115 294.056C270.115 294.056 267.655 289.055 261.748 287.263C261.748 287.263 266.47 287.072 273.269 292.169C273.269 292.169 270.224 286.766 264.262 285.853" stroke="black" stroke-width="0.340667" stroke-linecap="round" stroke-linejoin="round"/>
<path d="M405.973 168.984C405.973 168.984 410.136 170.149 412.091 173.753C414.203 177.643 420.533 194.411 420.533 194.411L400.168 201.694C400.168 201.694 394.288 186.044 394.288 179.919C394.288 173.794 397.122 166.245 405.973 168.984Z" fill="#AFAFAF"/>
<path d="M401.04 198.587L397.64 187.08L397.354 199.623" fill="black"/>
<path d="M358.32 185.949C358.32 185.949 358.606 194.152 360.712 197.981C362.02 200.352 364.35 201.749 366.816 201.749H371.606C374.073 201.749 376.41 200.352 377.711 197.981C379.823 194.152 380.102 185.949 380.102 185.949H358.307H358.32Z" fill="#372EE2"/>
<path d="M377.731 189.376C377.731 189.376 382.494 187.706 384.395 190.806C386.091 193.566 384.293 198.948 376.076 198.948" stroke="#372EE2" stroke-width="2.044" stroke-miterlimit="10"/>
<path d="M419.702 194.704L411.253 197.729C404.024 196.053 398.287 195.181 391.392 193.675C391.351 193.614 388.769 189.968 387.584 189.199C386.384 188.429 379.694 189.199 378.454 190.377C378.059 190.752 378.188 192.367 378.992 192.748C378.992 192.748 377.909 193.525 377.95 194.37C377.99 195.215 378.972 196.489 378.972 196.489C378.972 196.489 378.004 197.456 378.086 198.185C378.134 198.608 378.495 198.989 378.781 199.35C376.655 199.303 374.495 199.262 373.78 199.316C372.676 199.398 371.865 200.584 372.71 201.197C373.923 202.083 379.83 202.648 379.83 202.648C381.159 203.22 383.332 204.086 384.32 204.208C385.233 204.317 387.148 204.086 388.408 203.343C393.382 205.925 407.043 212.657 414.033 212.657C426.692 212.657 419.695 194.697 419.695 194.697L419.702 194.704Z" fill="#E9ABA7"/>
<path d="M411.491 197.756C411.491 197.756 416.377 198.874 418.134 199.248" stroke="black" stroke-width="0.340667" stroke-linecap="round" stroke-linejoin="round"/>
<path d="M390.459 257.611V258.293H354.532L354.703 257.611H390.459Z" fill="black"/>
<path d="M384.361 147.031C383.85 147.194 383.08 147.903 383.298 149.211C383.434 150.049 384.245 150.267 384.245 150.267C384.245 150.267 383.496 152.795 383.652 153.333C383.795 153.817 384.742 153.933 384.899 153.647C385.001 153.463 386.35 150.506 386.725 148.857C386.964 147.794 385.867 146.554 384.354 147.031H384.361Z" fill="black"/>
<path d="M396.523 147.883L403.2 135.639C401.088 132.512 399.977 128.649 400.331 124.513C401.04 116.242 407.758 109.571 416.036 108.91C426.624 108.066 435.4 116.827 434.575 127.415C433.921 135.789 427.115 142.561 418.734 143.175C415.075 143.44 411.641 142.561 408.753 140.858L397.558 148.809C396.945 149.245 396.162 148.55 396.523 147.889V147.883Z" fill="white" stroke="black" stroke-width="0.681333" stroke-miterlimit="10"/>
<path d="M425.956 128.226C427.183 128.226 428.177 127.232 428.177 126.005C428.177 124.778 427.183 123.784 425.956 123.784C424.729 123.784 423.735 124.778 423.735 126.005C423.735 127.232 424.729 128.226 425.956 128.226Z" fill="black"/>
<path d="M417.562 128.226C418.789 128.226 419.783 127.232 419.783 126.005C419.783 124.778 418.789 123.784 417.562 123.784C416.336 123.784 415.341 124.778 415.341 126.005C415.341 127.232 416.336 128.226 417.562 128.226Z" fill="black"/>
<path d="M409.175 128.226C410.402 128.226 411.396 127.232 411.396 126.005C411.396 124.778 410.402 123.784 409.175 123.784C407.948 123.784 406.954 124.778 406.954 126.005C406.954 127.232 407.948 128.226 409.175 128.226Z" fill="black"/>
<path d="M127.845 143.809C97.3556 153 102.874 174.216 104.101 180.914C112.577 166.879 130.162 161.803 127.845 143.809Z" stroke="black" stroke-width="0.340667" stroke-linecap="round" stroke-linejoin="round"/>
<path d="M125.454 146.595C125.454 146.595 106.54 163.111 104.489 181.602" stroke="black" stroke-width="0.340667" stroke-linecap="round" stroke-linejoin="round"/>
<path d="M99.0727 230.754C99.0727 230.754 98.6298 218.851 100.054 202.492C102.214 177.623 109.368 157.592 110.71 157.653C112.713 157.749 103.971 175.913 103.065 201.116C102.425 219.082 103.951 228.812 103.488 230.672C103.181 231.905 99.1613 231.544 99.0659 230.761L99.0727 230.754Z" fill="black"/>
<path d="M82.0871 161.237C110.689 171.634 105.464 195.311 101.805 201.347C92.0687 196.755 80.7653 187.619 82.0871 161.237Z" fill="#B8C13E"/>
<path d="M85.0576 164.133C85.0576 164.133 101.921 182.74 101.805 201.347" stroke="black" stroke-width="0.340667" stroke-linecap="round" stroke-linejoin="round"/>
<path d="M123.669 177.398C114.294 186.392 98.7321 188.572 101.021 215.185C124.132 212.249 125.836 183.108 123.669 177.398Z" fill="#B8C13E"/>
<path d="M121.877 181.847C115.977 193.26 105.341 196.748 100.912 216.023" stroke="black" stroke-width="0.340667" stroke-linecap="round" stroke-linejoin="round"/>
<path d="M63.3982 182.74C99.8155 194.561 101.205 214.02 100.66 224.744C66.0418 220.37 76.5752 207.302 63.3982 182.74Z" fill="#B8C13E"/>
<path d="M67.5271 185.963C67.5271 185.963 95.1075 203.487 101.199 226.611" stroke="black" stroke-width="0.340667" stroke-linecap="round" stroke-linejoin="round"/>
<mask id="mask0_85_30009" style="mask-type:luminance" maskUnits="userSpaceOnUse" x="81" y="230" width="41" height="51">
<path d="M121.216 230.904H81.3715C81.3715 230.904 81.0717 268.289 88.7299 280.355H113.864C121.516 268.289 121.223 230.904 121.223 230.904H121.216Z" fill="white"/>
</mask>
<g mask="url(#mask0_85_30009)">
<path d="M81.7599 247.855C77.7741 247.855 73.7542 247.126 70.1636 245.648L71.0425 243.515C78.469 246.567 87.8442 246.172 94.3782 242.534C99.093 239.904 102.03 235.802 102.881 230.672L105.157 231.047C104.189 236.899 100.851 241.566 95.5024 244.551C91.5711 246.745 86.6995 247.855 81.7667 247.855H81.7599Z" fill="#A7D11D"/>
<path d="M92.4634 286.548L90.1946 286.133C91.3188 280.001 95.7951 275.177 102.472 272.908C110.675 270.121 120.023 271.709 125.733 276.867L124.186 278.577C119.158 274.039 110.532 272.601 103.208 275.088C97.3418 277.085 93.4241 281.254 92.4566 286.541L92.4634 286.548Z" fill="#A7D11D"/>
<path d="M82.8431 280.45L80.5742 280.048C82.3184 270.155 85.1392 259.166 96.6469 253.987C98.65 253.088 100.898 252.454 103.174 252.23C103.351 251.398 103.61 250.553 103.951 249.709C106.744 242.725 114.947 237.049 126.353 241.097L125.583 243.27C115.561 239.713 108.57 244.367 106.097 250.56C105.893 251.064 105.722 251.596 105.586 252.134C109.313 252.236 112.931 253.531 115.513 256.549C117.346 258.689 117.537 261.632 115.99 263.71C114.491 265.72 111.847 266.272 109.265 265.114C104.993 263.206 102.69 259.193 102.881 254.58C101.144 254.798 99.3518 255.302 97.6007 256.086C87.1218 260.801 84.4919 271.13 82.8499 280.444L82.8431 280.45ZM105.225 254.451C105.041 257.864 106.397 261.312 110.199 263.008C111.813 263.724 113.285 263.472 114.137 262.327C114.9 261.305 115.077 259.588 113.755 258.041C111.786 255.738 108.693 254.512 105.218 254.444L105.225 254.451Z" fill="#A7D11D"/>
</g>
<path d="M121.216 230.904H81.3715C81.3715 230.904 81.0717 268.289 88.7299 280.355H113.864C121.516 268.289 121.223 230.904 121.223 230.904H121.216Z" stroke="black" stroke-width="0.340667" stroke-linecap="round" stroke-linejoin="round"/>
<path d="M122.586 226.195H80.0022V234.705H122.586V226.195Z" fill="black"/>
<path d="M84.458 256.712H81.3647V303.472H84.458V256.712Z" fill="black"/>
<path d="M121.216 256.712H118.123V303.472H121.216V256.712Z" fill="black"/>
<path d="M102.833 269.658H99.7402V303.465H102.833V269.658Z" fill="black"/>
<path d="M119.669 280.089H82.9114V282.855H119.669V280.089Z" fill="black"/>
<path d="M101.587 226.195C101.587 226.195 102.52 220.125 108.979 221.705C118.13 219.362 124.064 227.333 117.884 246.131C117.884 246.131 109.095 243.344 104.653 226.195H101.587Z" fill="#F9B741"/>
<path d="M108.979 221.705C108.979 221.705 117.149 221.235 116.91 239.508" stroke="black" stroke-width="0.340667" stroke-linecap="round" stroke-linejoin="round"/>
<path d="M175.089 158.124H137.166V161.762H175.089V158.124Z" stroke="#D3D3D3" stroke-width="0.340667" stroke-linecap="round" stroke-linejoin="round"/>
<path d="M158.39 151.685H153.865C140.648 151.685 137.166 158.124 137.166 158.124H175.089C175.089 158.124 171.607 151.685 158.39 151.685Z" stroke="#D3D3D3" stroke-width="0.340667" stroke-linecap="round" stroke-linejoin="round"/>
<path d="M158.389 151.685L135.619 93.6284H131.095L153.865 151.685" fill="#D3D3D3"/>
<path d="M180.45 63.5886L172.134 69.2065L179.014 79.3917L187.33 73.7738L180.45 63.5886Z" fill="#CEFF00"/>
<path d="M202.738 77.842L187.203 72.4595L177.808 78.8095L176.997 95.2296L202.738 77.842Z" fill="#CEFF00"/>
<path d="M186.959 64.1414L127.274 104.673L129.816 108.415L189.501 67.884L186.959 64.1414Z" fill="#D3D3D3"/>
<path d="M169.686 79.4092C169.686 79.4092 169.468 105.702 161.421 107.589C153.334 109.49 151.072 91.8435 151.072 91.8435C151.072 91.8435 152.291 120.582 147.42 127.314C142.085 134.686 134.55 127.314 133.153 104.605V161.762" stroke="#D3D3D3" stroke-width="0.340667" stroke-linecap="round" stroke-linejoin="round"/>
<path d="M136.308 102.588C136.992 102.588 137.548 102.033 137.548 101.348C137.548 100.664 136.992 100.108 136.308 100.108C135.623 100.108 135.068 100.664 135.068 101.348C135.068 102.033 135.623 102.588 136.308 102.588Z" fill="#CEFF00"/>
<path d="M185.513 161.762H153.123V159.207H182.958C184.369 159.207 185.513 160.352 185.513 161.762Z" fill="black"/>
<path d="M165.005 161.735H144.375L136.962 127.3C136.532 125.311 138.045 123.437 140.082 123.437H153.423C155.371 123.437 157.054 124.8 157.463 126.701L165.005 161.735Z" fill="black"/>
<path d="M162.471 161.735H141.84L134.427 127.3C133.998 125.311 135.511 123.437 137.548 123.437H150.888C152.837 123.437 154.52 124.8 154.929 126.701L162.471 161.735Z" fill="#5982FB"/>
<path d="M303.377 141.908L303.534 144.647C302.178 144.483 299.759 144.565 298.267 146.786C296.278 149.75 298.036 157.224 304.358 158.846L304.529 161.789H319.811L320.962 141.908H303.37H303.377ZM299.303 150.602C299.303 150.602 298.908 147.624 301.252 146.704C302.41 146.248 303.677 147.059 303.745 148.305L304.229 156.611C304.249 156.945 303.909 157.176 303.609 157.04C302.008 156.325 299.691 154.608 299.303 150.608V150.602Z" fill="#452A78"/>
<path d="M303.779 148.769L303.956 151.828H320.39L320.567 148.769H303.779Z" fill="black"/>
<path d="M436.639 166.927C436.639 167.744 435.979 168.405 435.161 168.405C434.343 168.405 433.682 167.744 433.682 166.927C433.682 166.109 434.343 165.448 435.161 165.448C435.979 165.448 436.639 166.109 436.639 166.927Z" fill="#BACBFA"/>
<path d="M443.426 166.927C443.426 167.744 442.765 168.405 441.947 168.405C441.13 168.405 440.469 167.744 440.469 166.927C440.469 166.109 441.13 165.448 441.947 165.448C442.765 165.448 443.426 166.109 443.426 166.927Z" fill="#BACBFA"/>
<path d="M450.205 166.927C450.205 167.744 449.544 168.405 448.726 168.405C447.909 168.405 447.248 167.744 447.248 166.927C447.248 166.109 447.909 165.448 448.726 165.448C449.544 165.448 450.205 166.109 450.205 166.927Z" fill="#BACBFA"/>
<path d="M456.991 166.927C456.991 167.744 456.33 168.405 455.512 168.405C454.695 168.405 454.034 167.744 454.034 166.927C454.034 166.109 454.695 165.448 455.512 165.448C456.33 165.448 456.991 166.109 456.991 166.927Z" fill="#BACBFA"/>
<path d="M463.77 166.927C463.77 167.744 463.109 168.405 462.292 168.405C461.474 168.405 460.813 167.744 460.813 166.927C460.813 166.109 461.474 165.448 462.292 165.448C463.109 165.448 463.77 166.109 463.77 166.927Z" fill="#BACBFA"/>
<path d="M248.496 42.147C248.496 42.9646 247.835 43.6254 247.018 43.6254C246.2 43.6254 245.539 42.9646 245.539 42.147C245.539 41.3294 246.2 40.6685 247.018 40.6685C247.835 40.6685 248.496 41.3294 248.496 42.147Z" fill="#BACBFA"/>
<path d="M255.282 42.147C255.282 42.9646 254.621 43.6254 253.803 43.6254C252.986 43.6254 252.325 42.9646 252.325 42.147C252.325 41.3294 252.986 40.6685 253.803 40.6685C254.621 40.6685 255.282 41.3294 255.282 42.147Z" fill="#BACBFA"/>
<path d="M262.061 42.147C262.061 42.9646 261.4 43.6254 260.583 43.6254C259.765 43.6254 259.104 42.9646 259.104 42.147C259.104 41.3294 259.765 40.6685 260.583 40.6685C261.4 40.6685 262.061 41.3294 262.061 42.147Z" fill="#BACBFA"/>
<path d="M268.847 42.147C268.847 42.9646 268.186 43.6254 267.369 43.6254C266.551 43.6254 265.89 42.9646 265.89 42.147C265.89 41.3294 266.551 40.6685 267.369 40.6685C268.186 40.6685 268.847 41.3294 268.847 42.147Z" fill="#BACBFA"/>
<path d="M97.5329 65.1078C97.5329 66.5931 96.327 67.799 94.8417 67.799C93.3563 67.799 92.1504 66.5931 92.1504 65.1078C92.1504 63.6225 93.3563 62.4165 94.8417 62.4165C96.327 62.4165 97.5329 63.6225 97.5329 65.1078Z" fill="#BACBFA"/>
<path d="M109.886 65.1078C109.886 66.5931 108.68 67.799 107.194 67.799C105.709 67.799 104.503 66.5931 104.503 65.1078C104.503 63.6225 105.709 62.4165 107.194 62.4165C108.68 62.4165 109.886 63.6225 109.886 65.1078Z" fill="#BACBFA"/>
<path d="M122.238 65.1078C122.238 66.5931 121.032 67.799 119.547 67.799C118.062 67.799 116.856 66.5931 116.856 65.1078C116.856 63.6225 118.062 62.4165 119.547 62.4165C121.032 62.4165 122.238 63.6225 122.238 65.1078Z" fill="#BACBFA"/>
<path d="M59.4397 148.21C59.4397 149.062 58.7516 149.75 57.8999 149.75C57.0483 149.75 56.3601 149.062 56.3601 148.21C56.3601 147.359 57.0483 146.67 57.8999 146.67C58.7516 146.67 59.4397 147.359 59.4397 148.21Z" fill="#BACBFA"/>
<path d="M66.4915 148.21C66.4915 149.062 65.8033 149.75 64.9517 149.75C64.1 149.75 63.4119 149.062 63.4119 148.21C63.4119 147.359 64.1 146.67 64.9517 146.67C65.8033 146.67 66.4915 147.359 66.4915 148.21Z" fill="#BACBFA"/>
<path d="M73.5433 148.21C73.5433 149.062 72.8551 149.75 72.0034 149.75C71.1518 149.75 70.4636 149.062 70.4636 148.21C70.4636 147.359 71.1518 146.67 72.0034 146.67C72.8551 146.67 73.5433 147.359 73.5433 148.21Z" fill="#BACBFA"/>
<path d="M155.801 206.287C155.801 207.139 155.112 207.827 154.261 207.827C153.409 207.827 152.721 207.139 152.721 206.287C152.721 205.435 153.409 204.747 154.261 204.747C155.112 204.747 155.801 205.435 155.801 206.287Z" fill="#BACBFA"/>
<path d="M162.853 206.287C162.853 207.139 162.164 207.827 161.313 207.827C160.461 207.827 159.773 207.139 159.773 206.287C159.773 205.435 160.461 204.747 161.313 204.747C162.164 204.747 162.853 205.435 162.853 206.287Z" fill="#BACBFA"/>
<path d="M169.911 206.287C169.911 207.139 169.223 207.827 168.371 207.827C167.519 207.827 166.831 207.139 166.831 206.287C166.831 205.435 167.519 204.747 168.371 204.747C169.223 204.747 169.911 205.435 169.911 206.287Z" fill="#BACBFA"/>
<path d="M435.699 250.329C436.55 250.329 437.239 249.639 437.239 248.789C437.239 247.938 436.55 247.249 435.699 247.249C434.849 247.249 434.159 247.938 434.159 248.789C434.159 249.639 434.849 250.329 435.699 250.329Z" fill="#BACBFA"/>
<path d="M444.291 248.789C444.291 249.64 443.603 250.329 442.751 250.329C441.899 250.329 441.211 249.64 441.211 248.789C441.211 247.937 441.899 247.249 442.751 247.249C443.603 247.249 444.291 247.937 444.291 248.789Z" fill="#BACBFA"/>
<path d="M449.803 250.329C450.653 250.329 451.343 249.639 451.343 248.789C451.343 247.938 450.653 247.249 449.803 247.249C448.952 247.249 448.263 247.938 448.263 248.789C448.263 249.639 448.952 250.329 449.803 250.329Z" fill="#BACBFA"/>
<path d="M54.2888 226.911C54.2888 224.881 55.9376 223.232 57.968 223.232C59.9984 223.232 61.6472 224.881 61.6472 226.911C61.6472 228.942 59.9984 230.59 57.968 230.59C55.9376 230.59 54.2888 228.942 54.2888 226.911Z" stroke="#BACBFA" stroke-width="0.340667" stroke-miterlimit="10"/>
<path d="M443.984 125.277C445.079 125.277 445.967 124.389 445.967 123.294C445.967 122.199 445.079 121.312 443.984 121.312C442.889 121.312 442.001 122.199 442.001 123.294C442.001 124.389 442.889 125.277 443.984 125.277Z" stroke="#BACBFA" stroke-width="0.340667" stroke-miterlimit="10"/>
<path d="M288.422 214.061C290.883 214.061 292.878 212.066 292.878 209.605C292.878 207.144 290.883 205.149 288.422 205.149C285.961 205.149 283.966 207.144 283.966 209.605C283.966 212.066 285.961 214.061 288.422 214.061Z" stroke="#BACBFA" stroke-width="0.340667" stroke-miterlimit="10"/>
<path d="M70.0139 118.695C70.0139 116.971 71.4106 115.574 73.1344 115.574C74.8582 115.574 76.2549 116.971 76.2549 118.695C76.2549 120.418 74.8582 121.815 73.1344 121.815C71.4106 121.815 70.0139 120.418 70.0139 118.695Z" stroke="#BACBFA" stroke-width="0.340667" stroke-miterlimit="10"/>
<path d="M439.208 229.01C439.208 228.315 439.767 227.756 440.462 227.756C441.157 227.756 441.715 228.315 441.715 229.01C441.715 229.705 441.157 230.264 440.462 230.264C439.767 230.264 439.208 229.705 439.208 229.01Z" stroke="#BACBFA" stroke-width="0.340667" stroke-miterlimit="10"/>
<path d="M444.086 222.394C444.086 220.65 445.503 219.232 447.248 219.232C448.992 219.232 450.409 220.65 450.409 222.394C450.409 224.138 448.992 225.555 447.248 225.555C445.503 225.555 444.086 224.138 444.086 222.394Z" stroke="#BACBFA" stroke-width="0.340667" stroke-miterlimit="10"/>
<path d="M67.561 218.824C67.561 217.836 68.3582 217.039 69.3461 217.039C70.3341 217.039 71.1312 217.836 71.1312 218.824C71.1312 219.812 70.3341 220.609 69.3461 220.609C68.3582 220.609 67.561 219.812 67.561 218.824Z" stroke="#BACBFA" stroke-width="0.340667" stroke-miterlimit="10"/>
<path d="M456.991 115.547C459.26 115.547 461.099 113.708 461.099 111.439C461.099 109.17 459.26 107.331 456.991 107.331C454.722 107.331 452.882 109.17 452.882 111.439C452.882 113.708 454.722 115.547 456.991 115.547Z" stroke="#BACBFA" stroke-width="0.340667" stroke-miterlimit="10"/>
<path d="M168.024 44.6885C168.024 42.4197 169.863 40.5801 172.132 40.5801C174.401 40.5801 176.241 42.4197 176.241 44.6885C176.241 46.9574 174.401 48.797 172.132 48.797C169.863 48.797 168.024 46.9574 168.024 44.6885Z" stroke="#BACBFA" stroke-width="0.340667" stroke-miterlimit="10"/>
<path d="M120.065 125.61C120.065 124.411 121.039 123.437 122.238 123.437C123.437 123.437 124.412 124.411 124.412 125.61C124.412 126.81 123.437 127.784 122.238 127.784C121.039 127.784 120.065 126.81 120.065 125.61Z" stroke="#BACBFA" stroke-width="0.340667" stroke-miterlimit="10"/>
<path d="M440.721 303.677H47.2234" stroke="#D3D3D3" stroke-width="0.681333" stroke-linecap="round" stroke-linejoin="round"/>
<path d="M240.061 312.704C240.061 312.704 235.714 297.429 224.404 294.295C224.404 294.295 237.827 292.728 244.681 308.037C244.681 308.037 244.143 298.819 242.494 294.819C242.494 294.819 247.106 299.255 248.755 306.824C248.755 306.824 252.496 301.326 257.19 300.032C257.19 300.032 254.145 305.639 255.017 312.711" fill="white"/>
<path d="M240.061 312.704C240.061 312.704 235.714 297.429 224.404 294.295C224.404 294.295 237.827 292.728 244.681 308.037C244.681 308.037 244.143 298.819 242.494 294.819C242.494 294.819 247.106 299.255 248.755 306.824C248.755 306.824 252.496 301.326 257.19 300.032C257.19 300.032 254.145 305.639 255.017 312.711" stroke="#D3D3D3" stroke-width="0.340667" stroke-linecap="round" stroke-linejoin="round"/>
<path d="M257.19 312.705C257.19 312.705 259.581 304.467 274.98 306.818" stroke="#D3D3D3" stroke-width="0.340667" stroke-linecap="round" stroke-linejoin="round"/>
<path d="M386.963 312.705H174.217" stroke="#D3D3D3" stroke-width="0.681333" stroke-linecap="round" stroke-linejoin="round"/>
</g>
<defs>
<clipPath id="clip0_85_30009">
<rect width="511" height="340.667" fill="white"/>
</clipPath>
</defs>
</svg>
