<svg width="401" height="441" viewBox="0 0 401 441" fill="none" xmlns="http://www.w3.org/2000/svg">
<mask id="path-1-outside-1_111_2500" maskUnits="userSpaceOnUse" x="2" y="288.117" width="392" height="118" fill="black">
<rect fill="white" x="2" y="288.117" width="392" height="118"/>
<path d="M50.6608 401.117L73.4494 292.912H87.2209L64.1044 401.117H50.6608ZM4.42794 368.819V356.687H91.6474V368.819H4.42794ZM12.1334 401.117L35.2499 292.912H48.8574L25.9049 401.117H12.1334ZM8.19871 331.931V319.963H95.4182V331.931H8.19871ZM103.301 377.508V360.458C108.438 355.321 113.302 349.965 117.892 344.391C122.483 338.708 126.746 332.97 130.68 327.177C134.615 321.384 138.112 315.591 141.173 309.799C144.233 304.006 146.802 298.322 148.878 292.748H175.11V401.117H160.191V304.224H158.879C155.382 312.422 151.447 320.073 147.075 327.177C142.703 334.172 138.058 340.675 133.139 346.686C128.33 352.589 123.357 358.108 118.22 363.245V364.721H188.717V377.508H103.301ZM247.344 403.412C240.786 403.412 234.83 402.1 229.474 399.477C224.118 396.854 219.528 393.083 215.703 388.165C211.986 383.247 209.09 377.399 207.013 370.623C205.046 363.737 204.062 356.086 204.062 347.67C204.062 335.647 205.92 325.428 209.637 317.012C213.353 308.487 218.49 301.984 225.048 297.503C231.605 293.021 239.147 290.781 247.672 290.781C256.525 290.781 264.121 293.185 270.461 297.994C276.909 302.694 281.828 309.307 285.216 317.832C288.713 326.248 290.462 336.139 290.462 347.506C290.462 355.813 289.478 363.409 287.511 370.295C285.544 377.181 282.647 383.083 278.822 388.001C274.997 392.919 270.461 396.745 265.214 399.477C259.968 402.1 254.011 403.412 247.344 403.412ZM247.344 390.46C251.388 390.46 255.104 389.586 258.493 387.837C261.881 385.979 264.832 383.247 267.346 379.64C269.969 376.033 271.991 371.552 273.412 366.196C274.833 360.731 275.543 354.337 275.543 347.014C275.543 337.943 274.341 330.183 271.936 323.734C269.641 317.285 266.362 312.312 262.099 308.815C257.946 305.317 253.082 303.569 247.508 303.569C242.48 303.569 237.781 305.099 233.409 308.159C229.146 311.11 225.649 315.81 222.916 322.258C220.293 328.598 218.982 336.85 218.982 347.014C218.982 354.119 219.692 360.403 221.113 365.868C222.534 371.224 224.501 375.76 227.015 379.476C229.529 383.083 232.48 385.815 235.868 387.673C239.366 389.531 243.191 390.46 247.344 390.46ZM305.835 377.508V360.458C310.972 355.321 315.836 349.965 320.427 344.391C325.017 338.708 329.28 332.97 333.214 327.177C337.149 321.384 340.647 315.591 343.707 309.799C346.767 304.006 349.336 298.322 351.413 292.748H377.644V401.117H362.725V304.224H361.413C357.916 312.422 353.981 320.073 349.609 327.177C345.237 334.172 340.592 340.675 335.674 346.686C330.865 352.589 325.892 358.108 320.755 363.245V364.721H391.252V377.508H305.835Z"/>
</mask>
<path d="M50.6608 401.117L48.7311 400.71L48.2302 403.089H50.6608V401.117ZM73.4494 292.912V290.94H71.8494L71.5197 292.506L73.4494 292.912ZM87.2209 292.912L89.1494 293.324L89.6587 290.94H87.2209V292.912ZM64.1044 401.117V403.089H65.6997L66.0329 401.529L64.1044 401.117ZM4.42794 368.819H2.45593V370.791H4.42794V368.819ZM4.42794 356.687V354.715H2.45593V356.687H4.42794ZM91.6474 356.687H93.6195V354.715H91.6474V356.687ZM91.6474 368.819V370.791H93.6195V368.819H91.6474ZM12.1334 401.117L10.2049 400.705L9.69561 403.089H12.1334V401.117ZM35.2499 292.912V290.94H33.6546L33.3214 292.5L35.2499 292.912ZM48.8574 292.912L50.7865 293.321L51.2916 290.94H48.8574V292.912ZM25.9049 401.117V403.089H27.5025L27.834 401.526L25.9049 401.117ZM8.19871 331.931H6.22669V333.903H8.19871V331.931ZM8.19871 319.963V317.991H6.22669V319.963H8.19871ZM95.4182 319.963H97.3902V317.991H95.4182V319.963ZM95.4182 331.931V333.903H97.3902V331.931H95.4182ZM52.5905 401.523L75.3791 293.318L71.5197 292.506L48.7311 400.71L52.5905 401.523ZM73.4494 294.884H87.2209V290.94H73.4494V294.884ZM85.2924 292.5L62.1759 400.705L66.0329 401.529L89.1494 293.324L85.2924 292.5ZM64.1044 399.145H50.6608V403.089H64.1044V399.145ZM6.39996 368.819V356.687H2.45593V368.819H6.39996ZM4.42794 358.659H91.6474V354.715H4.42794V358.659ZM89.6754 356.687V368.819H93.6195V356.687H89.6754ZM91.6474 366.847H4.42794V370.791H91.6474V366.847ZM14.0619 401.529L37.1784 293.324L33.3214 292.5L10.2049 400.705L14.0619 401.529ZM35.2499 294.884H48.8574V290.94H35.2499V294.884ZM46.9283 292.503L23.9758 400.707L27.834 401.526L50.7865 293.321L46.9283 292.503ZM25.9049 399.145H12.1334V403.089H25.9049V399.145ZM10.1707 331.931V319.963H6.22669V331.931H10.1707ZM8.19871 321.935H95.4182V317.991H8.19871V321.935ZM93.4462 319.963V331.931H97.3902V319.963H93.4462ZM95.4182 329.959H8.19871V333.903H95.4182V329.959ZM103.301 377.508H101.329V379.48H103.301V377.508ZM103.301 360.458L101.907 359.064L101.329 359.641V360.458H103.301ZM117.892 344.391L119.415 345.645L119.421 345.638L119.427 345.63L117.892 344.391ZM130.68 327.177L129.049 326.069L129.049 326.069L130.68 327.177ZM141.173 309.799L139.429 308.877L139.429 308.877L141.173 309.799ZM148.878 292.748V290.776H147.509L147.03 292.06L148.878 292.748ZM175.11 292.748H177.082V290.776H175.11V292.748ZM175.11 401.117V403.089H177.082V401.117H175.11ZM160.191 401.117H158.219V403.089H160.191V401.117ZM160.191 304.224H162.163V302.252H160.191V304.224ZM158.879 304.224V302.252H157.576L157.065 303.45L158.879 304.224ZM147.075 327.177L148.747 328.222L148.754 328.21L147.075 327.177ZM133.139 346.686L131.613 345.438L131.611 345.441L133.139 346.686ZM118.22 363.245L116.826 361.851L116.248 362.428V363.245H118.22ZM118.22 364.721H116.248V366.693H118.22V364.721ZM188.717 364.721H190.689V362.749H188.717V364.721ZM188.717 377.508V379.48H190.689V377.508H188.717ZM105.273 377.508V360.458H101.329V377.508H105.273ZM104.696 361.852C109.877 356.671 114.784 351.268 119.415 345.645L116.37 343.138C111.82 348.663 106.999 353.971 101.907 359.064L104.696 361.852ZM119.427 345.63C124.05 339.906 128.345 334.125 132.312 328.285L129.049 326.069C125.146 331.815 120.916 337.509 116.358 343.152L119.427 345.63ZM132.312 328.285C136.284 322.436 139.82 316.581 142.916 310.72L139.429 308.877C136.405 314.602 132.946 320.332 129.049 326.069L132.312 328.285ZM142.916 310.72C146.013 304.859 148.617 299.098 150.726 293.437L147.03 292.06C144.986 297.547 142.454 303.152 139.429 308.877L142.916 310.72ZM148.878 294.72H175.11V290.776H148.878V294.72ZM173.138 292.748V401.117H177.082V292.748H173.138ZM175.11 399.145H160.191V403.089H175.11V399.145ZM162.163 401.117V304.224H158.219V401.117H162.163ZM160.191 302.252H158.879V306.196H160.191V302.252ZM157.065 303.45C153.603 311.564 149.713 319.128 145.395 326.143L148.754 328.21C153.181 321.018 157.16 313.279 160.693 304.998L157.065 303.45ZM145.403 326.132C141.072 333.06 136.475 339.495 131.613 345.438L134.666 347.935C139.64 341.855 144.334 335.284 148.747 328.222L145.403 326.132ZM131.611 345.441C126.842 351.294 121.913 356.763 116.826 361.851L119.615 364.64C124.801 359.453 129.819 353.884 134.668 347.932L131.611 345.441ZM116.248 363.245V364.721H120.192V363.245H116.248ZM118.22 366.693H188.717V362.749H118.22V366.693ZM186.745 364.721V377.508H190.689V364.721H186.745ZM188.717 375.536H103.301V379.48H188.717V375.536ZM215.703 388.165L214.129 389.354L214.137 389.365L214.146 389.376L215.703 388.165ZM207.013 370.623L205.117 371.164L205.122 371.183L205.128 371.2L207.013 370.623ZM209.637 317.012L211.441 317.809L211.444 317.8L209.637 317.012ZM225.048 297.503L226.16 299.131L226.16 299.131L225.048 297.503ZM270.461 297.994L269.269 299.566L269.284 299.577L269.299 299.588L270.461 297.994ZM285.216 317.832L283.383 318.56L283.389 318.575L283.395 318.589L285.216 317.832ZM287.511 370.295L285.615 369.753L287.511 370.295ZM278.822 388.001L277.265 386.79L277.265 386.79L278.822 388.001ZM265.214 399.477L266.096 401.241L266.111 401.234L266.125 401.226L265.214 399.477ZM258.493 387.837L259.397 389.589L259.419 389.578L259.441 389.566L258.493 387.837ZM267.346 379.64L265.751 378.48L265.739 378.496L265.728 378.512L267.346 379.64ZM273.412 366.196L275.318 366.702L275.32 366.692L273.412 366.196ZM271.936 323.734L270.078 324.395L270.083 324.409L270.088 324.423L271.936 323.734ZM262.099 308.815L260.829 310.323L260.839 310.331L260.849 310.339L262.099 308.815ZM233.409 308.159L234.531 309.78L234.54 309.775L233.409 308.159ZM222.916 322.258L221.1 321.489L221.097 321.497L221.094 321.504L222.916 322.258ZM221.113 365.868L219.204 366.364L219.207 366.374L221.113 365.868ZM227.015 379.476L225.381 380.581L225.389 380.592L225.397 380.603L227.015 379.476ZM235.868 387.673L234.92 389.402L234.931 389.408L234.943 389.415L235.868 387.673ZM247.344 401.44C241.057 401.44 235.401 400.184 230.342 397.706L228.607 401.248C234.258 404.016 240.516 405.384 247.344 405.384V401.44ZM230.342 397.706C225.267 395.221 220.909 391.647 217.259 386.954L214.146 389.376C218.147 394.52 222.97 398.487 228.607 401.248L230.342 397.706ZM217.276 386.976C213.718 382.267 210.918 376.633 208.899 370.045L205.128 371.2C207.262 378.165 210.255 384.226 214.129 389.354L217.276 386.976ZM208.91 370.081C207 363.399 206.034 355.934 206.034 347.67H202.09C202.09 356.238 203.092 364.075 205.117 371.164L208.91 370.081ZM206.034 347.67C206.034 335.841 207.864 325.909 211.441 317.809L207.833 316.216C203.977 324.947 202.09 335.454 202.09 347.67H206.034ZM211.444 317.8C215.038 309.556 219.957 303.369 226.16 299.131L223.935 295.874C217.022 300.598 211.667 307.418 207.829 316.224L211.444 317.8ZM226.16 299.131C232.366 294.89 239.513 292.753 247.672 292.753V288.809C238.781 288.809 230.845 291.153 223.935 295.874L226.16 299.131ZM247.672 292.753C256.146 292.753 263.311 295.046 269.269 299.566L271.653 296.423C264.932 291.325 256.905 288.809 247.672 288.809V292.753ZM269.299 299.588C275.404 304.037 280.112 310.328 283.383 318.56L287.048 317.104C283.544 308.285 278.415 301.351 271.622 296.401L269.299 299.588ZM283.395 318.589C286.771 326.713 288.49 336.337 288.49 347.506H292.434C292.434 335.942 290.655 325.782 287.037 317.075L283.395 318.589ZM288.49 347.506C288.49 355.658 287.525 363.069 285.615 369.753L289.407 370.837C291.432 363.749 292.434 355.968 292.434 347.506H288.49ZM285.615 369.753C283.707 376.432 280.914 382.099 277.265 386.79L280.379 389.212C284.38 384.067 287.381 377.929 289.407 370.837L285.615 369.753ZM277.265 386.79C273.604 391.497 269.285 395.134 264.303 397.728L266.125 401.226C271.636 398.356 276.389 394.342 280.379 389.212L277.265 386.79ZM264.332 397.713C259.395 400.182 253.747 401.44 247.344 401.44V405.384C254.275 405.384 260.541 404.019 266.096 401.241L264.332 397.713ZM247.344 392.432C251.683 392.432 255.712 391.491 259.397 389.589L257.588 386.085C254.496 387.68 251.093 388.488 247.344 388.488V392.432ZM259.441 389.566C263.13 387.543 266.3 384.589 268.964 380.767L265.728 378.512C263.364 381.904 260.631 384.415 257.544 386.108L259.441 389.566ZM268.941 380.8C271.737 376.954 273.849 372.238 275.318 366.702L271.506 365.69C270.133 370.866 268.201 375.111 265.751 378.48L268.941 380.8ZM275.32 366.692C276.794 361.026 277.515 354.458 277.515 347.014H273.571C273.571 354.217 272.872 360.437 271.503 365.7L275.32 366.692ZM277.515 347.014C277.515 337.778 276.292 329.772 273.784 323.045L270.088 324.423C272.389 330.593 273.571 338.107 273.571 347.014H277.515ZM273.794 323.073C271.407 316.368 267.95 311.064 263.35 307.29L260.849 310.339C264.774 313.561 267.874 318.203 270.078 324.395L273.794 323.073ZM263.37 307.306C258.851 303.501 253.534 301.597 247.508 301.597V305.541C252.631 305.541 257.042 307.134 260.829 310.323L263.37 307.306ZM247.508 301.597C242.05 301.597 236.96 303.266 232.278 306.544L234.54 309.775C238.602 306.931 242.911 305.541 247.508 305.541V301.597ZM232.286 306.538C227.627 309.764 223.929 314.814 221.1 321.489L224.732 323.028C227.368 316.806 230.666 312.457 234.531 309.78L232.286 306.538ZM221.094 321.504C218.336 328.169 217.009 336.704 217.009 347.014H220.954C220.954 336.995 222.25 329.026 224.738 323.012L221.094 321.504ZM217.009 347.014C217.009 354.245 217.732 360.702 219.204 366.364L223.021 365.372C221.652 360.105 220.954 353.992 220.954 347.014H217.009ZM219.207 366.374C220.671 371.895 222.719 376.644 225.381 380.581L228.648 378.371C226.283 374.875 224.396 370.553 223.019 365.363L219.207 366.374ZM225.397 380.603C228.061 384.425 231.23 387.379 234.92 389.402L236.816 385.944C233.729 384.251 230.997 381.74 228.633 378.348L225.397 380.603ZM234.943 389.415C238.739 391.431 242.885 392.432 247.344 392.432V388.488C243.497 388.488 239.992 387.631 236.793 385.932L234.943 389.415ZM305.835 377.508H303.863V379.48H305.835V377.508ZM305.835 360.458L304.441 359.064L303.863 359.641V360.458H305.835ZM320.427 344.391L321.949 345.645L321.955 345.638L321.961 345.63L320.427 344.391ZM333.214 327.177L331.583 326.069L331.583 326.069L333.214 327.177ZM343.707 309.799L341.963 308.877L341.963 308.877L343.707 309.799ZM351.413 292.748V290.776H350.043L349.565 292.06L351.413 292.748ZM377.644 292.748H379.616V290.776H377.644V292.748ZM377.644 401.117V403.089H379.616V401.117H377.644ZM362.725 401.117H360.753V403.089H362.725V401.117ZM362.725 304.224H364.697V302.252H362.725V304.224ZM361.413 304.224V302.252H360.111L359.599 303.45L361.413 304.224ZM349.609 327.177L351.281 328.222L351.289 328.21L349.609 327.177ZM335.674 346.686L334.147 345.438L334.145 345.441L335.674 346.686ZM320.755 363.245L319.36 361.851L318.783 362.428V363.245H320.755ZM320.755 364.721H318.783V366.693H320.755V364.721ZM391.252 364.721H393.224V362.749H391.252V364.721ZM391.252 377.508V379.48H393.224V377.508H391.252ZM307.807 377.508V360.458H303.863V377.508H307.807ZM307.23 361.852C312.411 356.671 317.318 351.268 321.949 345.645L318.904 343.138C314.354 348.663 309.533 353.971 304.441 359.064L307.23 361.852ZM321.961 345.63C326.584 339.906 330.879 334.125 334.846 328.285L331.583 326.069C327.68 331.815 323.45 337.509 318.893 343.152L321.961 345.63ZM334.846 328.285C338.819 322.436 342.354 316.581 345.451 310.72L341.963 308.877C338.939 314.602 335.48 320.332 331.583 326.069L334.846 328.285ZM345.451 310.72C348.547 304.859 351.151 299.098 353.26 293.437L349.565 292.06C347.52 297.547 344.988 303.152 341.963 308.877L345.451 310.72ZM351.413 294.72H377.644V290.776H351.413V294.72ZM375.672 292.748V401.117H379.616V292.748H375.672ZM377.644 399.145H362.725V403.089H377.644V399.145ZM364.697 401.117V304.224H360.753V401.117H364.697ZM362.725 302.252H361.413V306.196H362.725V302.252ZM359.599 303.45C356.138 311.564 352.247 319.128 347.93 326.143L351.289 328.21C355.715 321.018 359.694 313.279 363.227 304.998L359.599 303.45ZM347.937 326.132C343.607 333.06 339.01 339.495 334.147 345.438L337.2 347.935C342.174 341.855 346.868 335.284 351.281 328.222L347.937 326.132ZM334.145 345.441C329.376 351.294 324.448 356.763 319.36 361.851L322.149 364.64C327.335 359.453 332.353 353.884 337.202 347.932L334.145 345.441ZM318.783 363.245V364.721H322.727V363.245H318.783ZM320.755 366.693H391.252V362.749H320.755V366.693ZM389.279 364.721V377.508H393.224V364.721H389.279ZM391.252 375.536H305.835V379.48H391.252V375.536Z" fill="#482FF7" mask="url(#path-1-outside-1_111_2500)"/>
<path d="M54.7112 390L77.4997 281.795H91.2712L68.1548 390H54.7112ZM8.47827 357.703V345.571H95.6978V357.703H8.47827ZM16.1837 390L39.3002 281.795H52.9077L29.9552 390H16.1837ZM12.249 320.815V308.847H99.4685V320.815H12.249ZM107.352 366.392V349.341C112.489 344.204 117.352 338.849 121.943 333.275C126.533 327.591 130.796 321.853 134.731 316.06C138.665 310.267 142.163 304.475 145.223 298.682C148.283 292.889 150.852 287.206 152.929 281.631H179.16V390H164.241V293.108H162.929C159.432 301.305 155.497 308.956 151.125 316.06C146.753 323.055 142.108 329.558 137.19 335.57C132.381 341.472 127.408 346.991 122.271 352.128V353.604H192.768V366.392H107.352ZM251.395 392.295C244.837 392.295 238.88 390.984 233.524 388.361C228.169 385.737 223.578 381.967 219.753 377.048C216.037 372.13 213.14 366.282 211.064 359.506C209.096 352.62 208.113 344.969 208.113 336.553C208.113 324.531 209.971 314.311 213.687 305.895C217.403 297.37 222.54 290.867 229.098 286.386C235.656 281.905 243.197 279.664 251.722 279.664C260.576 279.664 268.172 282.069 274.511 286.878C280.96 291.578 285.878 298.19 289.266 306.715C292.764 315.131 294.512 325.023 294.512 336.39C294.512 344.696 293.529 352.292 291.561 359.178C289.594 366.064 286.698 371.966 282.872 376.884C279.047 381.803 274.511 385.628 269.265 388.361C264.018 390.984 258.062 392.295 251.395 392.295ZM251.395 379.343C255.439 379.343 259.155 378.469 262.543 376.72C265.931 374.862 268.882 372.13 271.396 368.523C274.019 364.916 276.041 360.435 277.462 355.079C278.883 349.615 279.593 343.221 279.593 335.898C279.593 326.826 278.391 319.066 275.987 312.617C273.691 306.169 270.412 301.196 266.15 297.698C261.996 294.201 257.133 292.452 251.559 292.452C246.531 292.452 241.831 293.982 237.459 297.042C233.197 299.993 229.699 304.693 226.967 311.142C224.343 317.481 223.032 325.733 223.032 335.898C223.032 343.002 223.742 349.287 225.163 354.752C226.584 360.107 228.551 364.643 231.065 368.359C233.579 371.966 236.53 374.698 239.918 376.556C243.416 378.414 247.241 379.343 251.395 379.343ZM309.726 366.392V349.341C314.863 344.204 319.726 338.849 324.317 333.275C328.907 327.591 333.17 321.853 337.105 316.06C341.039 310.267 344.537 304.475 347.597 298.682C350.658 292.889 353.226 287.206 355.303 281.631H381.534V390H366.615V293.108H365.303C361.806 301.305 357.871 308.956 353.499 316.06C349.127 323.055 344.482 329.558 339.564 335.57C334.755 341.472 329.782 346.991 324.645 352.128V353.604H395.142V366.392H309.726Z" fill="#BACBFA" fill-opacity="0.15"/>
<g clip-path="url(#clip0_111_2500)">
<path d="M129.683 16.7277C132.086 16.7277 134.035 14.7794 134.035 12.376C134.035 9.9727 132.086 8.02441 129.683 8.02441C127.28 8.02441 125.331 9.9727 125.331 12.376C125.331 14.7794 127.28 16.7277 129.683 16.7277Z" fill="#BACBFA"/>
<path d="M151.441 21.8663C153.844 21.8663 155.793 19.918 155.793 17.5147C155.793 15.1114 153.844 13.1631 151.441 13.1631C149.038 13.1631 147.089 15.1114 147.089 17.5147C147.089 19.918 149.038 21.8663 151.441 21.8663Z" fill="#BACBFA"/>
<g opacity="0.32">
<path d="M202.634 175.993C190.482 180.175 179.241 181.201 169.318 177.637C164.272 175.708 164.025 174.35 164.025 172.344C164.025 170.33 167.428 167.429 171.386 167.429C183.206 168.154 188.723 169.304 197.125 167.429C201.724 165.199 206.292 170.33 206.292 172.344C206.292 174.358 204.648 176.001 202.634 176.001V175.993Z" fill="#BACBFA" fill-opacity="0.15"/>
</g>
<g opacity="0.32">
<path d="M153.061 202.289C163.3 221.254 179.881 230.674 205.204 226.917L204.023 234.995C199.077 241.577 150.77 239.293 153.061 202.296V202.289Z" fill="#BACBFA" fill-opacity="0.15"/>
</g>
<path opacity="0.47" d="M228.451 194.727L232.787 222.781C261.412 221.153 276.45 203.824 281.642 175.106C281.642 175.106 296.811 205.182 274.158 231.84C243.28 234.401 217.641 236.832 220.18 233.946L228.451 194.727Z" fill="#BACBFA" fill-opacity="0.15"/>
<g opacity="0.32">
<path d="M122.006 59.0788C129.621 70.8991 150.878 89.0386 160.353 95.5892C172.698 104.123 171.386 112.402 171.386 112.402C171.386 112.402 183.469 77.2028 154.666 62.6357C140.107 55.275 122.006 59.0788 122.006 59.0788Z" fill="#BACBFA" fill-opacity="0.15"/>
</g>
<path opacity="0.32" d="M148.864 55.7299C101.791 41.1704 72.0625 50.6607 48.5838 69.7183L50.3661 75.235C82.8721 43.7166 156.155 63.0211 156.155 63.0211C156.155 63.0211 154.597 57.5045 148.864 55.7299Z" fill="#BACBFA" fill-opacity="0.15"/>
<path d="M50.3661 77.1563C49.8646 77.1563 49.3631 76.9634 48.985 76.5699C48.2443 75.8061 48.2598 74.587 49.0236 73.8386C62.7034 60.5754 85.7115 54.1946 115.525 55.3673C137.862 56.2546 156.456 61.0924 156.641 61.1386C157.668 61.4087 158.285 62.4657 158.015 63.4919C157.745 64.5181 156.695 65.1353 155.661 64.8653C154.936 64.6724 83.0496 46.2012 51.7087 76.6008C51.3306 76.9634 50.8522 77.1486 50.3661 77.1486V77.1563Z" fill="#482FF7"/>
<path d="M128.209 245.604C124.861 245.604 121.443 244.702 118.812 243.29C114.776 241.137 112.462 237.896 112.462 234.401C112.462 231.145 115.448 228.73 119.583 225.397C127.754 218.808 141.403 207.782 145.932 179.967C141.681 133.126 161.765 98.2433 161.973 97.8961C162.513 96.9779 163.693 96.6693 164.612 97.2094C165.53 97.7495 165.838 98.93 165.298 99.8482C165.098 100.188 145.577 134.183 149.798 179.859C149.813 180.021 149.805 180.183 149.782 180.345C145.06 209.804 130.624 221.447 122.006 228.406C118.958 230.867 116.319 232.997 116.319 234.409C116.319 237.287 119.329 239.2 120.625 239.895C125 242.225 130.663 242.402 133.803 240.296C138.911 236.87 148.617 216.702 151.919 209.225C152.351 208.253 153.486 207.813 154.466 208.237C155.438 208.67 155.878 209.804 155.453 210.784C154.188 213.638 142.915 238.83 135.956 243.498C133.741 244.979 131.002 245.612 128.209 245.612V245.604Z" fill="#482FF7"/>
<path d="M212.101 266.83C207.194 266.83 202.056 264.191 199.463 260.295C196.524 255.889 198.908 252.965 200.829 250.611C202.372 248.721 203.969 246.761 204.27 243.498C205.034 235.273 201.539 148.672 201.508 147.8C201.462 146.736 202.295 145.841 203.36 145.794C204.455 145.771 205.319 146.581 205.366 147.646C205.512 151.226 208.907 235.381 208.12 243.86C207.703 248.289 205.466 251.043 203.823 253.05C201.84 255.48 201.377 256.198 202.681 258.15C204.633 261.074 208.753 263.095 212.464 262.956C214.686 262.872 217.772 261.992 219.879 258.265C221.877 254.732 220.712 251.908 219.107 247.988C217.317 243.621 215.087 238.189 218.104 230.898C223.289 218.368 227.88 183.956 227.51 174.581C227.471 173.517 228.297 172.622 229.361 172.575C229.384 172.575 229.415 172.575 229.438 172.575C230.465 172.575 231.321 173.386 231.367 174.427C231.761 184.319 227.131 219.186 221.677 232.372C219.269 238.197 220.928 242.24 222.687 246.522C224.392 250.689 226.159 254.994 223.243 260.156C220.913 264.276 217.14 266.637 212.611 266.799C212.449 266.799 212.279 266.807 212.117 266.807L212.101 266.83Z" fill="#482FF7"/>
<path d="M171.394 114.323C171.293 114.323 171.193 114.323 171.093 114.3C170.051 114.138 169.334 113.158 169.488 112.116C169.534 111.769 170.259 104.771 159.265 97.1709C149.828 90.6512 128.163 72.1799 120.393 60.1204C119.815 59.2254 120.077 58.0294 120.972 57.4508C121.867 56.8721 123.063 57.1344 123.642 58.0294C131.141 69.6646 152.251 87.6266 161.464 93.9998C174.657 103.12 173.369 112.309 173.307 112.702C173.153 113.652 172.335 114.33 171.401 114.33L171.394 114.323Z" fill="#482FF7"/>
<path d="M288.787 254.354H288.625C288.085 254.354 287.576 254.13 287.213 253.737C286.851 253.343 286.665 252.819 286.712 252.278C287.653 240.003 273.302 232.025 273.155 231.948C272.222 231.439 271.874 230.266 272.384 229.332C272.893 228.399 274.066 228.051 274.999 228.561C275.647 228.916 290.161 236.994 290.6 250.458C296.719 250.157 301.001 248.305 303.347 244.941C307.853 238.475 304.095 228.229 304.056 228.129C303.856 227.581 303.902 226.971 304.203 226.477C304.504 225.984 305.005 225.636 305.576 225.544C309.643 224.934 313.74 225.389 317.806 226.909C314.365 220.93 305.522 211.386 284.767 214.155C283.71 214.302 282.746 213.554 282.599 212.497C282.46 211.44 283.201 210.467 284.258 210.329C316.741 205.985 323.43 230.127 323.492 230.374C323.685 231.13 323.415 231.925 322.79 232.395C322.165 232.866 321.324 232.92 320.653 232.526C316.563 230.142 312.459 229 308.4 229.147C309.427 233.09 310.715 241.091 306.525 247.132C303.192 251.931 297.228 254.362 288.787 254.362V254.354Z" fill="#482FF7"/>
<path d="M164.812 235.859C158.586 235.859 151.009 231.315 145.269 227.04C144.412 226.408 144.235 225.196 144.875 224.34C145.508 223.483 146.719 223.306 147.576 223.946C156.256 230.404 163.447 233.174 167.297 231.546C168.277 231.13 169.411 231.593 169.827 232.572C170.244 233.552 169.781 234.687 168.801 235.103C167.567 235.628 166.224 235.859 164.82 235.859H164.812Z" fill="#482FF7"/>
<path d="M115.98 225.713C107.554 225.713 101.845 224.232 98.9515 221.3C97.2232 219.548 96.4594 217.249 96.7371 214.641C97.9716 203.06 112.462 204.549 122.044 205.537C124.529 205.791 127.708 206.123 129.475 206C123.279 198.477 121.257 192.034 123.472 186.834C127.708 176.896 145.863 176.009 146.634 175.978C147.691 175.955 148.594 176.757 148.64 177.822C148.687 178.887 147.861 179.782 146.796 179.836C142.213 180.036 129.737 181.95 127.013 188.354C125.277 192.428 127.538 198.045 133.71 205.035C134.035 205.398 134.204 205.868 134.189 206.355C134.166 207.273 133.795 208.083 133.116 208.685C131.303 210.289 127.939 210.019 121.636 209.371C110.564 208.229 101.328 207.874 100.556 215.05C100.402 216.524 100.757 217.65 101.683 218.592C104.545 221.493 112.554 222.503 124.243 221.446C125.3 221.346 126.242 222.133 126.342 223.19C126.442 224.255 125.655 225.188 124.598 225.289C121.466 225.574 118.588 225.713 115.972 225.713H115.98Z" fill="#482FF7"/>
<path d="M182.658 239.323C170.367 239.323 159.195 231.816 154.628 220.351C149.828 208.299 147.645 189.766 164.133 169.497C159.01 158.217 160.924 151.759 161.008 151.481C161.325 150.462 162.413 149.899 163.423 150.215C164.442 150.532 165.005 151.612 164.689 152.63C164.681 152.669 163.084 158.502 168.13 168.949C168.462 169.636 168.361 170.446 167.868 171.032C151.75 190.213 153.717 207.666 158.2 218.931C162.305 229.231 172.497 235.867 183.631 235.458L206.214 234.617C207.287 234.578 208.174 235.404 208.213 236.469C208.251 237.533 207.418 238.428 206.361 238.467L183.777 239.308C183.399 239.323 183.021 239.331 182.651 239.331L182.658 239.323Z" fill="#482FF7"/>
<path d="M218.482 238.004C217.448 238.004 216.592 237.187 216.553 236.145C216.515 235.08 217.348 234.185 218.405 234.147L263.241 232.472C269.375 232.164 274.451 228.738 278.309 222.303C285.94 209.572 286.951 186.34 280.477 172.576C280.184 171.959 279.876 171.318 279.559 170.662C275.863 163.024 270.285 151.481 268.086 120.279C265.077 75.1427 246.405 50.1594 231.275 37.1431C214.948 23.1007 199.239 19.6209 199.085 19.5901C199.023 19.5746 198.962 19.5592 198.908 19.5438L167.783 9.69089C167.69 9.66003 157.914 6.62006 150.168 6.27286C149.103 6.22657 148.278 5.32384 148.324 4.25908C148.37 3.19432 149.257 2.39189 150.338 2.41504C158.601 2.77767 168.523 5.87165 168.94 6.00281L199.988 15.8248C201.5 16.1643 217.209 19.945 233.79 34.2035C249.484 47.6981 268.834 73.5378 271.936 120.001C274.089 150.463 279.258 161.157 283.039 168.973C283.363 169.644 283.679 170.292 283.973 170.925C291.04 185.939 289.96 210.367 281.619 224.278C277.121 231.778 270.825 235.944 263.41 236.322L218.552 237.997C218.552 237.997 218.505 237.997 218.474 237.997L218.482 238.004Z" fill="#482FF7"/>
<path d="M140.678 7.36064C139.682 7.36064 140.94 6.61993 140.855 5.60919C140.77 4.54443 139.466 3.5954 140.523 3.51053C141.627 3.42566 142.298 3.34079 142.884 3.27135C143.795 3.16333 144.582 3.06302 146.418 3.0013C147.491 2.96272 148.378 3.78829 148.416 4.85305C148.455 5.91781 147.629 6.81283 146.565 6.8514C144.89 6.91313 144.211 6.998 143.347 7.0983C142.715 7.17546 142.005 7.26033 140.832 7.35292C140.778 7.35292 140.732 7.35292 140.678 7.35292V7.36064Z" fill="#482FF7"/>
<path d="M34.4102 70.0655C34.1787 70.0655 33.9395 70.0269 33.7158 69.9343C32.7204 69.5485 32.2344 68.4375 32.6124 67.4421C32.7976 66.9638 37.319 55.4983 50.0883 42.2274C61.8161 30.0367 83.0341 13.9882 117.523 6.76635C118.557 6.55031 119.591 7.21385 119.807 8.26318C120.023 9.30479 119.359 10.331 118.31 10.547C84.8936 17.5374 64.3546 33.0072 53.0126 44.7504C40.7138 57.489 36.2542 68.7229 36.2079 68.831C35.907 69.5948 35.1817 70.0577 34.4102 70.0577V70.0655Z" fill="#482FF7"/>
<path d="M218.204 71.6395C218.081 71.6395 217.958 71.6318 217.834 71.601C209.1 69.9035 200.104 60.8377 195.883 56.0771C195.358 59.1248 195.127 63.9008 197.141 69.0008C197.372 69.5872 197.303 70.2584 196.948 70.7831C196.593 71.3078 196.007 71.6318 195.374 71.6395H195.343C189.479 71.6395 183.268 52.5433 183.206 52.3504C181.517 46.9264 181.532 44.249 183.245 43.0917C184.132 42.4976 185.328 42.7368 185.922 43.6163C186.416 44.3493 186.339 45.2906 185.799 45.931C185.413 48.3923 188.708 56.9567 191.74 62.6277C191.207 56.216 193.059 51.5249 193.167 51.2548C193.422 50.6144 194.008 50.1592 194.687 50.0666C195.374 49.9663 196.053 50.2518 196.477 50.7919C196.562 50.9076 203.159 59.2868 210.782 64.3251C206.623 58.8547 203.815 53.0217 204.988 50.0512C205.474 48.8167 206.585 48.0837 207.958 48.0837C208.382 48.0837 208.791 48.2226 209.131 48.4772C209.239 48.5621 218.999 55.8996 226.229 54.1945C220.573 48.5698 215.712 38.3234 212.472 30.2066C210.126 24.335 204.123 20.7395 197.827 21.457L182.435 23.2239C181.362 23.3474 180.421 22.5835 180.298 21.5265C180.174 20.4694 180.938 19.5127 181.995 19.3892L197.388 17.6223C205.389 16.7042 213.066 21.2873 216.052 28.7714C221.021 41.2091 226.306 49.8737 230.935 53.1606C231.452 53.5309 231.761 54.1328 231.745 54.7732C231.73 55.4136 231.406 55.9999 230.874 56.3471C223.358 61.2389 213.035 55.6682 208.753 52.8983C209.609 55.9305 213.22 62.4039 219.516 68.291C220.141 68.8773 220.311 69.8109 219.917 70.5748C219.586 71.2306 218.914 71.6241 218.197 71.6241L218.204 71.6395Z" fill="#482FF7"/>
<path d="M40.9145 86.6155C34.6339 86.6155 29.5262 81.5078 29.5262 75.2272C29.5262 68.9467 34.6339 63.8467 40.9145 63.8467C47.195 63.8467 52.295 68.9544 52.295 75.2272C52.295 81.5001 47.1873 86.6155 40.9145 86.6155ZM40.9145 67.7045C36.7635 67.7045 33.384 71.084 33.384 75.2272C33.384 79.3705 36.7635 82.7577 40.9145 82.7577C45.0655 82.7577 48.4372 79.3783 48.4372 75.2272C48.4372 71.0762 45.0578 67.7045 40.9145 67.7045Z" fill="#482FF7"/>
<path d="M154.728 24.4663C151.973 24.4663 149.35 23.8568 147.375 22.1516C141.943 17.4605 143.995 6.62002 145.137 2.18353C145.353 1.33481 145.986 0.671263 146.819 0.408931C147.653 0.146599 148.548 0.331775 149.211 0.902732L168.13 17.2367C168.793 17.8077 169.11 18.6719 168.971 19.536C168.832 20.4002 168.269 21.1177 167.459 21.4572C164.766 22.5837 159.558 24.4663 154.728 24.4663ZM148.386 5.29293C147.313 10.663 147.167 16.8741 149.898 19.2351C152.629 21.5961 158.755 20.5468 163.917 18.7027L148.386 5.29293Z" fill="#482FF7"/>
<path d="M130.069 18.0701C123.912 18.0701 118.495 11.0875 115.772 6.83614C115.116 5.81767 115.054 4.56002 115.594 3.47983C116.134 2.39964 117.176 1.70524 118.379 1.61265L140.415 0.00779439C141.627 -0.0847933 142.753 0.455302 143.44 1.4429C144.134 2.43051 144.25 3.68044 143.756 4.78378C141.611 9.53661 137.067 17.5763 130.663 18.047C130.462 18.0624 130.269 18.0701 130.069 18.0701ZM119.452 5.40874C123.263 11.1492 127.291 14.4052 130.377 14.1969C133.433 13.9731 136.974 10.1461 139.906 3.91191L119.444 5.40874H119.452Z" fill="#482FF7"/>
</g>
<defs>
<clipPath id="clip0_111_2500">
<rect width="294.028" height="266.83" fill="white" transform="translate(29.5262)"/>
</clipPath>
</defs>
</svg>
