<?xml version="1.0" encoding="UTF-8"?>
<svg id="Layer_2" data-name="Layer 2" xmlns="http://www.w3.org/2000/svg" viewBox="0 0 603 415.4">
  <defs>
    <style>
      .cls-1 {
        fill: #482ff7;
      }

      .cls-2 {
        fill: #d3d3d3;
      }
    </style>
  </defs>
  <g id="Layer_1-2" data-name="Layer 1">
    <g>
      <path class="cls-1" d="M417.83,357.43c-1.93-3.27-4.64-7.53-6.66-10.63,.05-.05,.1-.1,.15-.14l.39-.39c.29-.29,.58-.57,.87-.85,.13-.13,.26-.27,.39-.4l.86-.86c.12-.13,.25-.26,.37-.39,.29-.29,.58-.59,.86-.88,.12-.14,.25-.27,.37-.4,.28-.29,.56-.59,.84-.89,.13-.13,.25-.27,.38-.41,.27-.29,.55-.59,.82-.88,.12-.14,.25-.28,.37-.42,.27-.3,.54-.59,.8-.89,.13-.15,.25-.29,.38-.44,.26-.29,.52-.59,.77-.88,.13-.15,.26-.31,.39-.46,.25-.29,.5-.58,.74-.87l.39-.48,.72-.87c.13-.17,.26-.33,.39-.5,.23-.28,.46-.57,.68-.85,.01-.02,.03-.04,.04-.05,4.61,7.59,8.08,14.33,9.1,16.35l-14.51,8.78-.16-.27c.35-.21,.47-.67,.26-1.03Z"/>
      <path class="cls-1" d="M410.07,347.86c1.99,3.06,4.6,7.17,6.47,10.33,.14,.24,.39,.37,.65,.37,.12,0,.26-.03,.38-.1l.16,.27-18.26,11.06c-.87-1.13-3.11-3.97-6.08-7.78,.11-.09,.22-.18,.33-.26,.19-.14,.37-.28,.55-.42,.24-.18,.48-.37,.72-.56,.2-.15,.4-.31,.6-.46,.22-.18,.44-.35,.66-.52,.22-.18,.44-.35,.66-.52,.2-.17,.4-.33,.61-.49,.24-.19,.47-.38,.71-.58,.19-.15,.38-.3,.57-.46,.25-.2,.5-.41,.75-.61,.19-.15,.38-.31,.56-.46,.26-.21,.51-.42,.77-.64,.18-.14,.35-.3,.53-.45,.27-.22,.53-.44,.79-.66,.17-.14,.34-.29,.51-.44l.81-.69c.16-.14,.32-.28,.48-.41,.28-.25,.56-.49,.84-.74,.15-.13,.3-.27,.45-.4,.29-.26,.58-.51,.87-.77,.14-.13,.29-.26,.43-.39,.29-.26,.58-.52,.87-.79,.14-.13,.29-.26,.43-.4,.29-.26,.58-.53,.86-.79l.42-.39c.29-.28,.58-.55,.87-.83,0-.01,.02-.02,.03-.02Z"/>
      <path class="cls-1" d="M404.08,290.35c-3.62,1.25-6.97,3.26-9.83,5.94l-29.88,28.1c-.72-1.02-1.23-1.8-1.68-2.49-.29-.45-.56-.87-.87-1.32-5.62-8.18-7.05-15.44-4.13-20.98,2.96-5.62,10.52-9.25,19.25-9.25h27.14Z"/>
      <path class="cls-1" d="M429.73,320.85l.7-2.42c.37,.12,.61,.17,.65,.18s.09,.02,.13,.02c1.6,.05,39.25,1.23,53.53-1.33,7.73-1.39,11.84-7.13,13.97-11.95,2.66,.88,5.22,1.55,7.65,1.98-3.33,13.52-16.01,18.93-17.38,19.48h-58.08v-.05s-.15,.05-.15,.05h-2.83c.6-1.05,1.53-2.74,2.49-4.9,.17-.37,0-.82-.38-.99-.1-.04-.2-.07-.3-.07Z"/>
      <path class="cls-1" d="M421.4,311.23c3.12,4.95,7.4,6.69,9.03,7.2l-.7,2.42c-.29,0-.56,.17-.69,.45-1.56,3.49-3.06,5.83-3.07,5.84-.56,.84-1.13,1.66-1.73,2.48l-.12,.18c-.57,.79-1.16,1.57-1.75,2.34-.07,.1-.14,.19-.21,.28-.59,.75-1.19,1.5-1.8,2.24-.09,.11-.17,.22-.26,.33-.61,.73-1.22,1.46-1.85,2.18-.1,.11-.2,.22-.29,.34-.63,.72-1.27,1.43-1.92,2.14-.1,.1-.19,.21-.29,.32-.66,.71-1.32,1.42-2,2.12-.08,.09-.17,.17-.26,.26-.69,.72-1.39,1.43-2.09,2.13-.06,.06-.13,.12-.19,.19-.74,.73-1.48,1.45-2.23,2.16l-.04,.04c-.76,.73-1.53,1.45-2.31,2.16-.03,.02-.06,.05-.09,.08-.75,.69-1.51,1.37-2.27,2.04-.07,.06-.14,.13-.22,.19-.73,.65-1.47,1.29-2.2,1.92-.1,.08-.2,.16-.3,.25-.72,.61-1.44,1.22-2.17,1.82-.11,.09-.22,.18-.32,.27-.72,.59-1.44,1.18-2.16,1.75-.11,.1-.22,.19-.34,.28-.71,.57-1.43,1.14-2.14,1.69-.11,.08-.21,.17-.32,.25-.72,.56-1.44,1.11-2.15,1.66-.09,.06-.17,.12-.26,.19-.73,.55-1.46,1.1-2.19,1.64-.05,.04-.1,.07-.16,.11-.73,.55-1.46,1.08-2.19,1.6-.02,.02-.05,.04-.07,.06-.72,.51-1.43,1.02-2.13,1.51-.08,.06-.16,.12-.25,.18-.66,.47-1.32,.93-1.97,1.37-.11,.08-.22,.15-.32,.23-.63,.43-1.24,.85-1.85,1.26-.13,.08-.25,.17-.38,.25-.59,.4-1.17,.79-1.74,1.16-.13,.09-.26,.18-.4,.27-.55,.37-1.1,.73-1.64,1.08-.13,.08-.26,.16-.38,.25-.53,.34-1.05,.67-1.56,.99-.13,.09-.25,.17-.38,.25-.49,.31-.98,.62-1.45,.91-.12,.08-.23,.15-.35,.22-.43,.27-.85,.53-1.25,.78-.14,.08-.27,.16-.4,.25-.38,.22-.74,.44-1.09,.66-.15,.09-.3,.18-.44,.27-.33,.19-.64,.38-.94,.56-.15,.09-.29,.17-.43,.26-.3,.17-.58,.34-.85,.5-.15,.09-.3,.18-.45,.26-.24,.14-.47,.28-.69,.4-.15,.09-.3,.18-.44,.26-.16,.09-.31,.18-.45,.26-.69,.39-1.22,.69-1.57,.89l-2.69-3.01c-.02-.16-.07-.32-.17-.44l-21.29-23.8c-.12-.13-.27-.2-.42-.23l-1-1.12,57.57-54.12c4.83-4.54,11.14-7.04,17.75-7.04h57.98c2.46,1.84,9.81,7.11,18.9,11.43,2.54,1.2,5.01,2.24,7.38,3.08-2,4.46-5.8,9.7-12.82,10.96-13.82,2.48-51.21,1.37-53.14,1.31-.62-.15-6.16-1.7-9.44-8.06-.13-.25-.38-.41-.67-.41-.29,.04-.54,.16-.67,.41-2.16,4.31,1,9.14,2.91,11.9-3.52,10.09-32.47,37.54-56.99,51.44-.37,.2-.49,.66-.29,1.02,.14,.24,.39,.38,.66,.38,.12,0,.25-.03,.36-.1,23.14-13.11,54.47-41.64,57.8-52.64,.07-.22,.03-.46-.1-.65-2.01-2.9-4.04-6.18-3.5-9.19Z"/>
      <path class="cls-1" d="M265.39,372.79c15.63-1.53,20.71-5.46,22.24-7.26,5.09,5.17,7.77,11.06,9.16,15.45-13.52-.21-19.13,5.68-21.38,11.47l-7.67,3.43h-29.19c-.15-2.84,.96-5.05,2.11-6.22,6.77-6.86,17.61-7.36,17.72-7.37,.24,0,.45-.12,.59-.31l6.42-9.19Z"/>
      <path class="cls-1" d="M187.01,379.45c3.47,5.06,4.21,11.56,4.18,16.43H119.26c.62-3.17,1.93-5.66,2.72-6.32,4.95-4.09,14.08-6.36,20.74-8.02,3.54-.87,6.33-1.57,7.56-2.31,2.77-1.69,7.66-4.28,9.12-5.05,11.84,8.53,24.86,5.95,27.61,5.27Z"/>
      <polygon class="cls-1" points="192.65 61.58 194.28 63.99 183.32 71.4 181.71 69.02 177.99 63.52 175.01 59.1 185.97 51.7 188.93 56.08 192.65 61.58"/>
      <path class="cls-1" d="M217.22,71.79l-7.95,5.37h0s-.01,.01-.01,.01l-27.33,18.46,1.09-22.22,.51-.35,12.21-8.24,.45-.31,13.25,4.59h.01l7.77,2.69Z"/>
      <circle class="cls-1" cx="28.66" cy="131.54" r="3.83"/>
      <circle class="cls-1" cx="173.96" cy="22.92" r="5.28"/>
      <circle class="cls-1" cx="577.75" cy="283.74" r="3.89"/>
      <circle class="cls-1" cx="592.05" cy="120.89" r="5.28"/>
      <circle class="cls-1" cx="546.5" cy="142.27" r="2.51"/>
      <circle class="cls-1" cx="534.18" cy="142.27" r="2.51"/>
      <circle class="cls-1" cx="521.87" cy="142.27" r="2.51"/>
      <path class="cls-1" d="M400.57,122.06c.19,.19,.46,.26,.72,.21,.25-.06,.46-.25,.54-.51,1.69-5.29,4.67-10.27,8.88-14.81h0c2.74-2.97,5.25-4.9,6.28-5.64l4.72,4.59c-2.66,1.29-5.19,2.88-7.52,4.74-7.53,5.99-11.21,13.17-12.53,16.26-2.5-4.25-5.53-7.15-7.52-8.76,3.42,.84,6.4,3.88,6.43,3.92Z"/>
      <path class="cls-1" d="M73.74,363.08c5.76-1.95,12.16-2.25,18.14-.89-.95,2.64-2.01,4.89-3.17,6.77h-15.01v-5.87s.03,0,.04-.01Z"/>
      <path class="cls-1" d="M42.2,303.85h27.95c-2.06,4.14-5.4,7.54-9.97,10.09-5.16,2.87-11.09,4.35-17.6,4.34-.36-7.29-.38-12.81-.38-14.43Z"/>
      <path class="cls-1" d="M78.87,302.35H40.19v-10.99h34.85c1.13,4.24,2.44,7.87,3.83,10.99Z"/>
      <path class="cls-1" d="M99.11,306c-.15,6.69-.58,17.59-1.77,28.65h-1.95c-.41,0-.75,.34-.75,.75v17.01c-.03,.06-.06,.12-.08,.19-.37,1.71-.77,3.34-1.19,4.87-6.38-1.52-13.29-1.33-19.67,.53v-3.6c0-.41-.33-.75-.75-.75h-4.54c-.41,0-.75,.34-.75,.75v5.97c-4.19,2.15-7.57,5.04-10.04,8.59h-4.94c-2.42-3.93-4.42-9.36-5.95-16.15v-17.41c0-.41-.33-.75-.75-.75h-2.14c-.43-3.97-.75-7.88-.98-11.51,7.25-.09,14.05-1.78,19.7-4.93,6.15-3.43,10.47-8.27,12.88-14.36h4.12c6.63,13.82,14.82,16.6,15.26,16.74,.07,.02,.15,.03,.22,.03,.32,0,.61-.2,.72-.51,1.68-5.14,2.79-9.86,3.35-14.11Z"/>
      <path class="cls-1" d="M287.2,137.89l-2.54-9.64c.08,0,.16,0,.23,0,5.55,0,9.52-3.71,10.84-10.16,1.11,1.99,2.33,3.76,3.65,5.28,1.14,1.31,2.06,2.67,2.72,4.04,.73,1.5,1.14,3.01,1.24,4.5l-12.88,7.2s-.02-.01-.03-.01c-.29-.15-.64-.09-.87,.14l-1.58,1.58-.4-1.5-.38-1.44Z"/>
      <path class="cls-1" d="M295.92,99.73c-.06-.34-.14-.72-.23-1.13-.78-3.39-2.55-7.78-6.51-9.4-.34-.14-.74-.01-.93,.31-.02,.04-2.15,3.58-5.83,6.71-2.28,1.93-4.65,3.29-7.06,4.06-.33,.11-.55,.42-.52,.76,.19,3.29-.97,5.63-3.54,7.14,0,0-.03,0-.04,.01-.05,.02-.08,.05-.13,.08-2.07,1.16-4.61,1.57-6.29,1.85-1.02,.16-1.7,.27-2.11,.49-.34,.18-.49,.57-.36,.92,1.33,3.67,1.64,5.51,1.7,6.31-.06,.17-.08,.35-.02,.52v.05l-1.07,21.07c-3.63-.41-16.52-1.62-20.01,1.43-.22,.19-.57,.58-1.4,1.86-3.43-2.77-5.17-5.89-5.17-9.27,.01-5.32,3.2-9.86,6.58-14.66,4.11-5.85,8.37-11.9,7.07-19.87-.07-.48-.11-.97-.11-1.54-.01,0-.01-.02-.01-.03v-.03c-.11-1.18-.14-2.3-.09-3.43,.37-7.32,5.28-14.22,12.51-17.58,6.76-3.13,13.9-2.43,19.61,1.92,.29,.23,.7,.2,.97-.05,.16-.15,3.9-3.6,9.43-1.04,3.7,1.71,5.18,5.29,5.77,7.99,1.06,4.86,.11,10.76-2.21,14.55Z"/>
      <path class="cls-1" d="M439.25,159.74c-.37-1.51-.15-2.9,.67-4.23,.15-.24,.33-.46,.54-.64,1.46,3.96,4.16,7.4,7.2,9.12,.03,.02,.06,.03,.1,.05,.35,.19,.71,.36,1.08,.51,0,.06,0,.12,0,.18,0,.14-.01,2.26,.25,5.38-3.32-2.11-8.79-6.13-9.83-10.37Z"/>
      <path class="cls-1" d="M480.23,173.53l-.74-2.25c-.05-.16-.16-.31-.3-.4-.71-.46-1.27-1.07-1.7-1.86-1.18-2.18-1.16-5.73-1.1-7.16,0-.09,0-.18-.04-.26l-.21-.65c-.08-.24-.28-.43-.53-.49-.25-.07-.51,0-.7,.18-5.34,5.03-12.92-.7-13.24-.95-.31-.24-.75-.2-1.02,.1-.03,.04-3.46,3.83-7.89,3.99-.97,.04-1.95-.11-2.89-.44-.52-.18-1.01-.4-1.48-.67-.03-.01-.06-.03-.09-.04-2.92-1.69-5.49-5.18-6.73-9.14-1.05-3.36-.91-6.39,.39-8.09,.86-1.14,2.24-1.69,4.08-1.62,7.13,.22,11.11-2.4,11.81-2.91,.65-.23,4.95-1.59,11.04-.33,.67,.14,1.36,.39,2.07,.75,5.16,2.63,8.98,10.21,9.02,10.29,.18,.36,.6,.51,.97,.36,.07-.03,6.85-2.88,9.78,.9,1.9,2.46,1.09,7.98-2.21,15.14-.66,1.44-1.24,2.52-1.48,2.98-.32,.11-.94,.33-1.72,.51-.98,.23-2.46,.45-3.92,.22-.36-.05-.72,.17-.83,.52-.14,.42-.25,.87-.34,1.32Z"/>
      <path class="cls-1" d="M510.06,152.16c.06,3.29-1.49,5.72-4.61,7.24-1.38-.21-2.45,.09-3.18,.89-1.54,1.66-.84,4.81-.68,5.45,.02,.59,.1,5.04-2.52,7.58-1.46,1.42-3.55,2.01-6.2,1.77,.31-3.2-.67-5.8-2.7-7.11,2.43-5.44,4.56-12.41,1.75-16.05-3.07-3.97-8.95-2.32-10.91-1.62-1.02-1.87-4.35-7.5-8.86-10.08,1.05-4.44,3.77-9.5,10.76-9.65,5.2-.12,9.88,.86,13.9,2.91,2.49,1.27,4.45,3.28,5.52,5.67,.72,1.59,1.78,2.96,3.17,4.09,1.22,.99,2.22,2.12,2.98,3.37,.64,1.06,1.09,2.15,1.32,3.26,.16,.77,.25,1.54,.26,2.28Z"/>
      <path class="cls-2" d="M601.25,202.33c0-.79-.63-1.42-1.42-1.42s-1.42,.63-1.42,1.42,.64,1.42,1.42,1.42,1.42-.64,1.42-1.42Zm-1.42-2.92c1.61,0,2.92,1.31,2.92,2.92s-1.31,2.92-2.92,2.92-2.92-1.31-2.92-2.92,1.31-2.92,2.92-2.92Z"/>
      <path class="cls-2" d="M586.96,202.33c0-1.61,1.31-2.92,2.92-2.92s2.92,1.31,2.92,2.92-1.31,2.92-2.92,2.92-2.92-1.31-2.92-2.92Zm2.92,1.42c.79,0,1.42-.64,1.42-1.42s-.63-1.42-1.42-1.42-1.42,.63-1.42,1.42,.64,1.42,1.42,1.42Z"/>
      <path class="cls-2" d="M586.77,120.89c0,2.91,2.37,5.28,5.28,5.28s5.28-2.37,5.28-5.28-2.36-5.28-5.28-5.28-5.28,2.36-5.28,5.28Zm-1.5,0c0-3.74,3.05-6.78,6.78-6.78s6.78,3.04,6.78,6.78-3.04,6.78-6.78,6.78-6.78-3.05-6.78-6.78Z"/>
      <path class="cls-2" d="M581.5,323.99c.84,0,1.51-.68,1.51-1.51s-.67-1.51-1.51-1.51-1.51,.67-1.51,1.51,.68,1.51,1.51,1.51Zm0-4.52c1.66,0,3.01,1.35,3.01,3.01s-1.35,3.01-3.01,3.01-3.01-1.35-3.01-3.01,1.35-3.01,3.01-3.01Z"/>
      <path class="cls-2" d="M579.92,200.91c-.78,0-1.42,.63-1.42,1.42s.64,1.42,1.42,1.42,1.42-.64,1.42-1.42-.63-1.42-1.42-1.42Zm-2.92,1.42c0-1.61,1.31-2.92,2.92-2.92s2.92,1.31,2.92,2.92-1.31,2.92-2.92,2.92-2.92-1.31-2.92-2.92Z"/>
      <path class="cls-2" d="M577.75,287.63c2.15,0,3.89-1.75,3.89-3.89s-1.74-3.89-3.89-3.89-3.89,1.74-3.89,3.89,1.75,3.89,3.89,3.89Zm0,1.5c-2.97,0-5.39-2.42-5.39-5.39s2.42-5.39,5.39-5.39,5.39,2.41,5.39,5.39-2.41,5.39-5.39,5.39Z"/>
      <path class="cls-2" d="M572.96,141.95c-2.01,0-3.66-1.65-3.66-3.66s1.65-3.66,3.66-3.66,3.66,1.64,3.66,3.66-1.64,3.66-3.66,3.66Zm0-5.82c-1.19,0-2.16,.96-2.16,2.16s.97,2.16,2.16,2.16,2.16-.97,2.16-2.16-.96-2.16-2.16-2.16Z"/>
      <path class="cls-2" d="M571.15,323.99c.84,0,1.51-.68,1.51-1.51s-.67-1.51-1.51-1.51-1.51,.67-1.51,1.51,.68,1.51,1.51,1.51Zm3.01-1.51c0,1.66-1.35,3.01-3.01,3.01s-3.01-1.35-3.01-3.01,1.35-3.01,3.01-3.01,3.01,1.35,3.01,3.01Z"/>
      <path class="cls-2" d="M569.97,203.75c.79,0,1.42-.64,1.42-1.42s-.63-1.42-1.42-1.42-1.42,.63-1.42,1.42,.64,1.42,1.42,1.42Zm2.92-1.42c0,1.61-1.31,2.92-2.92,2.92s-2.92-1.31-2.92-2.92,1.31-2.92,2.92-2.92,2.92,1.31,2.92,2.92Z"/>
      <path class="cls-2" d="M567.79,296.04c-1.42,0-2.59-1.17-2.59-2.59s1.17-2.59,2.59-2.59,2.59,1.16,2.59,2.59-1.16,2.59-2.59,2.59Zm0-3.68c-.6,0-1.09,.48-1.09,1.09s.49,1.09,1.09,1.09,1.09-.49,1.09-1.09-.48-1.09-1.09-1.09Z"/>
      <path class="cls-2" d="M560.8,323.99c.84,0,1.51-.68,1.51-1.51s-.67-1.51-1.51-1.51-1.51,.67-1.51,1.51,.68,1.51,1.51,1.51Zm-3.01-1.51c0-1.66,1.35-3.01,3.01-3.01s3.01,1.35,3.01,3.01-1.35,3.01-3.01,3.01-3.01-1.35-3.01-3.01Z"/>
      <path class="cls-2" d="M557.09,202.33c0-1.61,1.31-2.92,2.92-2.92s2.92,1.31,2.92,2.92-1.31,2.92-2.92,2.92-2.92-1.31-2.92-2.92Zm4.34,0c0-.79-.63-1.42-1.42-1.42s-1.42,.63-1.42,1.42,.64,1.42,1.42,1.42,1.42-.64,1.42-1.42Z"/>
      <path class="cls-2" d="M549.01,142.27c0-1.39-1.12-2.51-2.51-2.51s-2.51,1.12-2.51,2.51,1.13,2.51,2.51,2.51,2.51-1.13,2.51-2.51Zm-6.52,0c0-2.22,1.8-4.01,4.01-4.01s4.01,1.79,4.01,4.01-1.79,4.01-4.01,4.01-4.01-1.8-4.01-4.01Z"/>
      <path class="cls-2" d="M530.17,142.27c0-2.22,1.8-4.01,4.01-4.01s4.01,1.79,4.01,4.01-1.79,4.01-4.01,4.01-4.01-1.8-4.01-4.01Zm1.5,0c0,1.38,1.13,2.51,2.51,2.51s2.51-1.13,2.51-2.51-1.12-2.51-2.51-2.51-2.51,1.12-2.51,2.51Z"/>
      <path class="cls-2" d="M524.38,142.27c0-1.39-1.12-2.51-2.51-2.51s-2.51,1.12-2.51,2.51,1.13,2.51,2.51,2.51,2.51-1.13,2.51-2.51Zm-2.51-4.01c2.22,0,4.01,1.79,4.01,4.01s-1.79,4.01-4.01,4.01-4.01-1.8-4.01-4.01,1.8-4.01,4.01-4.01Z"/>
      <path class="cls-2" d="M408.91,260.91c0-1.8-2.94-3.31-6.42-3.31s-6.42,1.51-6.42,3.31,2.94,3.31,6.42,3.31,6.42-1.52,6.42-3.31Zm-14.34,0c0-2.7,3.48-4.81,7.92-4.81s7.92,2.11,7.92,4.81-3.47,4.81-7.92,4.81-7.92-2.12-7.92-4.81Z"/>
      <path class="cls-2" d="M337.35,264.97c0-4.02,3.27-7.29,7.29-7.29s7.29,3.27,7.29,7.29-3.27,7.29-7.29,7.29-7.29-3.27-7.29-7.29Zm1.5,0c0,3.19,2.6,5.79,5.79,5.79s5.79-2.6,5.79-5.79-2.59-5.79-5.79-5.79-5.79,2.59-5.79,5.79Z"/>
      <path class="cls-2" d="M316.66,19.19c0,1.61-1.31,2.92-2.92,2.92s-2.92-1.31-2.92-2.92,1.31-2.92,2.92-2.92,2.92,1.31,2.92,2.92Zm-4.34,0c0,.78,.64,1.42,1.42,1.42s1.42-.64,1.42-1.42-.63-1.42-1.42-1.42-1.42,.63-1.42,1.42Z"/>
      <path class="cls-2" d="M303.78,20.61c.79,0,1.42-.64,1.42-1.42s-.63-1.42-1.42-1.42-1.42,.63-1.42,1.42,.64,1.42,1.42,1.42Zm0-4.34c1.61,0,2.92,1.31,2.92,2.92s-1.31,2.92-2.92,2.92-2.92-1.31-2.92-2.92,1.31-2.92,2.92-2.92Z"/>
      <path class="cls-2" d="M292.41,19.19c0,.78,.64,1.42,1.42,1.42s1.42-.64,1.42-1.42-.63-1.42-1.42-1.42-1.42,.63-1.42,1.42Zm1.42,2.92c-1.61,0-2.92-1.31-2.92-2.92s1.31-2.92,2.92-2.92,2.92,1.31,2.92,2.92-1.31,2.92-2.92,2.92Z"/>
      <path class="cls-2" d="M280.95,19.19c0-1.61,1.31-2.92,2.92-2.92s2.92,1.31,2.92,2.92-1.31,2.92-2.92,2.92-2.92-1.31-2.92-2.92Zm4.34,0c0-.79-.63-1.42-1.42-1.42s-1.42,.63-1.42,1.42,.64,1.42,1.42,1.42,1.42-.64,1.42-1.42Z"/>
      <path class="cls-2" d="M173.96,17.64c-2.91,0-5.28,2.36-5.28,5.28s2.37,5.28,5.28,5.28,5.28-2.37,5.28-5.28-2.36-5.28-5.28-5.28Zm0,12.06c-3.73,0-6.78-3.05-6.78-6.78s3.05-6.78,6.78-6.78,6.78,3.04,6.78,6.78-3.04,6.78-6.78,6.78Z"/>
      <path class="cls-2" d="M168.44,257.09c1.66,0,3.01,1.35,3.01,3.01s-1.35,3.01-3.01,3.01-3.01-1.36-3.01-3.01,1.35-3.01,3.01-3.01Zm0,1.5c-.83,0-1.51,.67-1.51,1.51s.68,1.51,1.51,1.51,1.51-.68,1.51-1.51-.67-1.51-1.51-1.51Z"/>
      <path class="cls-2" d="M155.07,260.1c0-1.66,1.35-3.01,3.01-3.01s3.01,1.35,3.01,3.01-1.35,3.01-3.01,3.01-3.01-1.36-3.01-3.01Zm3.01,1.51c.84,0,1.51-.68,1.51-1.51s-.67-1.51-1.51-1.51-1.51,.67-1.51,1.51,.68,1.51,1.51,1.51Z"/>
      <path class="cls-2" d="M144.72,260.1c0-1.66,1.35-3.01,3.01-3.01s3.01,1.35,3.01,3.01-1.35,3.01-3.01,3.01-3.01-1.36-3.01-3.01Zm3.01,1.51c.84,0,1.51-.68,1.51-1.51s-.67-1.51-1.51-1.51-1.51,.67-1.51,1.51,.68,1.51,1.51,1.51Z"/>
      <path class="cls-2" d="M433.74,350.91l-.04-.11s-.01,.01-.02,.01l.06,.1Zm-10.09-321.39c.85-.05,2.41-.14,4.48-.19,1.48-.04,3-.06,4.53-.07l2.58-2.57c-3.44,.21-6.67,.57-9.61,1.08h-.01c-.7,.13-1.4,.26-2.1,.4l.13,1.35Zm7.51,1.25c-.38,0-.76,.01-1.14,.02,.2,.17,.41,.34,.61,.5l.53-.52Zm-7.04,301.55c3.67,6,6.64,11.51,8.31,14.71l-6.01-17.88c-.09,.12-.18,.25-.26,.37-.19,.27-.38,.53-.57,.8-.14,.19-.28,.39-.42,.58-.2,.28-.4,.55-.6,.82-.14,.19-.28,.38-.42,.56-.01,.01-.02,.03-.03,.04Zm-2.4,51.49c1.64,.36,3.67,.95,5.87,1.93-1.57-.95-3.53-1.77-5.91-2.07l.04,.14Zm-1.63-.31l-.04-.12s-.02,.03-.04,.05l-.07,.05s.1,.01,.15,.02ZM427.05,1.76h-6.93c-.3,2.11-.36,4.62-.19,7.12l7.12-7.12Zm-9.41,383.35c.79,.58,1.57,1.3,2.32,2.16,.63,.72,1.19,1.48,1.7,2.24l-.23-.88c-.08-.3,.04-.62,.3-.8s.6-.18,.86,0c1.02,.71,2.06,1.5,3.12,2.37-1.09-1.45-2.64-3.05-4.77-4.29-.34-.2-.7-.39-1.07-.58-.39-.18-.8-.36-1.22-.52-.12-.05-.21-.12-.29-.21l-.72,.51Zm-18.83-153.68h33.54l1.69-9.19h-37.97l2.75,9.18h-.01Zm-4.67-113.28c1.99,1.61,5.02,4.51,7.52,8.76,1.32-3.09,5-10.27,12.53-16.26,2.33-1.86,4.86-3.45,7.52-4.74l-4.72-4.59c-1.03,.74-3.54,2.67-6.28,5.63h0c-4.21,4.55-7.19,9.53-8.88,14.82-.08,.26-.29,.45-.54,.51-.26,.05-.53-.02-.72-.21-.03-.04-3.01-3.08-6.43-3.92Zm2.11,241.65c-.22,.17-.44,.34-.66,.52-.2,.15-.4,.31-.6,.46-.24,.19-.48,.38-.72,.56-.18,.14-.36,.28-.55,.42-.11,.08-.22,.17-.33,.26,2.97,3.81,5.21,6.65,6.08,7.78l18.26-11.06,14.51-8.78c-1.02-2.02-4.49-8.76-9.1-16.35,0,.01-.03,.03-.04,.05-.22,.28-.45,.57-.68,.85-.13,.17-.26,.33-.39,.5l-.72,.87-.39,.48c-.24,.29-.49,.58-.74,.87-.13,.15-.26,.31-.39,.46-.25,.29-.51,.59-.77,.88-.13,.15-.25,.29-.38,.44-.26,.3-.53,.59-.8,.89-.12,.14-.25,.28-.37,.42-.27,.29-.55,.59-.82,.88-.13,.14-.25,.28-.38,.41-.28,.3-.56,.6-.84,.89-.12,.13-.25,.26-.37,.4-.28,.29-.57,.59-.86,.88-.12,.13-.25,.26-.37,.39l-.86,.86c-.13,.13-.26,.27-.39,.4-.29,.28-.58,.56-.87,.85l-.39,.39c-.05,.04-.1,.09-.15,.14,2.02,3.1,4.73,7.36,6.66,10.63,.21,.36,.09,.82-.26,1.03-.12,.07-.26,.1-.38,.1-.26,0-.51-.13-.65-.37-1.87-3.16-4.48-7.27-6.47-10.33-.01,0-.02,.01-.03,.02-.29,.28-.58,.55-.87,.83l-.42,.39c-.28,.26-.57,.53-.86,.79-.14,.14-.29,.27-.43,.4-.29,.27-.58,.53-.87,.79-.14,.13-.29,.26-.43,.39-.29,.26-.58,.51-.87,.77-.15,.13-.3,.27-.45,.4-.28,.25-.56,.49-.84,.74-.16,.13-.32,.27-.48,.41l-.81,.69c-.17,.15-.34,.3-.51,.44-.26,.22-.52,.44-.79,.66-.18,.15-.35,.31-.53,.45-.26,.22-.51,.43-.77,.64-.18,.15-.37,.31-.56,.46-.25,.2-.5,.41-.75,.61-.19,.16-.38,.31-.57,.46-.24,.2-.47,.39-.71,.58-.21,.16-.41,.32-.61,.49-.22,.17-.44,.34-.66,.52Zm4.86-230.79c-3.6-6.89-8.98-10.55-9.77-11.06-.17-.05-.32-.15-.42-.32-.06-.11-.09-.22-.09-.34,0-.2,.08-.41,.23-.56h.01c.15-.16,.34-.23,.54-.24,3.82-.46,7.52,2.28,9.17,3.71,1.63-4.6,4.22-8.96,7.71-13h-15.57c-1.26,0-2.29,1.02-2.29,2.29v18.69c0,1.26,1.03,2.29,2.29,2.29h18.69c1.27,0,2.29-1.03,2.29-2.29v-15.33c-8.37,7.24-11.38,15.96-11.41,16.05-.1,.29-.36,.49-.66,.51-.02,.01-.04,.01-.06,.01-.27,0-.53-.16-.66-.41Zm-10.08,47.43h-23.05l.12,2.15,.05,.84h22.7l.18-2.99Zm-27.79,7.38c1.18,1.72,2.69,2.71,3.85,3.25l-.4-6.71-3.45,3.46Zm.48-51.6c.01,.07,.02,.14,.01,.21,0,.06-.83,6.2-.92,7.9-.07,1.26,.81,1.82,1.57,1.91,.5,.06,.86-.09,.91-.23h0s1.69-8.8,1.69-8.8c.07-.36,.39-.61,.74-.61,.05,0,.09,0,.14,0,.41,.08,.68,.48,.6,.88l-1.68,8.7c.01,.23,.03,.41,.04,.56,.07,.4,.22,.94,.6,1.32,.36,.36,.87,.52,1.55,.48h.01c.24-.06,.45-.18,.54-.34,.43-.73,1.39-5.09,1.97-7.7l.1-.44c.29-1.31-.31-3.11-1.43-3.37l-1.17-.27c-.12-.03-.21-.08-.3-.16h-.97s-3.93-.03-3.93-.03c-.02,0-.04-.01-.07-.02Zm-2.36,46.17c.15,1.48,.52,2.87,1.1,4.08l4.12-4.12-.19-3.3c-.04-.63-.36-1.19-.89-1.53-.32-.2-.68-.3-1.04-.3-.24,0-.48,.04-.71,.13-2.84,1.12-2.41,4.77-2.39,4.93v.11Zm16.9-57.51l-16.04,4.36c-.07,.65-.26,1.36-.58,2.13l17.14-4.57c.22-.05,.45-.16,.65-.29l2.28-1.53-2.74-.17c-.25-.02-.49,.01-.71,.07Zm-8.26,.51c-1.08-.57-8.81-3.39-9.96-2.9-.72,.48-2.03,1.88-3.72,3.97,.54-.38,1.05-.75,1.48-1.08,1.09-.85,2.64-.59,3.6,.6,.37,.47,.63,1.05,.76,1.72l8-2.18s-.08-.1-.16-.13Zm-10.28,51.8c-1.59,2.37-1.46,7.53,1.53,11.73,1.34,1.88,3.08,3.3,5.11,4.19,.6,.26,1.22,.47,1.86,.64,.32,.08,.54,.36,.56,.68l.21,3.55h21.02l.76-13.05h-22.54l.36,6.22c.03,.49-.19,.96-.6,1.24s-.92,.32-1.37,.12c-1.46-.66-3.52-1.95-4.99-4.41-.96-1.6-1.55-3.5-1.76-5.64-.23-1.7,.18-5.26,3.33-6.5,1.04-.41,2.17-.3,3.11,.3,.93,.6,1.5,1.57,1.57,2.68h23.23l.5-8.57h-24.22l.18,3.22c.02,.22-.07,.44-.23,.59s-.39,.23-.61,.2c-1.77-.21-5.03-.13-7.01,2.81Zm-.62,60.3c-.27,.36-.37,.81-.26,1.25l13.09,51.49c.32,1.24,1.43,2.11,2.7,2.11h.15c-.42-.49-.74-1.08-.9-1.74l-13.09-51.49c-.19-.75-.08-1.52,.29-2.17h-.84c-.44,0-.86,.2-1.14,.55Zm17.84,56.87c-8.73,0-16.29,3.63-19.25,9.25-2.92,5.54-1.49,12.8,4.13,20.98,.31,.45,.58,.87,.87,1.32,.45,.69,.96,1.47,1.68,2.49l29.88-28.1c2.86-2.68,6.21-4.69,9.83-5.94h-27.14Zm-23.86-96.38h14.41l-.17-2.93c-2.68-.79-4.98-2.36-6.75-4.56l-7.49,7.49ZM492.53,43.11c1.09,.54,3.34,1.67,6.12,3.17l2.89-2.89c-3.23-1.61-5.89-3.02-7.06-3.64l-1.95,3.36Zm-5.41,139.63c1.96-1.09,3.51-3.82,4.07-6.56,.5-2.46,.27-5.39-1.67-6.8-.73,1.52-1.28,2.5-1.3,2.54-.08,.15-.21,.26-.36,.33-.02,0-.15,.06-.38,.14,.44,.15,.86,.38,1.21,.71,.82,.76,1.19,1.86,.97,2.87-.15,.63-.4,1.44-.74,2.4-.62,1.71-1.41,3.52-1.8,4.37Zm-1.44-8.9c-.38,.12-1.31,.79-1.05,2.36,.06,.37,.27,.66,.63,.85,.25,.14,.4,.42,.39,.71l-.3,4.76,.02,.02c.05-.01,.19-.06,.25-.11,.06-.13,1.11-2.4,1.89-4.57,.32-.9,.55-1.65,.68-2.22,.11-.48-.09-1.05-.51-1.44-.5-.45-1.21-.59-1.95-.38-.01,.01-.03,.01-.05,.02Zm-4.26,3.24c.08,2.18,.78,4.82,2.46,5.77-.01-.03-.01-.06-.01-.09-.01-.05-.03-.1-.02-.14l.27-4.53c-.52-.41-.86-.98-.97-1.64-.24-1.47,.22-2.55,.86-3.24-.67,.08-1.42,.11-2.18,.04-.32,1.21-.46,2.54-.41,3.83Zm1.49-46.5c-6.99,.15-9.71,5.21-10.76,9.65,4.51,2.58,7.84,8.21,8.86,10.08,1.96-.7,7.84-2.35,10.91,1.62,2.81,3.64,.68,10.61-1.75,16.05,2.03,1.31,3.01,3.91,2.7,7.11,2.65,.24,4.74-.35,6.2-1.77,2.62-2.54,2.54-6.99,2.52-7.58-.16-.64-.86-3.79,.68-5.45,.73-.8,1.8-1.1,3.18-.89,3.12-1.52,4.67-3.95,4.61-7.24-.01-.74-.1-1.51-.26-2.28-.23-1.11-.68-2.2-1.32-3.26-.76-1.25-1.76-2.38-2.98-3.37-1.39-1.13-2.45-2.5-3.17-4.09-1.07-2.39-3.03-4.4-5.52-5.67-4.02-2.05-8.7-3.03-13.9-2.91Zm-15.08,70.71c.6-.2,1.19-.41,1.79-.67,6.34-2.72,8.77-7.63,9.69-11.29-3.5,5.42-9.25,6.97-11.13,7.34l-.35,4.62Zm-9.86-163.4c.02-.12,.03-.23,.05-.35-.11,.03-.23,.05-.35,.08,.13,.06,.23,.15,.3,.27Zm-3.28,248.26c.19,.75,.08,1.53-.3,2.19h15.38c-.23-1.7-1.42-3.85-5.94-3.85h-9.56l.42,1.66Zm-1.78-246.36c-1.67,1.45-1.98,4.23-2.03,5.59,1.35-.17,4.09-.73,5.38-2.54,.72-1.01,.88-2.32,.49-3.89-.38-.06-.74-.09-1.08-.09-1.11,0-2.04,.31-2.76,.93Zm-2.58,125.24c0,.8,.06,3.26,.38,6.42,.82,8.13,3.58,22,12.79,23.6,1.31,.23,2.62,.3,3.91,.23,.6-.07,9.73-1.33,12.46-10.84,.09-.32,.4-.54,.73-.54h.08c.36,.04,.64,.34,.66,.7,.01,.13,.58,12.38-11.13,17.4-.83,.36-1.66,.65-2.51,.9l-.21,2.81-.09,1.16c3.01,.61,16.29,2.64,22.56-6.79l-5.46-15.44c-.08-.01-.16-.02-.23-.04-.93-.22-1.75-.74-2.42-1.53-1.11-1.29-1.8-3.3-1.92-5.74-.04-.06-.07-.13-.1-.19l-1.68-5.15c-.82-.58-1.48-1.34-1.98-2.26-1.14-2.1-1.33-5.11-1.3-7.12-5.22,3.64-11.66-.08-13.56-1.34-1.17,1.13-4.39,3.86-8.5,4.01h-.33c-.72,0-1.44-.09-2.15-.25Zm.35,90.05l-3.61-1.08-.6-.18,.31,1.22,2.88,11.33,.18-.69,2.58-10.08-1.74-.52Zm-.17,14.02l-.04,.43,3.42,13.46h9.94c6.43,0,7.38,3.98,7.48,5.71,1.49,1.14,9.31,7,19.25,11.72,2.6,1.24,5.15,2.3,7.57,3.16,3.12,1.09,6.11,1.89,8.9,2.35,.03,.01,.06,.01,.09,.01,.1-.02,.21-.03,.32,0,.07,.01,.11,.04,.17,.07,1.44,.22,2.84,.37,4.18,.41,.58-3.4,3.29-20,4.75-38.82-1.25-.41-2.56-.87-3.93-1.38-6.16-2.31-12.38-5.21-16.52-7.24-1.82-.89-3.42-1.7-4.69-2.35-2.03,1.04-4.79,1.32-6.09,1.16-1.68-.21-5.16-1.64-6.69-2.3-.92-.09-6.58-.68-9.38-1.63-.83,.21-1.67,.33-2.51,.33h-7.03c-1.74,0-3.46-.46-5.04-1.33l-.61,2.41-2.76,10.78-.78,3.05Zm-2.49-38.1c.14,2.37,.69,9.67,2.5,14.56,.28,.76,.58,1.43,.88,1.98,.08,.15,.18,.3,.27,.44l.14,.2h0c.76,1.17,1.7,2.15,2.8,2.89,1.55,1.06,3.31,1.62,5.09,1.62h7.03c.22,0,.43-.01,.64-.03-.28-.44-.36-.97-.2-1.51,.3-1.09,1.44-1.94,2.7-2.03,.34-.03,.89-.04,1.69-.04,.72,0,1.64,.01,2.77,.03,.47,0,.96,.01,1.45,.02-.16-.3-.25-.57-.28-.84-.11-.99,.59-2.03,1.09-2.63-.08-.12-.17-.25-.26-.4-.65-1.04-1-1.92-1.04-2.62-.04-.99,.6-1.86,1.15-2.42-.33-.42-.56-.99-.67-1.65-.12-.8-.06-1.84,.5-2.37,.36-.35,.96-.67,1.79-.97,.02-.16,.04-.34,.06-.5,0-.03,.02-.05,.02-.08,0-.02,0-.05,0-.07,.16-1.54,.24-2.82,.29-3.58h-30.4Zm4.82,145.09c-2.97-3.33-6.73-5.77-11.17-7.29l-10.85,6.78c-.12,.08-.26,.12-.4,.12-.08,0-.17-.02-.26-.05-.03-.01-3.28-1.2-6.52-1.05-.19,.02-.39,.04-.59,.07-2.07,.32-4.49,1.75-5.93,2.87-.56,.43-.87,.75-1.02,.91,.39,.69,2.27,2.44,3.94,3.78,.04,.03,.06,.07,.08,.1,.16-.17,.38-.27,.61-.25,8.53,.49,12.58,6.88,12.75,7.15,.19,.31,.14,.7-.13,.95-.26,.24-.66,.26-.95,.05-3.19-2.33-6.44-3.65-8.89-4.4,4.18,3.22,5.67,7.41,5.74,7.61,.12,.33-.01,.69-.3,.87-.29,.19-.67,.16-.92-.08-1.57-1.46-3.11-2.78-4.61-3.93l1.5,5.73c.1,.39-.12,.79-.51,.9-.07,.03-.14,.04-.22,.04-.31,0-.6-.2-.71-.51-.01-.05-1.66-4.78-4.65-8.2-.75-.87-1.54-1.58-2.32-2.13-.16-.11-.25-.26-.3-.44-.05-.02-.11-.04-.15-.08-2.39-1.72-10.78-3.88-16.16-.25-3.38,2.28-4.79,6.39-4.22,12.23h38.74l11.07-8.21c1.02-5.82,3.43-10.18,7.35-13.29Zm-13.25-7.76l-2.56-7.63-4.63-9.1-23.09,13.98,7.51,10.31c.82-.58,1.8-1.17,2.84-1.67,1.03-.48,2.12-.87,3.16-1.03,.25-.04,.5-.07,.74-.08,2.93-.16,5.79,.69,6.77,1.01l9.26-5.79Zm1.42-116.52l-4.26-16.78c-.32-1.24-1.43-2.1-2.71-2.1h-70.4c-.44,0-.86,.2-1.14,.55-.27,.36-.37,.81-.26,1.25l13.09,51.49c.32,1.24,1.43,2.11,2.7,2.11h70.4c.45,0,.87-.21,1.14-.56,.28-.36,.38-.81,.27-1.25l-.66-2.6-1.29-5.05-.66-2.61-.7-2.75-4.75-18.7-.77-3Zm-4.26,150.47l22.12-16.1s.02,0,.02,0l1.87-1.36c-.52-1.38-2.38-5.38-6.77-7.71-3.81,2.94-6.13,7.13-7.08,12.83-.03,.19-.13,.36-.29,.48l-11.51,8.53c-.13,.09-.29,.15-.45,.15h-39.22c-.37,.77-.7,2.02-.58,3.19h41.89Zm.09-377.2L460.17,1.76h-31l-9.07,9.07c.5,4.19,1.91,10.11,5.73,15.39,3.35-.56,7.05-.95,11.01-1.14Zm.6,206.35c1.97,0,3.68,1.33,4.16,3.23l4.44,17.47,1.46,.43,3.61,1.08,1.68,.51,.54-2.14c-1.08-.82-2.01-1.83-2.78-3.01l-.12-.19c-.12-.18-.24-.35-.34-.54-.35-.63-.67-1.35-.98-2.19-2.26-6.1-2.61-15.41-2.63-15.81,0-.2,.07-.4,.21-.54,.15-.15,.34-.23,.54-.23h31.97c.21,0,.4,.08,.54,.22,.14,.15,.22,.35,.21,.55,0,.07-.05,1.5-.24,3.6,.68-.02,1.38,.06,2.03,.19h1.79c2.68-.34,5.08-.33,6.33,.02,.32,.09,.55,.19,.73,.3,1.67,1.09,4.84,5.43,5.63,6.54,2.88,.62,5.57,1.16,7.9,1.61-.04-.12-.08-.24-.12-.37-.8-2.51-1.53-4.92-2.15-7.15-1.69-6.07-2.56-10.62-2.57-13.52-.01-7.02,2.27-12.83,6.09-15.65,1.02-.75,2.13-1.3,3.34-1.64-5.35-1.04-12.3-2.28-17.56-3.18-7.69,11.39-24.56,7.22-24.73,7.17-.35-.09-.59-.42-.56-.78l.12-1.7-12.66,.76c-.07,.02-14.5,2.57-16.9,12.23-.2,.82-.46,1.83-.75,2.97l-1.8,9.76h3.57Zm.76,3.23l4.27,16.78,.76,3,4.75,18.7,.7,2.75,.67,2.61,1.28,5.05,.66,2.6c.19,.75,.08,1.52-.29,2.18h.83c.45,0,.87-.21,1.14-.56,.28-.36,.38-.81,.27-1.25l-.66-2.6-3.6-14.15-.05-.18-.23-.9-3.37-13.28-.64-2.5-4.54-17.88c-.32-1.24-1.43-2.1-2.71-2.1h-.14c.42,.49,.73,1.07,.9,1.73Zm3.76-89.26c-1.3,1.7-1.44,4.73-.39,8.09,1.24,3.96,3.81,7.45,6.73,9.14,.03,.01,.06,.03,.09,.04,.47,.27,.96,.49,1.48,.67,.94,.33,1.92,.48,2.89,.44,4.43-.16,7.86-3.95,7.89-3.99,.27-.3,.71-.34,1.02-.1,.32,.25,7.9,5.98,13.24,.95,.19-.18,.45-.25,.7-.18,.25,.06,.45,.25,.53,.49l.21,.65c.03,.08,.04,.17,.04,.26-.06,1.43-.08,4.98,1.1,7.16,.43,.79,.99,1.4,1.7,1.86,.14,.09,.25,.24,.3,.4l.74,2.25c.09-.45,.2-.9,.34-1.32,.11-.35,.47-.57,.83-.52,1.46,.23,2.94,.01,3.92-.22,.78-.18,1.4-.4,1.72-.51,.24-.46,.82-1.54,1.48-2.98,3.3-7.16,4.11-12.68,2.21-15.14-2.93-3.78-9.71-.93-9.78-.9-.37,.15-.79,0-.97-.36-.04-.08-3.86-7.66-9.02-10.29-.71-.36-1.4-.61-2.07-.75-6.09-1.26-10.39,.1-11.04,.33-.7,.51-4.68,3.13-11.81,2.91-1.84-.07-3.22,.48-4.08,1.62Zm-2.91-120.4c15.02-.45,29.65,1.76,31.89,2.12l8.85-5.85c.26-.17,.6-.16,.86,.02l3.4,2.49c.17,.13,.28,.33,.3,.55,.02,.21-.06,.43-.21,.58l-10.92,11.13c-.14,.15-.34,.23-.54,.23-.08,0-.16-.02-.23-.04-13.29-4.45-28.57-5.43-39.17-5.47l-.27,.28-1.15,1.15c2.6,1.86,5.59,3.32,8.93,4.3,5.65,1.64,14.64,.32,17.98-.71,.26-.08,.54-.01,.74,.17,.2,.19,.28,.47,.21,.73-1.18,4.58,.77,9.85,4.64,12.53,3.88,2.69,9.5,2.69,13.37,0,.25-.18,.59-.18,.85,0,.26,.17,.38,.49,.3,.8-.8,3.25-1.26,9.31-.07,16.11l18.73-18.73c-3.71-2-6.36-3.27-6.39-3.29-.19-.09-.33-.25-.39-.45s-.04-.42,.07-.6l2.72-4.68c.2-.35,.64-.48,1-.28,.04,.02,3.57,1.92,8.11,4.18L543.17,1.76h-80.88l-23.24,23.24Zm31.93,3.65c-.17-.03-16.86-2.8-33.49-2.09l-2.72,2.72c10.5,.11,24.95,1.19,37.71,5.38l9.98-10.18-2.28-1.67-8.66,5.72c-.16,.11-.35,.15-.54,.12Zm-31.73,131.09c1.04,4.24,6.51,8.26,9.83,10.37-.26-3.12-.25-5.24-.25-5.38,0-.06,0-.12,0-.18-.37-.15-.73-.32-1.08-.51-.04-.02-.07-.03-.1-.05-3.04-1.72-5.74-5.16-7.2-9.12-.21,.18-.39,.4-.54,.64-.82,1.33-1.04,2.72-.67,4.23Zm116.63,242.55l-.35-1.55c-.24,.51-.47,1.03-.69,1.55h1.04Zm.25-5.71c10.44-16.3,32.48-17.28,40.85-17.01-19.49-10.1-37.02-2.53-44.3,1.68l3.45,15.33Zm-5.07-22.54c6.32-13.82,19.23-24.74,24.94-29.1-13.01,3.25-21.87,11.99-27.18,19.14l2.24,9.96Zm-3.83-17.02c4.53-10.62,10.09-19.54,12.57-23.32-5.5,2.2-10.71,5.63-15.51,10.23l2.94,13.09Zm-8.99-1.98l10.62,47.23h4.37c.51-1.3,1.11-2.57,1.79-3.8l-3.92-17.43-.99-4.4-2.82-12.56-1.13-5.02h0s-3.42-15.21-3.42-15.21l-.77-3.4-3.73,14.59Zm-6.36-238.61c5.97-.47,11.83,1.1,16.68,4.38v-6.88c-.47-.88-2.95-5.49-6.28-11.62-4.37,.8-9.39,1.3-14.62,1.3-9.76,0-20.27-1.73-28.75-6.47-13.57-7.57-18.92-19.15-21-28l-95.72,95.72h10.21c.21,0,.41,.08,.55,.23s.22,.35,.2,.56l-.58,10.05v.02l-.26,4.49h0s-.8,13.76-.8,13.76h29.91c.42,0,.75,.33,.75,.75v9.02c0,.41-.33,.75-.75,.75h-30.66l4.86,16.25h38.74c.23-.92,.44-1.73,.61-2.41,2.63-10.61,17.54-13.24,18.18-13.35l12.95-.78,.21-2.79,.35-4.6c-1.13,.01-2.28-.08-3.42-.29-10.03-1.74-13.07-15.95-13.98-24.54-3.9-2.34-10.22-6.82-11.47-11.88-.47-1.9-.18-3.71,.86-5.38,.34-.55,.79-1.01,1.33-1.37-1.02-3.64-.75-6.85,.78-8.86,1.16-1.53,3-2.28,5.33-2.21,7.12,.23,10.89-2.63,10.93-2.66,.06-.05,.12-.08,.19-.11,.2-.08,4.93-1.9,11.99-.44,.51,.11,1.04,.29,1.57,.5,1.22-4.89,4.33-10.32,12.11-10.49,5.44-.12,10.36,.91,14.61,3.08,2.79,1.42,5,3.69,6.21,6.39,.62,1.36,1.54,2.55,2.75,3.53,.6,.49,1.15,1.02,1.65,1.58-.06-1.23-.06-2.44,.05-3.65,1.06-12.45,11.27-22.59,23.73-23.58Zm-10.25,46.99c4.28,2.52,9.2,3.66,14.22,3.3,4.73-.35,9.1-2.09,12.72-4.8,.03-.39,.35-.7,.74-.7,.05,0,.1,.02,.15,.03,5.02-4.12,8.42-10.17,8.95-16.97,.56-7.19-2.03-14.22-7.11-19.29-.65-.65-1.34-1.26-2.06-1.83-.29-.03-.52-.21-.62-.47-4.74-3.52-10.62-5.24-16.62-4.77-11.74,.94-21.35,10.49-22.36,22.22-.16,1.92-.1,3.88,.2,5.83,.69,1.16,1.17,2.37,1.43,3.6,.17,.81,.27,1.63,.29,2.42,.62,1.44,1.35,2.79,2.17,4,.15,.23,.17,.53,.03,.78l-9.76,17.9s-.02,.05-.04,.08c-.09,.16-.01,.28,.07,.35,.07,.07,.2,.14,.36,.03l16.43-11.67c.24-.18,.56-.19,.81-.04Zm-.55-113.62c6.78,1.18,14.43-10.6,14.5-10.72,.15-.22,.39-.34,.63-.34,.14,0,.28,.03,.4,.11l2.84,1.76c.35,.21,.46,.67,.25,1.02-2.49,4.16-6.42,11.46-6.36,13.29,.08,1.35,6.4,9.5,15.22,19.67V1.76h-3.27l-41.21,41.21c8.04,3.94,13.91,6.29,17,6.83Zm15.79,194.26l-11.69,4.18c-.08,.03-.17,.05-.26,.05-.05,0-.11-.01-.17-.02-2.42-.57-7.11-1.55-8.59-1.86-2.63-.53-5.19-1.02-7.74-1.51l-3.33-.65s-.03-.01-.04-.01c-.07-.02-.14-.05-.2-.09-.01,0-.03-.01-.04-.01-.04,0-.08,.02-.13,.02s-.09-.01-.14-.02c-2.57-.49-5.63-1.1-8.93-1.82-.19-.04-.35-.16-.46-.32-.46-.67-3.91-5.4-5.37-6.36-.02,0-.1-.05-.32-.11-.51-.15-1.31-.22-2.29-.22-1.04,0-2.26,.08-3.55,.24-.39,.05-.79,.11-1.18,.17-1.32,.2-2.52,.47-3.45,.78-1.12,.36-1.54,.65-1.69,.79-.07,.12-.15,.71,.02,1.35,.12,.46,.34,.8,.58,.91,.23,.11,.4,.34,.42,.61,.02,.26-.09,.52-.31,.67-.41,.3-1.25,1.12-1.22,1.74,.02,.24,.14,.82,.81,1.89,.28,.46,.53,.79,.54,.8,.23,.3,.2,.72-.06,.99-.47,.47-1.14,1.39-1.09,1.87,.02,.14,.1,.32,.25,.54l.59,.68c.14,.16,.2,.36,.18,.56v.03c0,.41-.34,.74-.75,.74h0c-1.01-.03-2.01-.05-2.95-.06-2.32-.04-3.73-.04-4.32,0-.7,.06-1.25,.53-1.37,.95-.05,.19,0,.32,.18,.46,.11,.08,.32,.2,.76,.36,2.72,.99,9.26,1.62,9.33,1.63s.15,.03,.22,.06c2.27,.98,5.15,2.08,6.39,2.23,1.23,.15,3.84-.18,5.52-1.17,.23-.13,.5-.14,.73-.02,1.3,.68,3.02,1.55,5.01,2.53,4.11,2.01,10.28,4.88,16.39,7.17,1.55,.58,3.04,1.11,4.42,1.55,4.78,1.55,8.63,2.34,11.44,2.34,3.93,0,6.78-1.25,8.46-3.71,4.17-6.07,.44-17.97-.59-20.93Zm-14.07-179.95c2.7,4.39,7.51,13.16,12.61,22.45,.11,.2,.13,.47,.04,.69-.1,.21-.27,.39-.5,.45l-16.91,4.06,.68,1.76c2.88-1.17,13.42-4.79,21.1,1.25,.08,.06,.14,.14,.19,.23,1.17,2.14,2.29,4.2,3.33,6.12,2.2,4.05,4.06,7.48,5.24,9.67l.18-33.69s0,0,0,0c-5.05-5.77-16.81-19.49-16.91-22.12-.08-2.57,4.7-10.93,6.19-13.47l-1.6-1c-1.76,2.56-8.76,11.95-15.6,10.78-4.12-.72-11.89-4.25-17.87-7.19l-2.94,2.94c8.67,4.77,19.31,11.43,22.74,17,.02,.03,.03,.05,.04,.08Zm14.62,294.13l-11.26,44.03h21.16l-9.9-44.03Zm-7.88-136.46h-.01c-1.85-4.51-3.21-7.56-4.03-9.08-2.52-4.64-7.78-6.4-8.46-6.61-.02-.01-.04-.02-.06-.02-.01-.01-.02-.01-.03-.01-4.37-1.35-7.96-1.02-10.69,.99-3.43,2.53-5.49,7.9-5.49,14.35v.02s.01,.04,.01,.06h0c.02,2.78,.86,7.19,2.52,13.12,.61,2.22,1.33,4.61,2.13,7.1,.13,.4,.25,.78,.37,1.16l2.91,.56c2.41,.47,4.85,.94,7.34,1.44h.01c.06,.01,.18,.04,.33,.07,.19,.04,.38,.07,.57,.11,0,.01,.02,.01,.03,.01,1.8,.38,5.65,1.19,7.89,1.71l12.19-4.37h.03l.47-.17c-.46-1.22-1.47-3.88-2.74-7.14-.99-2.56-1.94-4.98-2.83-7.22s-1.72-4.28-2.46-6.08Zm4.1-135.31c-4.76-8.68-9.57-17.44-12.16-21.64-.01-.03-.02-.05-.04-.08-3.52-5.62-15.4-12.71-22.53-16.62l-19.75,19.76c1.85,8.65,6.92,20.37,20.48,27.94,12.52,7,29.65,7.25,41.89,5.1-.88-1.62-1.8-3.32-2.76-5.08-8.06-6.19-20.03-.71-20.15-.65-.19,.08-.4,.09-.6,.01-.19-.08-.34-.23-.42-.42l-1.27-3.28c-.07-.2-.06-.43,.04-.62s.28-.33,.49-.38l16.78-4.04Zm-6.83,125.52c.82,1.51,2.14,4.46,3.92,8.75h17.83v-56.96c-3.66,2.5-7.97,4.09-12.6,4.43-5.16,.38-10.22-.75-14.66-3.25l-16.04,11.39c-.32,.22-.68,.34-1.04,.34-.43,0-.85-.16-1.19-.47-.62-.54-.78-1.39-.42-2.12,.01-.03,.02-.06,.04-.08l9.58-17.58c-.34-.53-.66-1.09-.97-1.66-.68,2.66-2.5,4.74-5.38,6.08-.14,.06-.3,.08-.45,.05-.96-.17-1.66-.04-2.06,.39-.9,.98-.53,3.31-.31,4.13,.01,.05,.02,.1,.02,.15,.02,.22,.33,5.62-2.96,8.82-1.75,1.7-4.17,2.44-7.18,2.2-.12,.08-.24,.15-.36,.22-.85,3.68-3.29,7.34-6.48,7.84l5.26,14.87c4.9,.85,23.82,4.13,26.05,5.1,.5,.15,6.48,1.97,9.4,7.36ZM193.47,60.12l4.95-3.36-2.89-4.25-4.94,3.35,2.88,4.26Zm2.27,4.7l-12.21,8.24-.51,.35-1.09,22.22,27.33-18.46h.01s7.95-5.38,7.95-5.38l-7.77-2.69h-.01l-13.25-4.59-.45,.31Zm-17.75-1.3l3.72,5.5,1.61,2.38,10.96-7.41-1.63-2.41-3.72-5.5-2.96-4.38-10.96,7.4,2.98,4.42Zm-4.56,122.43c.09-.03,.18-.07,.28-.1-.03-.02-.05-.03-.07-.05-.07,.05-.13,.1-.21,.15Zm-1.12-1.61l-2.34,2.17c1.44-.96,2.58-1.77,3.23-2.23,.45-.33,.71-.53,.72-.53,.18-.13,.42-.18,.65-.12l3.18,.9s.08-.06,.13-.07l.8-.24-4.85-1.28-1.51,1.4h-.01Zm-10.46-.89c.62-.6,1.25-1.19,1.85-1.76-.76-.17-1.54-.31-2.32-.43l.47,2.19Zm.32,8.61c-.6-.01-1.19-.11-1.76-.31h-.5l.48,2.21h2.19l-.41-1.9Zm-1.81,180.96c11.53,8.25,24.21,5.51,26.4,4.95l4.24-10.24c-9.72-2.66-21.01-6.31-26.14-8l-4.5,13.29Zm-6.91-259.14c1.44,.81,2.96,1.02,4.62,.63,8.88-2.09,10.94-26.63,11.41-36.29l-.31,.21-15.72,35.45Zm-9.09-18.59c.88,4.47,3.23,13.86,7.84,17.71l14.63-32.97-22.47,15.26Zm2.14,42.46c3.19,0,6,2.26,6.67,5.38l7.87,36.57c1.36,.2,2.69,.45,3.98,.77,6.66-6.11,7.66-6.03,8.19-5.97,3.59,.38,18.59,4.14,20.24,4.56l15.48-1.46V79.2l-27.41,18.52c-.12,.08-.27,.13-.42,.13-.12,0-.25-.04-.36-.1-.25-.14-.4-.41-.39-.69l1.19-24.1c.02-.24,.14-.45,.33-.58l.2-.14-1.19-1.76-9.85,6.69c-.46,11.19-2.6,36.45-12.61,38.8-.66,.15-1.3,.23-1.92,.23-1.28,0-2.49-.33-3.66-.96l-9.98,22.51h3.64Zm5.2,5.69c-.48-2.24-2.38-3.92-4.63-4.16,1.18,.95,2.04,2.29,2.38,3.85l7.91,36.74,1.42,6.58c.48-.49,1.1-1.1,1.8-1.77l-.9-4.16-7.98-37.08Zm-10.48-5.69l10.34-23.32c-3.78-2.91-6.15-8.91-7.57-14.11,.1,10.35-.22,27.14-2.87,37.43h.1Zm-17.29-31.87c.01,.06,.02,.13,.02,.2,0,.65-.25,1.24-.65,1.69l1.09-.74-.46-1.15Zm6.93,33.37h-3.94c-1.33,0-2.56,.66-3.29,1.77-.58,.89-.78,1.95-.55,2.99l5.5,25.57,2.86,13.28,2.39,11.11h25.03l-.61-2.82-.21-1c-.71-.85-.9-1.73-.51-2.37l-1.64-7.59-7.91-36.75c-.52-2.4-2.66-4.15-5.12-4.19h-12Zm-5.2-33.08l16.73-11.36c-.04-1.68-.08-2.65-.09-2.65,0-.4,.29-.75,.69-.78s.76,.25,.81,.65c0,.01,.08,.63,.26,1.65l23.92-16.25,1.71-3.86c.14-.32,.5-.5,.84-.43,.35,.08,.6,.39,.59,.74,0,0,0,.52-.03,1.44l8.95-6.08-2.87-4.26-53.43,36.28,1.92,4.91Zm.56,1.43l11.83,30.15h1.53c3.05-11.42,3.05-31.61,2.85-41.16l-16.21,11.01Zm-3.97,.89c-.27,.09-.56,.16-.87,.16-.62,0-1.18-.23-1.62-.6l.66,1.68,1.83-1.24Zm1.14,81.13v4.35h5.19l-1.7-7.87c-2.15,1.6-3.19,3.06-3.49,3.52Zm1.56-81.16l-3.97,2.7,10.43,26.59h5.03l-11.49-29.29Zm-3.57-1.31c.59,0,1.07-.48,1.07-1.07s-.48-1.07-1.07-1.07-1.07,.48-1.07,1.07,.48,1.07,1.07,1.07Zm-3.46,86.82h3.97v-4.56c0-.13,.04-.25,.09-.36,.06-.1,1.28-2.26,4.56-4.53l-1.44-6.73-7.18,16.18Zm-.23-80.58c.78,9.96,2.47,18.37,4.89,24.39,.2-.02,.41-.03,.62-.03h6.59l-10.08-25.73-2.02,1.37Zm3.42,24.77c-1.49-3.77-2.71-8.42-3.61-13.76v66.81l7.06-15.91-6.67-30.98c-.08-.38-.12-.76-.12-1.13,0-2.17,1.33-4.19,3.34-5.03Zm1.35-36.03l-3.97,2.69,.36,.91c.17-1.25,1.23-2.22,2.53-2.22,.82,0,1.54,.39,2.01,.98l-.93-2.36Zm69.23,295.25H118.51c-1.21,.38-1.88,1.93-1.98,4.61h76.45c-.07-1.79-.46-3.99-1.29-4.61Zm-69.71-7.82c-.79,.66-2.1,3.15-2.72,6.32h71.93c.03-4.87-.71-11.37-4.18-16.43-2.75,.68-15.77,3.26-27.61-5.27-1.46,.77-6.35,3.36-9.12,5.05-1.23,.74-4.02,1.44-7.56,2.31-6.66,1.66-15.79,3.93-20.74,8.02Zm.3-250.21c-2.06,.5-3.37,2.58-2.92,4.66l6.72,31.21,2.03,9.46,2,9.28h2.19l-2.32-10.78-2.86-13.29-5.51-25.57c-.08-.39-.13-.77-.13-1.16,0-1.04,.31-2.06,.9-2.96,.23-.35,.5-.67,.79-.95-.3,0-.6,.04-.89,.1Zm-7.45-43.85l3.1,7.89,3.97-2.7-2.04-5.19h-5.03Zm1.17,17.23v-1.87c0-.41,.33-.74,.73-.75,.39,.01,.75,.3,.77,.7,.02,.29,.04,.57,.06,.86l1.58-1.08-1.92-4.9-8.05,5.47,2.89,4.25,3.94-2.68Zm221.38,20.27c.16,.57,.58,.88,.86,.81l6.06-1.68c.54-.88,1.34-1.77,2.3-2.66l-8.88,2.41c-.27,.08-.47,.55-.35,1.08,0,.01,.01,.02,.01,.04Zm1.33,219.63c.15,.03,.3,.1,.42,.23l21.29,23.8c.1,.12,.15,.28,.17,.44l2.69,3.01c.35-.2,.88-.5,1.57-.89,.14-.08,.29-.17,.45-.26,.14-.08,.29-.17,.44-.26,.22-.12,.45-.26,.69-.4,.15-.08,.3-.17,.45-.26,.27-.16,.55-.33,.85-.5,.14-.09,.28-.17,.43-.26,.3-.18,.61-.37,.94-.56,.14-.09,.29-.18,.44-.27,.35-.22,.71-.44,1.09-.66,.13-.09,.26-.17,.4-.25,.4-.25,.82-.51,1.25-.78,.12-.07,.23-.14,.35-.22,.47-.29,.96-.6,1.45-.91,.13-.08,.25-.16,.38-.25,.51-.32,1.03-.65,1.56-.99,.12-.09,.25-.17,.38-.25,.54-.35,1.09-.71,1.64-1.08,.14-.09,.27-.18,.4-.27,.57-.37,1.15-.76,1.74-1.16,.13-.08,.25-.17,.38-.25,.61-.41,1.22-.83,1.85-1.26,.1-.08,.21-.15,.32-.23,.65-.44,1.31-.9,1.97-1.37,.09-.06,.17-.12,.25-.18,.7-.49,1.41-1,2.13-1.51,.02-.02,.05-.04,.07-.06,.73-.52,1.46-1.05,2.19-1.6,.06-.04,.11-.07,.16-.11,.73-.54,1.46-1.09,2.19-1.64,.09-.07,.17-.13,.26-.19,.71-.55,1.43-1.1,2.15-1.66,.11-.08,.21-.17,.32-.25,.71-.55,1.43-1.12,2.14-1.69,.12-.09,.23-.18,.34-.28,.72-.57,1.44-1.16,2.16-1.75,.1-.09,.21-.18,.32-.27,.73-.6,1.45-1.21,2.17-1.82,.1-.09,.2-.17,.3-.25,.73-.63,1.47-1.27,2.2-1.92,.08-.06,.15-.13,.22-.19,.76-.67,1.52-1.35,2.27-2.04,.03-.03,.06-.06,.09-.08,.78-.71,1.55-1.43,2.31-2.16l.04-.04c.75-.71,1.49-1.43,2.23-2.16,.06-.07,.13-.13,.19-.19,.7-.7,1.4-1.41,2.09-2.13,.09-.09,.18-.17,.26-.26,.68-.7,1.34-1.41,2-2.12,.1-.11,.19-.22,.29-.32,.65-.71,1.29-1.42,1.92-2.14,.09-.12,.19-.23,.29-.34,.63-.72,1.24-1.45,1.85-2.18,.09-.11,.17-.22,.26-.33,.61-.74,1.21-1.49,1.8-2.24,.07-.09,.14-.18,.21-.28,.59-.77,1.18-1.55,1.75-2.34l.12-.18c.6-.82,1.17-1.64,1.73-2.48,.01-.01,1.51-2.35,3.07-5.84,.13-.28,.4-.45,.69-.45,.1,0,.2,.03,.3,.07,.38,.17,.55,.62,.38,.99-.96,2.16-1.89,3.85-2.49,4.9h2.83l.14-.05v.05h58.09c1.37-.55,14.05-5.96,17.38-19.48-2.43-.43-4.99-1.1-7.65-1.98-2.13,4.82-6.24,10.56-13.97,11.95-14.28,2.56-51.93,1.38-53.53,1.33-.04,0-.09-.01-.13-.02s-.28-.06-.65-.18c-1.63-.51-5.91-2.25-9.03-7.2-.54,3.01,1.49,6.29,3.5,9.19,.13,.19,.17,.43,.1,.65-3.33,11-34.66,39.53-57.8,52.64-.11,.07-.24,.1-.36,.1-.27,0-.52-.14-.66-.38-.2-.36-.08-.82,.29-1.02,24.52-13.9,53.47-41.35,56.99-51.44-1.91-2.76-5.07-7.59-2.91-11.9,.13-.25,.38-.37,.67-.41,.29,0,.54,.16,.67,.41,3.28,6.36,8.82,7.91,9.44,8.06,1.93,.06,39.32,1.17,53.14-1.31,7.02-1.26,10.82-6.5,12.82-10.96-2.37-.84-4.84-1.88-7.38-3.08-9.09-4.32-16.44-9.59-18.9-11.43h-57.98c-6.61,0-12.92,2.5-17.75,7.04l-57.57,54.12,1,1.12Zm-12.41-131.89h64.1l-4.64-15.53,2.43-.72h-45.63l-16.26,16.25Zm-5.52-77.47c2.83,5.74,5.33,12.58,6.82,16.95,2.26-2.48,3.74-4.2,5.05-5.72,2.26-2.61,4.22-4.88,9.17-9.97,.26-1.16,1.48-6.9,1.76-10.4,0-.09,.03-.17,.05-.26l-4.99,1.38c-.16,.05-.33,.07-.49,.07-.95,0-1.84-.73-2.19-1.83-.01-.03-.02-.06-.02-.09-.26-.94-.04-1.86,.51-2.44,.23-.24,.53-.43,.87-.52l12.17-3.31c.91-.67,1.87-1.34,2.84-1.99,2.29-3.06,5.3-6.86,6.91-7.93,1.91-1.26,11.37,2.79,11.46,2.83,.47,.25,.79,.63,.96,1.07l6.19-1.68c.38-.11,.79-.15,1.22-.13l3.44,.21c.54,.03,.99,.4,1.13,.92,.15,.53-.05,1.08-.51,1.39l-2.86,1.92c-.35,.24-.73,.41-1.11,.51l-4.24,1.12c1.26,.06,2.05,.11,2.36,.14,.07,.01,.13,.03,.2,.06,1.02,.21,1.71,1.13,1.72,2.34,.02,1.67-1.28,3.53-3.79,3.88-.91,.13-2.04,.24-3.42,.33,.98,1.06,1.38,2.81,1.06,4.26l-.1,.45c-.9,4.08-1.63,7.27-2.13,8.13-.45,.75-1.4,1.19-2.4,1.12-1.27-.09-2.34-.91-2.87-2.2-.03-.08-.06-.16-.08-.24-.04,.01-.09,.01-.13,.02-.15,.03-.31,.06-.48,.07-.15,.01-.29,.01-.45,0-.07,0-.14,0-.21-.01-.03,0-.06-.02-.09-.02-.1-.01-.19-.01-.29-.03-1.07,1.02-2.42,1.83-4.05,2.42-1.47,3.77-13.6,34.64-20.59,43.39-.03,.05-.06,.1-.1,.15-.08,.1-.17,.19-.25,.28-.03,.03-.05,.06-.07,.09,0,0-.02,.01-.02,.01-1.36,1.53-2.7,2.86-4.01,3.96h16.23l8.71-8.72c-2.74-4.23-3.29-9.79-1.2-12.9,2.12-3.15,5.36-3.65,7.56-3.54l-.18-3.16c-.02-.21,.06-.41,.2-.56s.34-.23,.54-.23h13.48l33.36-33.37c-.54,.3-1.16,.47-1.82,.47h-18.69c-2.09,0-3.79-1.7-3.79-3.79v-18.69c0-2.09,1.7-3.79,3.79-3.79h16.91c3.61-3.85,6.69-5.89,6.82-5.97,.3-.19,.68-.16,.94,.09l5.95,5.77c.17,.17,.26,.42,.21,.67-.04,.24-.2,.45-.43,.55-2.8,1.27-5.47,2.88-7.92,4.79v16.58c0,.65-.16,1.27-.46,1.81l62.58-62.58c-1.25-6.4-1.07-12.28-.44-16.07-4.22,2.11-9.68,1.81-13.57-.89-2.72-1.88-4.6-4.9-5.31-8.15-.17,.51-.41,.99-.72,1.43-2.17,3.03-7.11,3.22-7.32,3.23-.37-.01-.75-.3-.77-.71-.02-.21-.28-5.15,2.54-7.58,.06-.05,.11-.09,.17-.14-3.87,.4-8.31,.4-11.73-.59-3.59-1.05-6.82-2.62-9.6-4.65l-96,96-13.99,13.99Zm.12,226.68c4.98,1.5,11.68,6.33,12.87,7.65,1.46,1.61,1.37,5.74,1.27,7.36l9.29,2.87,14.29-10.68-20.24-22.63-17.48,15.43Zm-11.91,7.61s-.06,.05-.09,.06l-1.44,.72c2.21,.32,6.23,1.32,11.41,4.45-2.13-2.13-5.38-4.5-9.7-5.16-.06-.01-.12-.04-.18-.07Zm9.28-207.92c-2.45,.73-4.96,1.48-9.37,2.77-.09,1.12-.23,1.82-.38,2.61-.14,.74-.3,1.59-.47,2.97,4.9,10.2,9.67,15.88,13.44,15.98h10.76c1.76-1.23,3.59-2.93,5.46-5.06,6.24-7.35,17.61-35.63,20.24-42.29-1.18,.29-2.45,.49-3.85,.6h-.06c-.39,0-.72-.3-.75-.7-.03-.41,.28-.77,.69-.8,1.87-.14,3.49-.45,4.9-.92,.04-.02,.08-.02,.11-.04,1.35-.46,2.5-1.07,3.41-1.84-.68-.58-1.15-1.47-1.09-2.68,.09-1.76,.9-7.77,.94-8.02,.05-.4,.42-.68,.82-.64,0-.04-.02-.07-.02-.11,0-.41,.34-.74,.75-.74h.01l5.54,.04c2.56-.12,4.48-.27,5.86-.46,1.73-.24,2.5-1.4,2.49-2.38,0-.2-.05-.84-.6-.91-.05,0-.1-.01-.15-.03-.77-.06-3.19-.18-6.91-.32l-9.35,2.49c-1.06,1.68-2.71,3.54-5.15,5.55-.32,.26-.8,.22-1.06-.1s-.22-.8,.1-1.06c6.76-5.55,6.65-9.39,5.65-10.64-.44-.54-1.07-.7-1.51-.36-1.04,.81-2.45,1.76-3.95,2.76-.48,.32-.99,.66-1.5,1.01-.06,.04-.11,.09-.17,.11-3.71,2.52-7.84,5.57-8.02,7.82-.32,3.99-1.78,10.54-1.84,10.81-.03,.14-.1,.26-.19,.36-5.03,5.17-6.99,7.44-9.26,10.07-1.43,1.65-3.05,3.52-5.64,6.35,.75,2.28,1.19,3.74,1.19,3.74h0s3.65,8.61,3.65,8.61c.16,.38-.02,.82-.4,.98-.09,.04-.19,.06-.29,.06-.29,0-.57-.17-.69-.46l-3.42-8.06c-2.53,.74-4.43,1.3-6.06,1.78-1.43,.42-2.64,.79-3.86,1.15Zm-.84,24.33c-3.06-2.14-6.29-6.54-9.68-13.18-.08,1.01-.17,2.13-.25,3.38,1.89,4.27,3.29,7.3,4.45,9.8h5.48Zm-8.42-23.16l2.48-.72-.33-1.72-1.41-7.33-.64,8.52-.1,1.25Zm-2.23,38.37l1.7,5.82,1.41,1.96c.82,1.24,1.55,2.47,2.26,3.78h12.03l16.25-16.25h-24.76c-2.41,1.8-5.4,3.38-8.89,4.69Zm10.22,59.47h-16.78l11.84,104.07c1.59-1.28,3.43-2.54,5.1-3.07,.55-.17,1.21-.2,1.94-.11l18.28-16.14-1.27-1.43c-.28-.3-.26-.77,.04-1.05l27.12-25.5c-.81-1.12-1.36-1.97-1.84-2.71-.28-.43-.55-.84-.84-1.28-7.53-10.96-6.46-18.3-4.23-22.53,2.68-5.08,8.73-8.66,16.04-9.72-.93-.57-1.64-1.47-1.92-2.59l-13.09-51.49c-.23-.89-.03-1.81,.53-2.54,.56-.72,1.41-1.13,2.32-1.13h33.36l-2.75-9.19h-77.93c8.81,17.74,.74,31.44-3.27,36.63h7.35c.42,0,.75,.33,.75,.75v8.28c0,.41-.33,.75-.75,.75Zm-15.65-1.5h14.9v-6.78h-7.8c-1.28,1.6-4.61,4.58-7.1,6.78Zm1.25,113.64c2.5,.03,6.26,.66,10.59,3.41-1.88-1.74-4.45-3.51-7.81-4.53-.01,0-.02-.01-.02-.01-.05-.02-.08-.04-.12-.06s-.08-.04-.11-.07h-.01l-2.52,1.26Zm2.21-249.29c3.67-.44,6.64,.16,9.03,1.86,1.89,1.35,3.99,4.22,6.22,8.5l109.52-109.51c-.59-.48-1.17-.98-1.72-1.52-2.99,.09-4.81,.23-4.83,.23s-.04,.01-.06,.01c-.38,0-.71-.3-.74-.68l-.26-2.74v-.04s0-.02,0-.03h0v-.02h0v-.02s.02-.07,.03-.1c0-.04,.01-.07,.02-.1,.02-.06,.05-.12,.09-.18,0-.01,.01-.02,.02-.04s.02-.04,.04-.06h.01c.05-.06,.11-.11,.17-.15h.01s.09-.02,.13-.03c.02-.01,.05-.03,.07-.04,.05-.01,.1-.01,.15-.02,.5-.11,1.01-.2,1.52-.3-3.38-4.91-4.84-10.25-5.45-14.35l-115.11,115.1c.63,1.4,1.01,2.82,1.15,4.23ZM408.82,1.75l-112.52,112.52c-.05,.46-.11,.91-.17,1.38,1.29,2.61,2.76,4.88,4.38,6.74,.97,1.13,1.8,2.28,2.46,3.45L418.53,10.28c-.39-3.78-.17-6.74,.08-8.53h-9.79Zm-115.73,272.49l13.06,103.09,2.08-1.05c.31-.34,1.23-1.29,2.45-2.38l-11.89-104.53c-1.48,1.24-4.13,3.47-5.7,4.87Zm-8.43-145.99l2.54,9.64,.38,1.44,.4,1.5,1.58-1.58c.23-.23,.58-.29,.87-.14,.01,0,.02,.01,.03,.01l12.88-7.2c-.1-1.49-.51-3-1.24-4.5-.66-1.37-1.58-2.73-2.72-4.04-1.32-1.52-2.54-3.29-3.65-5.28-1.32,6.45-5.29,10.16-10.84,10.16-.07,0-.15,0-.23,0Zm13.13,254.27c-17.36-.68-21.38,8.93-22.16,15.24h57.59c2.93-2.28,6.7-3.5,11.18-3.65-.01-2.12-.25-3.96-.38-4.78l-10.1-3.12c-.34-.1-.55-.43-.52-.78,.19-2.07,.12-5.76-.84-6.83-1.16-1.28-8.86-6.73-13.36-7.52-.06-.01-.11-.03-.16-.05-.55-.08-1.04-.07-1.43,.05-2.54,.8-5.7,3.66-7.32,5.24,8.41,1.75,12.69,9.14,12.87,9.47,.17,.3,.11,.69-.16,.93-.26,.23-.66,.25-.94,.03-4.16-3.11-7.78-4.85-10.56-5.82,4.82,3.22,6.93,7.43,7.05,7.66,.16,.33,.06,.73-.23,.94-.3,.22-.71,.18-.97-.07-4.38-4.31-8.49-6.1-11.63-6.77,2.92,1.29,6.29,3.65,8.61,7.94,.19,.36,.06,.82-.31,1.01-.11,.07-.23,.09-.35,.09-.27,0-.53-.14-.66-.39-4.44-8.2-13.34-8.71-13.43-8.72-.13,0-.26-.06-.37-.13-.1,.05-.22,.08-.34,.07-.35-.02-.69-.03-1.04-.04h-.04Zm-13.91-100.48c-2.43,1.99-4.93,4.05-7.48,6.25,2.01,6.45,5.71,28.26,8.49,45.67,2.15,13.42,3.82,24.67,3.84,24.79,.05,.37-.18,.72-.54,.83l-.86,.24,.88,4.16c5.82,5.7,8.73,12.32,10.17,17.06,.13,.01,.25,.01,.38,.01l5.97-3.01-13-102.59c-2.5,2.19-5.11,4.34-7.85,6.59Zm-1.73-154.1c-2.02-.43-5.57-1.51-9.32-4.14,1.27,1.91,3.32,4.34,6.41,6.22,1.51,.93,3.15,1.65,4.9,2.16l-1.07-4.07c-.24-.04-.55-.09-.92-.17Zm-7.06,271.32c-.78,.83-.85,2.22-.82,3.02h71.39c.16-1.51,.27-4.42-.81-6.45-.12-.05-.22-.13-.3-.23-4.3,.12-7.87,1.3-10.6,3.5-.14,.11-.3,.16-.47,.16h-58.39Zm-3.63-109.59c-.75,.07-1.62,.13-2.63,.15l.31,1.4c.78-.49,1.56-1.01,2.32-1.55Zm-3.56,107.71h-29.8c-1.44,.93-1.46,2.88-.93,4.6h31.94l3.88-1.82c.19-.72,.52-1.43,1.09-2,.12-1.16,.33-2.45,.69-3.78l-6.56,2.93c-.1,.04-.2,.07-.31,.07Zm-3.46-257.23c.23,.37,.94,1.4,2.3,2.52,1.78,1.46,4.99,3.27,10.14,3.57,2.85,.16,5.24-.3,7.11-1.38,1.8-1.05,2.57-2.37,2.77-2.75l-.63-2.4-.38-1.44-1.17-4.42c-2.19-.56-4.25-1.4-6.12-2.55-6.45-3.94-8.64-9.91-8.73-10.16-.08-.21-.06-.43,.04-.61,.06-.11,.15-.2,.25-.27,.29-.19,.67-.16,.93,.08,2.23,2.08,4.51,3.48,6.53,4.43s3.78,1.45,4.98,1.7c.8,.17,1.28,.22,1.29,.22s.03,.01,.05,.01c5.53,.53,9.38-2.87,10.55-9.32,.09-.52,.16-1.04,.24-1.55l.02-.16c.09-.62,.16-1.22,.23-1.82,.52-4.96,.31-9.99-.62-14.94-.66-2.85-2.06-6.49-5.05-8.06-.77,1.18-2.76,3.95-5.79,6.51-2.25,1.92-4.61,3.31-7.03,4.17,.06,3.41-1.28,5.99-3.94,7.7,.53,1.83,.97,4.92-.17,7.27-.65,1.34-1.72,2.28-3.18,2.78-.58,.19-1.16,.29-1.74,.29s-1.21-.12-1.81-.33l-1.07,20.91Zm-.48,226.14l1.54,4.98c16.54-1.65,20.54-6.06,21.23-7.03l-.84-4.01c-6.87,1.93-16.34,4.53-21.93,6.06Zm.09-254.51c1.1,3.15,1.43,4.93,1.51,5.88,1,.47,2.02,.53,3.01,.2,1.08-.37,1.84-1.03,2.32-2.02,.87-1.8,.58-4.28,.18-5.85-2.11,.98-4.41,1.35-5.99,1.61-.35,.06-.72,.12-1.03,.18Zm-11.77,104.99c27.84,3.74,46.96,.03,54.57-1.98l-1.49-5.1c-9.32,3.21-21.34,4.49-32.7,4.49-7.19,0-14.1-.51-19.9-1.36l-.48,3.95Zm6.1,165.52c-.11,.01-10.95,.51-17.72,7.37-1.15,1.17-2.26,3.38-2.11,6.22h29.19l7.67-3.43c2.25-5.79,7.86-11.68,21.38-11.47-1.39-4.39-4.07-10.28-9.16-15.45-1.53,1.8-6.61,5.73-22.24,7.26l-6.42,9.19c-.14,.19-.35,.31-.59,.31Zm-16.63-264.31c3.94-5.61,8.02-11.41,6.82-18.77-.08-.55-.13-1.1-.13-1.73-.12-1.24-.15-2.42-.09-3.61,.39-7.87,5.64-15.28,13.37-18.87,7.09-3.29,14.6-2.65,20.68,1.74,1.35-1.01,5.35-3.34,10.59-.91,3.37,1.56,5.66,4.68,6.61,9.03,1.27,5.84-.19,13.09-3.4,17.06,.42,3.35,.52,6.7,.3,10.03L406.7,1.75H210.44V67.86l8.69,3.01c.27,.09,.46,.33,.5,.61s-.09,.56-.33,.72l-8.86,5.98v99.27l14.37-1.35,2.85-5.6-.49-.22c-.19-.09-.33-.25-.4-.44-.06-.2-.04-.41,.05-.59,.1-.19,9.49-17.97,13.95-25.22-3.83-3.06-5.87-6.68-5.87-10.53,.01-5.8,3.49-10.74,6.85-15.52Zm1.55,102.76h5.36l2.06-3.61,.53-4.34-7.95,7.95Zm-.33-79.83c3.49-3.05,16.38-1.84,20.01-1.43l1.07-21.07v-.05c-.06-.17-.04-.35,.02-.52-.06-.8-.37-2.64-1.7-6.31-.13-.35,.02-.74,.36-.92,.41-.22,1.09-.33,2.11-.49,1.68-.28,4.22-.69,6.29-1.85,.05-.03,.08-.06,.13-.08,.01-.01,.03-.01,.04-.01,2.57-1.51,3.73-3.85,3.54-7.14-.03-.34,.19-.65,.52-.76,2.41-.77,4.78-2.13,7.06-4.06,3.68-3.13,5.81-6.67,5.83-6.71,.19-.32,.59-.45,.93-.31,3.96,1.62,5.73,6.01,6.51,9.4,.09,.41,.17,.79,.23,1.13,2.32-3.79,3.27-9.69,2.21-14.55-.59-2.7-2.07-6.28-5.77-7.99-5.53-2.56-9.27,.89-9.43,1.04-.27,.25-.68,.28-.97,.05-5.71-4.35-12.85-5.05-19.61-1.92-7.23,3.36-12.14,10.26-12.51,17.58-.05,1.13-.02,2.25,.09,3.43v.03s0,.02,.01,.03c0,.57,.04,1.06,.11,1.54,1.3,7.97-2.96,14.02-7.07,19.87-3.38,4.8-6.57,9.34-6.58,14.66,0,3.38,1.74,6.5,5.17,9.27,.83-1.28,1.18-1.67,1.4-1.86Zm3.05,39.03l-2.27,5.08c-1.89,4.24-6.1,6.97-10.74,6.97h-.07l-44.07-.24h-14.95s-.08-.02-.12-.02h-.6s-.07-.01-.11-.01c-1.18-.18-1.97-.91-2.16-1.99-.14-.8,.07-1.7,.5-2.39-1.69,1.14-3.86,2.55-6.13,3.86-.27,.15-.55,.28-.85,.4-.11,.08-.25,.13-.39,.14-.14,.05-.27,.08-.4,.12l.45,2.11h24.61c.05,0,.1,.01,.14,.02h57.61s1.41-12.64,1.41-12.64c-.27-.19-.77-.57-1.86-1.41Zm-2.16-3.55c.42,.32,1.09,.83,2.22,1.71,.02,.01,.04,.02,.06,.04l2.02,1.52,2.03-12.04-6.33,8.77Zm5.75,35.92c-2.65-.48-4.93-1.04-6.66-1.62-.19-.07-.35-.21-.44-.4-.08-.19-.09-.4,0-.6l2.11-5.2h-34.18v15.56s.01,.08,.01,.13v.56h30.74l8.43-8.43Zm-23.48-9.32h89.06c.23-.13,.5-.12,.73,0h104.75v-7.52h-29.66c-.09,.04-.19,.07-.3,.07h-22.43c-.11,0-.22-.03-.31-.07h-35.43s-.04,.01-.06,.01h-10.89s-.12-.01-.15-.01h-74.3l-68.84,.03c-.07,0-.14-.01-.21-.03h-31.82c-.07,.02-.14,.03-.21,.03h-23.42c-.07,0-.14-.01-.21-.03h-5.53c-.1,.02-.19,.02-.29,0h-3.89v7.52h34.22c.39-.14,.82-.18,1.26-.1,.11,.02,.22,.06,.33,.1h77.6Zm18.66-23.99l-2.38-1.79c-2.53-1.14-4.77-2.15-6.71-3.03-3-1.35-5.25-2.39-6.68-3.05l-3.06,6.02c-.11,.23-.34,.38-.6,.4l-15.6,1.48h0l-16.29,1.53c-.08,.01-.17,0-.25-.02-.07-.02-3.06-.77-6.75-1.67-5.02-1.2-11.32-2.66-13.4-2.88-.08,.01-.43,.12-1.5,.9-1.08,.77-2.87,2.23-5.82,4.95-1.2,1.11-2.52,2.36-3.82,3.62-1.45,1.41-2.65,2.61-3.04,3.03l-.09,.1s.13,.31,.49,.71c.39,.42,.93,.77,1.52,.99,.61,.23,1.25,.31,1.88,.24,.3-.03,.64-.11,1-.24l7.61-7.05h0l1.81-1.68c.19-.18,.46-.25,.71-.18l6.52,1.72,.51-.28c1.01-1.02,2.7-2.29,5.05-2.7,.09-.02,.18-.01,.26,0,.3,.05,.55,.29,.6,.61,.07,.4-.2,.79-.61,.86-2.01,.36-3.45,1.48-4.31,2.36-.19,.19-.34,.37-.47,.52-.19,.24-.3,.4-.31,.41-.09,.15-.24,.26-.41,.31l-2.34,.7c-.07,.03-.14,.03-.21,.03-.05,.04-.11,.07-.17,.09-.77,.25-1.62,.53-2.41,.79-1.74,.59-2.28,.84-2.45,.93-.35,.19-.79,1.05-.66,1.74,.04,.27,.18,.64,.86,.76h15.6c.06,0,.12,0,.18,.02h.8l43.1,.24c4.06,.05,7.77-2.36,9.43-6.08l2.41-5.41Zm15.14-38.31c-5.88-.49-13.76-.59-15.97,1.35-.12,.1-.5,.52-1.57,2.23-3.8,6.04-12.03,21.51-13.87,24.98l.47,.22c1.35,.62,3.83,1.76,7.33,3.35,1.81,.82,3.9,1.76,6.23,2.81l8.31-11.5c.21-.28,.58-.39,.9-.25s.51,.48,.45,.82l-2.81,16.62-1.43,12.66h62.33c-1.13-2.43-2.47-5.35-4.24-9.37-.05-.11-.07-.23-.06-.35,.16-2.56,.33-4.59,.53-6.23,.19-1.57,.36-2.49,.52-3.29,.17-.89,.31-1.6,.39-2.92,0-.01-.01-.03,0-.04l.17-2.34,1.07-14.12c.02-.38,.33-.67,.7-.69,.37-.03,.71,.24,.78,.6l2.47,12.85,.3,1.58c1.92-.56,3.43-1.01,4.91-1.46,1.22-.36,2.43-.73,3.86-1.15,1.61-.47,3.49-1.03,5.99-1.75-.21-.66-.56-1.75-1.02-3.14-1.4-4.22-4.24-12.27-7.47-18.71-2.31-4.58-4.4-7.56-6.23-8.86-2.2-1.57-5.01-2.07-8.59-1.53l-12.85,7.18c.24,.59,.29,1.42-.17,2.61-2.34,6.07-8.69,7.48-11.31,7.81-.03,0-.07,.01-.1,.01-.37,0-.69-.28-.74-.66-.05-.41,.24-.79,.65-.84,2.36-.29,8.05-1.55,10.1-6.86,.31-.81,.29-1.25,.17-1.51l-2.08,2.08c-.36,.68-1.31,2.12-3.31,3.27h0c-1.86,1.08-4.13,1.62-6.78,1.62-.38,0-.77-.01-1.17-.03-5.55-.33-9.05-2.31-11-3.91h-.01c-1.39-1.15-2.19-2.24-2.55-2.79-.6-.06-1.13-.11-1.57-.16,.5,.97,1.42,2.46,3.01,3.91,.31,.27,.33,.75,.05,1.06-.14,.16-.35,.24-.55,.24-.18,0-.36-.06-.51-.19-2.31-2.1-3.36-4.27-3.73-5.21Zm-15.74,68.82c1.88,.57,4.31,1.11,7.09,1.57l.94,.15c5.9,.91,13.04,1.46,20.46,1.46,11.5,0,23.67-1.32,32.93-4.67,2.82-1.02,5.3-2.2,7.41-3.53h-66.79l-2.04,5.02Zm-39.07,32.06c10.22-4.87,28.1-11.96,41.4-17.09l1.28-2.24h-38.11c-.41,0-.76-.34-.76-.75v-17h-58.86c.15,.41,.21,.86,.12,1.32l-36.9,194.11-.87,4.58c-.23,1.2-1.28,2.03-2.45,2.03-.16,0-.32-.01-.47-.04-1.36-.26-2.25-1.57-1.99-2.92l37.77-198.69c.02-.14,.07-.27,.11-.39h-33.42c-.41,0-.75-.34-.75-.75v-9.02c0-.42,.34-.75,.75-.75h4.03V114.54l-3.72,2.53c-.13,.08-.27,.13-.42,.13-.05,0-.1-.01-.14-.01-.2-.04-.37-.15-.48-.32l-3.73-5.49c-.12-.17-.16-.37-.12-.56,.04-.2,.15-.37,.31-.48l8.96-6.08-3.62-9.24c-.09-.23-.06-.49,.07-.7,.14-.2,.38-.32,.62-.32h6.64c.31,0,.59,.18,.7,.47l2.1,5.36,53.16-36.09-2.99-4.42c-.23-.34-.14-.81,.21-1.04l12.2-8.25c.17-.11,.37-.15,.56-.11,.2,.04,.37,.15,.48,.32l2.96,4.38,5.56-3.77c.34-.24,.8-.15,1.04,.2l3.73,5.49c.11,.16,.15,.37,.11,.56-.03,.2-.15,.37-.31,.48l-5.57,3.78,1.21,1.79,.14-.1c.2-.13,.45-.16,.67-.08l12.6,4.36V1c0-.42,.34-.75,.75-.75h219.19s.05,0,.07,0h33.01s.03,0,.04,0h83s.05,0,.07,0h4.25c.42,0,.75,.33,.75,.75V76.32c.13,.14,.21,.31,.2,.51l-.2,36.91v8.16c.8,.63,1.57,1.3,2.3,2.03,5.39,5.38,8.14,12.84,7.54,20.46-.57,7.37-4.32,13.91-9.84,18.28v58.82c0,.41-.33,.75-.75,.75h-17.96c1.35,3.31,2.96,7.36,4.69,11.82h21.3c2.86,0,5.51,1.29,7.26,3.55s2.35,5.14,1.64,7.91l-23.45,91.73,1.12,5c5.41-5.03,11.31-8.66,17.57-10.76,.31-.11,.65,0,.85,.26,.19,.26,.19,.62,0,.88-.09,.12-8.53,12.11-14.53,26.92l.58,2.62c6.03-7.78,16.02-16.97,30.74-19.41,.34-.06,.69,.13,.82,.46s.01,.7-.28,.9c-.21,.14-20.58,13.89-28.04,32.42l.71,3.18c8.12-4.6,27.32-12.47,48.26,.15,.3,.19,.44,.55,.32,.89-.11,.33-.45,.54-.79,.5-.32-.04-31.59-3.46-43.52,17.44l.94,4.17c.05,.22,0,.46-.15,.63-.14,.18-.36,.29-.59,.29h-8.55s-.07-.02-.1-.02h-22.89s-.05,.02-.08,.02h-19.21c-.35,0-.65-.25-.73-.59l-14.85-66.02h-48.73c-.41,0-.75-.34-.75-.75s.34-.75,.75-.75h81.46l2.02-8.81c.1-.41,.5-.66,.9-.56,.41,.09,.66,.49,.57,.89l-2.16,9.39c-.08,.34-.39,.59-.74,.59h-31.79l14.65,65.11h8.23s.08-.01,.12-.01h9.68s11.39-44.54,11.39-44.54l5.29-20.69,23.5-91.9c.59-2.32,.09-4.73-1.37-6.62-1.47-1.89-3.68-2.97-6.08-2.97h-20.72c1.55,3.98,2.63,6.84,2.63,6.84,.07,.19,.06,.4-.03,.58-.08,.18-.23,.32-.42,.39l-.51,.18c1.11,3.16,5.02,15.56,.41,22.29-1.98,2.89-5.24,4.36-9.7,4.36-2.79,0-6.48-.72-11-2.12-1.64,20.95-4.8,39.05-4.84,39.24-.06,.35-.37,.62-.74,.62h-.01c-1.45-.02-2.99-.15-4.57-.37-3.64,15.1-18.31,20.64-18.46,20.69-.08,.03-.17,.05-.26,.05h-57.71l13.02,38.71-1.71,.57c4.68,1.69,8.61,4.39,11.69,8.03,6.15,3.11,7.89,9.01,7.97,9.26,.08,.3-.03,.63-.28,.81l-2.34,1.71-7.22,5.26,.46-.16,7.08,21.05-4.74,1.59-6.63-19.7-11.26,8.2c-.13,.1-.29,.15-.45,.15h-21.51s-.02-.01-.04-.01h-11.81s-.03,.01-.05,.01h-7.7s-.03-.01-.05-.01h-1.61c-.34,0-.64-.24-.72-.57-.44-1.74,.03-3.8,.73-5.06-.93-8.26,2.1-12.19,4.82-14.03,5.57-3.76,14.04-2.06,17.42-.02l1.86-1.33c-4.23-3.51-3.88-4.38-3.72-4.77,.12-.3,.46-.7,1.02-1.19l-7.62-10.45-8.34,5.05c-.12,.08-.25,.11-.38,.11-.23,0-.45-.1-.59-.29,0,0-2.63-3.33-6.52-8.32l-.51,.39c-.18,.13-.35,.26-.52,.38-.25,.2-.51,.39-.76,.58-.16,.11-.32,.23-.48,.35-.27,.19-.54,.39-.8,.59-.14,.09-.27,.19-.4,.29-.29,.21-.58,.42-.87,.62-.12,.09-.24,.17-.36,.26-.29,.21-.59,.42-.88,.63-.11,.08-.22,.16-.34,.24-.3,.21-.59,.43-.89,.63-.09,.07-.18,.13-.26,.19-.32,.22-.64,.45-.96,.67-.05,.03-.1,.07-.16,.1-.34,.25-.69,.49-1.04,.72-.02,.02-.04,.03-.07,.05-.37,.25-.73,.5-1.09,.75-.02,.01-.04,.02-.05,.03-10.38,7.05-18.1,11.23-18.28,11.33-.11,.06-.23,.09-.35,.09-.13,0-.24-.04-.35-.09-.03-.02-.06-.05-.09-.07-.04-.03-.09-.05-.12-.09l-2.94-3.28-14.16,10.59c.13,.77,.48,3.09,.44,5.77,1.75,2.72,1.41,6.83,1.17,8.51-.05,.37-.37,.64-.74,.64h-72.74c-.37,0-.68-.26-.74-.62-.01-.06-.09-.55-.08-1.24l-3.18,1.48c-.1,.05-.21,.08-.32,.08h-1.93s-.03,.01-.04,.01h-30.66c-.31,0-.59-.2-.7-.49-1.1-2.91-.65-5.43,1.15-6.74-.24-2.96,.67-5.8,2.5-7.65,6.54-6.64,16.29-7.65,18.36-7.79l6.19-8.86-1.62-5.28c-3.72,1.02-6.23,1.7-6.23,1.7-.06,.02-.13,.03-.2,.03-.32,0-.63-.22-.72-.55-.79-2.81-19.3-68.97-20.57-77.09-.43-2.4,1.3-7.12,5.28-14.37l-.07,.02h0l-10.09,2.82c.13,3.83-1.28,10.63-4.22,20.24-8.33,27.31-26.43,69.23-26.61,69.65-.12,.28-.39,.46-.69,.46-.05,0-.11-.01-.16-.02-1.69-.39-3.64-.88-5.77-1.45l-4.3,10.38c3.84,5.52,4.6,12.58,4.52,17.73,1.8,1.5,1.82,5.65,1.8,6.52,0,.41-.34,.74-.75,.74H115.76c-.41,0-.75-.34-.75-.75,0-.91,.06-1.73,.17-2.46,.34-2.2,1.2-3.6,2.53-4.19,.55-3.26,1.97-6.57,3.32-7.68,5.2-4.32,14.53-6.63,21.33-8.32,3.28-.81,6.11-1.52,7.15-2.15,2.92-1.77,8.14-4.53,9.35-5.17l4.57-13.51c-1.12-.37-1.77-.59-1.77-.59-.38-.13-.59-.54-.47-.93,1.11-3.76,27.4-92.27,33.98-105.72,3.19-6.55,6.82-8.96,9.95-10.45Zm31.16,48.95c1.18,7.61,18.28,68.86,20.34,76.22,1.08-.3,3.33-.91,6.2-1.7,2.83-.77,6.88-1.88,11.13-3.05s8.69-2.41,12.3-3.42l.89-.26c-.38-2.58-1.88-12.54-3.73-24.11-2.77-17.35-6.45-39.06-8.43-45.42-.05,.11-.11,.22-.21,.3-1.69,1.32-3.47,2.55-5.29,3.68,2.18,9.89,8.9,40.7,11.72,56.35,.39,2.18,.7,4.01,.91,5.43,.06,.41-.23,.79-.64,.85-.03,0-.07,.01-.11,.01-.36,0-.68-.27-.74-.64-.21-1.41-.51-3.22-.9-5.38-2.86-15.9-9.77-47.5-11.82-56.8l-.73-3.32c-.01-.05,0-.09,0-.13,0-.05,0-.1,0-.15,.01-.06,.02-.11,.04-.16,.03-.08,.08-.14,.13-.2,.02-.02,.02-.05,.04-.07l.02-.02c.12-.11,11.62-10.5,21.64-21.15l7.36-8.26c.59-.71,1.17-1.42,1.71-2.12,4.1-5.22,6.4-10.57,6.87-15.93-3.1-.05-5.86-.34-8.19-.91-2.33-.56-4.29-1.39-5.83-2.46-5.88-4.08-4.68-10.77-3.44-14.39,.25-.73,.54-1.45,.85-2.14,.13-.27,.41-.44,.69-.44,.1,0,.21,.03,.31,.07,.37,.18,.54,.62,.37,1-.3,.64-.57,1.31-.8,1.99-1.35,3.94-1.94,9.33,2.87,12.68,1.39,.96,3.19,1.72,5.33,2.23,2.24,.55,4.89,.84,7.91,.88v-.96c-1.46,.03-4.77-.07-7.96-1.11h-.01c-3.14-1.03-5.35-2.72-6.55-5.02-.82-1.57-1.15-3.43-.98-5.53,.14-1.75,.62-3.68,1.44-5.75,.16-.39,.59-.58,.98-.42,.38,.15,.57,.59,.42,.97-.77,1.93-1.22,3.72-1.35,5.32-.14,1.81,.13,3.4,.82,4.71,.51,.97,1.24,1.82,2.19,2.54,.95,.71,2.12,1.3,3.5,1.75,2.94,.97,6.06,1.06,7.45,1.04-.42-5.17-2.5-8.41-2.52-8.44-.23-.35-.13-.81,.21-1.04,.35-.23,.81-.13,1.04,.21,.1,.16,2.49,3.85,2.82,9.81,.02,.06,.02,.13,.02,.2v.39c.21,6.63-2.24,13.26-7.28,19.68-.55,.71-1.14,1.43-1.75,2.16l-7.39,8.3c-7.94,8.45-16.79,16.71-20.25,19.89,2.7-.15,4.19-.52,4.21-.52,.24-.06,.5,0,.68,.17,.03-.17,.11-.33,.24-.45,2.7-2.33,5.33-4.5,7.89-6.6,3.12-2.56,6.06-4.98,8.87-7.5,2.15-1.93,7.05-6.02,7.1-6.06l.95-.84c2.47-2.19,6.6-5.85,7.61-7.29l.03-.03s.01-.02,.01-.03l.1-.11c2.3-2.7,7.78-10.25,7.78-20.82,0-4.87-1.16-10.38-4.34-16.36-.75-1.42-1.53-2.74-2.38-4.03l-1.18-1.62c-1.94,.55-9.05,2.46-18.52,3.51-3.07,.35-6.4,.6-9.88,.69-1.13,.02-2.25,.04-3.34,.04-12.46,0-21.74-1.73-23.93-2.17l-2.06,3.6-2,3.49c-.02,.05-.05,.08-.07,.12s-.04,.07-.07,.11c-.03,.02-.06,.05-.09,.07-.04,.04-.09,.07-.14,.1-.02,.01-.03,.02-.05,.03-10.9,4.19-30.78,12-41.56,17.14-3.04,1.46-6.27,3.64-9.25,9.75-6.23,12.73-31.15,96.28-33.69,104.81,.42,.14,1.03,.34,1.79,.59,3.74,1.24,11.96,3.92,20.26,6.36,2.48,.73,4.96,1.43,7.33,2.07,2.12,.57,4.04,1.06,5.74,1.46,2.21-5.14,18.53-43.43,26.31-68.91,3.04-9.98,4.43-16.8,4.12-20.3-.04-.36,.19-.69,.54-.79l4.32-1.21s.05-.03,.08-.04l6.29-1.76,1.51-.42c1.23-2.17,2.63-4.53,4.18-7.03,1.58-2.56,3.37-5.35,5.3-8.3,.32-.48,.65-.98,.98-1.47l-11.51,4.38-17.67,6.33c-.2,1.91-1.29,9.21-6.84,22.4-4.52,10.72-17.06,41.47-24.13,58.85l-4.94,12.16c-.12,.29-.4,.47-.7,.47-.09,0-.19-.02-.28-.06-.38-.16-.57-.59-.41-.98l4.94-12.16c7.08-17.38,19.62-48.14,24.13-58.87,6.29-14.92,6.77-22.32,6.78-22.4,.01-.3,.21-.56,.49-.66l18.11-6.49,13.37-5.09,8.04-20.29c.15-.39,.59-.57,.97-.42,.39,.15,.57,.59,.42,.97l-5.65,14.26c1.39-2.02,2.81-4.07,4.29-6.19,.01-.02,.08-.09,.09-.11,.27-.31,.74-.35,1.06-.09,.32,.27,.35,.75,.09,1.06l-.05,.06c-3.76,5.35-7.25,10.48-10.33,15.17-1.92,2.93-3.7,5.71-5.27,8.26-1.6,2.59-3.05,5.03-4.31,7.25h0s-.01,.01-.01,.02c-5.43,9.62-6.25,13.45-5.98,14.96Z"/>
      <path class="cls-2" d="M96.79,141.69c0-2.18,1.77-3.94,3.94-3.94s3.94,1.76,3.94,3.94-1.76,3.94-3.94,3.94-3.94-1.77-3.94-3.94Zm1.5,0c0,1.34,1.1,2.44,2.44,2.44s2.44-1.1,2.44-2.44-1.09-2.44-2.44-2.44-2.44,1.09-2.44,2.44Z"/>
      <path class="cls-2" d="M99.98,52.89c0-1.77-1.43-3.2-3.2-3.2s-3.2,1.43-3.2,3.2,1.44,3.2,3.2,3.2,3.2-1.44,3.2-3.2Zm-7.9,0c0-2.6,2.11-4.7,4.7-4.7s4.7,2.1,4.7,4.7-2.1,4.7-4.7,4.7-4.7-2.11-4.7-4.7Z"/>
      <path class="cls-2" d="M73.95,52.89c0-2.6,2.11-4.7,4.7-4.7s4.7,2.1,4.7,4.7-2.1,4.7-4.7,4.7-4.7-2.11-4.7-4.7Zm1.5,0c0,1.76,1.44,3.2,3.2,3.2s3.2-1.44,3.2-3.2-1.43-3.2-3.2-3.2-3.2,1.43-3.2,3.2Z"/>
      <path class="cls-2" d="M60.52,49.69c-1.76,0-3.2,1.43-3.2,3.2s1.44,3.2,3.2,3.2,3.2-1.44,3.2-3.2-1.43-3.2-3.2-3.2Zm0,7.9c-2.59,0-4.7-2.11-4.7-4.7s2.11-4.7,4.7-4.7,4.7,2.1,4.7,4.7-2.1,4.7-4.7,4.7Z"/>
      <path class="cls-2" d="M28.51,174.86c0-.84-.67-1.51-1.51-1.51s-1.51,.67-1.51,1.51,.68,1.51,1.51,1.51,1.51-.68,1.51-1.51Zm1.5,0c0,1.66-1.35,3.01-3.01,3.01s-3.01-1.35-3.01-3.01,1.35-3.01,3.01-3.01,3.01,1.35,3.01,3.01Z"/>
      <path class="cls-2" d="M23.33,131.54c0-2.94,2.4-5.33,5.33-5.33s5.33,2.39,5.33,5.33-2.39,5.33-5.33,5.33-5.33-2.39-5.33-5.33Zm5.33-3.83c-2.11,0-3.83,1.71-3.83,3.83s1.72,3.83,3.83,3.83,3.83-1.72,3.83-3.83-1.71-3.83-3.83-3.83Z"/>
      <path class="cls-2" d="M23.1,280.37c1.04,0,1.87-.84,1.87-1.87s-.83-1.87-1.87-1.87-1.87,.83-1.87,1.87,.84,1.87,1.87,1.87Zm-3.37-1.87c0-1.86,1.52-3.37,3.37-3.37s3.37,1.51,3.37,3.37-1.51,3.37-3.37,3.37-3.37-1.52-3.37-3.37Z"/>
      <path class="cls-2" d="M99.45,302.35h1.74v-10.99h-3.01c1.08,3.02,1.51,6.71,1.27,10.99Zm-5.96,59.78c-.91,2.61-1.92,4.88-3.03,6.83h4.18v-10.39s-.03,.07-.05,.11c-.3,1.02-.6,2-.92,2.94,0,.07,0,.14-.01,.21-.03,.12-.09,.22-.17,.3Zm-18.15-133.06c.27-1.33,.55-2.66,.8-3.86-.39,.59-.78,1.18-1.15,1.79,.13,.69,.25,1.38,.35,2.07Zm30.13-57.21c-33.64,12.13-33.28,36.98-31.43,49.66,5.42-25.36,31.34-48.06,31.62-48.3,.07-.06,.15-.1,.24-.14,.28-.1,.61-.03,.82,.21,.27,.32,.24,.79-.08,1.06-.28,.24-27.41,24.01-31.56,49.74,.62-.9,1.25-1.79,1.91-2.65,.03-.05,.07-.1,.11-.14,3.82-5.01,8.33-9.45,12.74-13.78,10.74-10.53,20.89-20.5,19.18-36.85-1.22,.38-2.41,.78-3.55,1.19Zm-31.77,189.67c5.95-1.93,12.52-2.19,18.67-.77,.19-.6,.39-1.21,.58-1.85-6.25-1.47-13.03-1.25-19.25,.65v1.97Zm0,7.43h15.01c1.16-1.88,2.22-4.13,3.17-6.77-5.98-1.36-12.38-1.06-18.14,.89-.01,.01-.02,.01-.04,.01v5.87Zm-2.95-79.86c.35-1.07,1.04-2.57,2.29-3.83-.05-.89-.11-1.78-.17-2.7-.14-2.34-.29-4.76-.4-7.69-.69,.12-1.38,.23-2.08,.32h-.1c-.15,0-.29-.05-.42-.14,.78,4.69,.85,9.18,.65,13.29,.08,.25,.15,.5,.23,.75Zm.03-19.1c4.25-15.41,11.21-22.76,17.95-29.88,4.28-4.51,8.32-8.78,11.51-14.94,.19-.37,.64-.51,1.01-.32s.51,.64,.32,1.01c-3.28,6.35-7.4,10.69-11.75,15.28-7.06,7.45-14.35,15.16-18.4,32.37,10.61-1.67,18.9-7.37,24.65-16.95,7.8-12.99,8.73-29.76,7.1-36.21-1.51,1.37-3.13,2.64-4.78,3.86-1.66,1.22-3.35,2.38-5.02,3.53-11.6,7.95-23.56,16.18-22.59,42.25Zm4.34,15.48c-1.85,1.23-2.69,3.24-3.04,4.38h3.54c.34,0,.64,.23,.73,.56,5.46,21.08,15.51,27.16,18.23,28.45,4.7-14.7,4.54-26.15-.45-31.5-2.16-2.3-5.11-3.36-8.63-3.15,.77,.4,1.61,.96,2.45,1.77,3.03,2.9,6.61,9.45,6.41,24.17,0,.41-.34,.74-.75,.74h-.01c-.41,0-.74-.34-.74-.76,.19-14.12-3.1-20.31-5.89-23.01-2.51-2.44-4.87-2.36-4.96-2.36-.05,.01-.09,0-.14-.02-.02,0-.05,.01-.08,0-2.7-.66-4.95-.42-6.67,.73Zm-7.46,83.48v-2.97c-1.44,.89-2.59,1.76-3.74,2.97h3.74Zm1.24-104.95c-.08,2.03-.15,3.91-.23,5.37,0,.06-.02,.11-.04,.16,.3,1.05,.56,2.09,.78,3.12-.48-7.26-.05-13.26,1.08-18.3-.04,.01-.07,.02-.1,.02h0c-.1,0-.21-.02-.3-.06,0-.01-.01-.01-.01-.01l-.69-.33c-.22,2.96-.36,6.69-.48,10.03Zm-.81,25.85h1.31c-.06-.23-.13-.46-.2-.7-.38-.04-.74-.1-1.11-.15v.85Zm-.43,74.37v-2.15c-3.31,1.81-6.06,4.11-8.18,6.88h2.48s.04-.1,.08-.14c1.73-2.07,3.38-3.26,5.62-4.59Zm-16.73,4.73c-1.61-2.79-3-6.17-4.2-10.18v10.18h4.2Zm-8.35-50.68c6.51,.01,12.44-1.47,17.6-4.34,4.57-2.55,7.91-5.95,9.97-10.09h-27.95c0,1.62,.02,7.14,.38,14.43Zm18.33-3.03c-5.36,2.98-11.5,4.5-18.25,4.53,.03,.61,.07,1.23,.1,1.86,7.03-.07,13.62-1.7,19.07-4.74,5.65-3.15,9.66-7.55,11.98-13.05h-2c-2.16,4.72-5.82,8.56-10.9,11.4Zm-8.68,55.21h-6.25c-.41,0-.75-.33-.75-.75v-16.72c-.02-.12-.05-.23-.08-.35-.04-.19,0-.37,.08-.52v-15.97h-3.04v67.13h3.04v-29.51c0-.41,.34-.75,.75-.75h22.43c.42,0,.75,.34,.75,.75v29.5h3.04v-29.5c0-.41,.34-.75,.75-.75h22.44c.42,0,.75,.34,.75,.75v29.51h3.04v-67.13h-3.04v33.56c0,.42-.33,.75-.75,.75h-22.44c-.41,0-.75-.33-.75-.75v-14.56h-3.04v14.56c0,.42-.33,.75-.75,.75h-16.12s-.03,.01-.04,.01c0,0-.01-.01-.02-.01Zm17.38-118.04c-.52-26.3-23.08-52.14-23.31-52.4-.27-.31-.24-.78,.07-1.06,.31-.27,.78-.24,1.05,.07,.23,.26,22.18,25.38,23.63,51.61,1.48-3.41,3.1-8.91,3.19-15.33-.03-.11-.04-.22-.02-.34,.01-.06,.02-.14,.04-.21,0-3.89-.57-8.09-2.08-12.38-3.64-10.36-11.84-18.46-24.39-24.15-1.47-.67-3-1.3-4.59-1.9-1.54,36.25,12.52,49.05,25.71,55.75,.1,.02,.19,.07,.27,.13,.14,.07,.29,.14,.43,.21Zm-22.88,82.98v17.41c1.53,6.79,3.53,12.22,5.95,16.15h4.94c2.47-3.55,5.85-6.44,10.04-8.59v-5.97c0-.41,.34-.75,.75-.75h4.54c.42,0,.75,.34,.75,.75v3.6c6.38-1.86,13.29-2.05,19.67-.53,.42-1.53,.82-3.16,1.19-4.87,.02-.07,.05-.13,.08-.19v-17.01c0-.41,.34-.75,.75-.75h1.95c1.19-11.06,1.62-21.96,1.77-28.65-.56,4.25-1.67,8.97-3.35,14.11-.11,.31-.4,.51-.72,.51-.07,0-.15-.01-.22-.03-.44-.14-8.63-2.92-15.26-16.74h-4.12c-2.41,6.09-6.73,10.93-12.88,14.36-5.65,3.15-12.45,4.84-19.7,4.93,.23,3.63,.55,7.54,.98,11.51h2.14c.42,0,.75,.34,.75,.75Zm-6.54-33.05h38.68c-1.39-3.12-2.7-6.75-3.83-10.99H40.19v10.99ZM15.3,226.12c32.76,10.63,46.56,25.39,52.03,39.56,.02-.56,.05-1.13,.07-1.72,.13-3.59,.29-7.62,.53-10.7-13.64-7-28.06-20.41-26.18-58.02,.02-.24,.14-.46,.34-.59s.44-.16,.67-.08c14.57,5.29,24.42,13.3,29.38,23.82-1.41-14.34,1.02-38.48,37.31-49.41,.21-.07,.44-.04,.62,.08,.19,.12,.31,.32,.34,.54,2.26,17.61-8.32,28-19.52,38.99-4.35,4.27-8.8,8.64-12.56,13.54-.58,2.7-2,9.31-2.6,12.92-.02,2.78-.3,5.44-.77,7.9,4.52-7.48,11.09-12,17.56-16.44,3.78-2.59,7.35-5.04,10.49-8.06,.19-.17,.44-.25,.69-.19,.24,.06,.44,.23,.53,.47,2.15,5.65,1.66,24.4-6.87,38.62-5.58,9.28-13.44,15.05-23.41,17.22,.12,3.03,.27,5.51,.42,7.9,.04,.57,.07,1.11,.1,1.65,2.02-1.26,4.53-1.56,7.5-.87,5.43-1.34,10.13-.24,13.25,3.1,.94,1,1.71,2.18,2.34,3.51h4.38c.42,0,.75,.34,.75,.75v12.49c0,.42-.33,.75-.75,.75h-1.29c-.1,6.31-.48,18.44-1.81,30.8h1.09c.42,0,.75,.34,.75,.75v68.63c0,.42-.33,.75-.75,.75h-4.54c-.41,0-.75-.33-.75-.75v-29.51h-20.94v29.5c0,.42-.33,.75-.75,.75h-4.54c-.41,0-.75-.33-.75-.75v-29.5h-20.93v29.51c0,.42-.33,.75-.75,.75h-4.54c-.41,0-.75-.33-.75-.75v-68.63c0-.41,.34-.75,.75-.75h.89c-1.56-14.53-1.63-28.07-1.63-30.8h-1.26c-.41,0-.75-.33-.75-.75v-12.49c0-.41,.34-.75,.75-.75h27.15v-1.05c-33.17-4.8-36.35-15.84-41.5-33.78-2.31-8.02-4.92-17.1-10.68-27.84-.14-.27-.11-.6,.09-.84,.19-.23,.52-.33,.8-.23Zm53.41,61.47c-10.35-31.66-47.59-55.15-47.97-55.39-.36-.22-.46-.68-.24-1.03,.18-.3,.52-.42,.84-.33,.06,.02,.13,.05,.19,.09,.38,.23,35.83,22.6,47.58,53.31-.1-17.02-6.79-39.14-47.43-54.3-1.64-.62-3.33-1.22-5.08-1.81,5.24,10.16,7.72,18.81,9.93,26.49,5.26,18.29,8.19,28.46,42.18,32.97Z"/>
      <path class="cls-2" d="M16.65,176.37c.84,0,1.51-.68,1.51-1.51s-.67-1.51-1.51-1.51-1.51,.67-1.51,1.51,.68,1.51,1.51,1.51Zm0-4.52c1.66,0,3.01,1.35,3.01,3.01s-1.35,3.01-3.01,3.01-3.01-1.35-3.01-3.01,1.35-3.01,3.01-3.01Z"/>
      <path class="cls-2" d="M6.3,176.37c.84,0,1.51-.68,1.51-1.51s-.67-1.51-1.51-1.51-1.51,.67-1.51,1.51,.68,1.51,1.51,1.51Zm3.01-1.51c0,1.66-1.35,3.01-3.01,3.01s-3.01-1.35-3.01-3.01,1.35-3.01,3.01-3.01,3.01,1.35,3.01,3.01Z"/>
      <path class="cls-2" d="M6.4,295.02c2.57,0,4.65-2.09,4.65-4.65s-2.08-4.65-4.65-4.65-4.65,2.08-4.65,4.65,2.09,4.65,4.65,4.65Zm0-10.8c3.4,0,6.15,2.75,6.15,6.15s-2.75,6.15-6.15,6.15-6.15-2.76-6.15-6.15,2.76-6.15,6.15-6.15Z"/>
    </g>
  </g>
</svg>